<svg xmlns="http://www.w3.org/2000/svg" xmlns:xlink="http://www.w3.org/1999/xlink" width="547" height="430" viewBox="0 0 547 430">
  <defs>
    <clipPath id="clip-path">
      <rect id="사각형_463730" data-name="사각형 463730" width="547" height="430" transform="translate(1022 3100)" fill="red" opacity="0.346"/>
    </clipPath>
    <clipPath id="clip-path-2">
      <path id="패스_1535398" data-name="패스 1535398" d="M629.984,427.94h0A113.062,113.062,0,0,1,743.046,541h0A113.06,113.06,0,0,1,629.984,654.063h0A113.058,113.058,0,0,1,516.923,541h0A113.06,113.06,0,0,1,629.984,427.94Z" transform="translate(621.932 2662.904)" stroke="#3673ee" stroke-width="1" opacity="0.07"/>
    </clipPath>
    <linearGradient id="linear-gradient" x1="0.317" y1="0.038" x2="0.669" y2="1" gradientUnits="objectBoundingBox">
      <stop offset="0" stop-color="#04a0f3"/>
      <stop offset="1" stop-color="#45d49a"/>
    </linearGradient>
    <filter id="타원_1500" x="233.262" y="129.84" width="125.656" height="125.656" filterUnits="userSpaceOnUse">
      <feOffset dy="6" input="SourceAlpha"/>
      <feGaussianBlur stdDeviation="3" result="blur"/>
      <feFlood flood-color="#18b2d9" flood-opacity="0.102"/>
      <feComposite operator="in" in2="blur"/>
      <feComposite in="SourceGraphic"/>
    </filter>
    <filter id="패스_132435" x="273.203" y="177.031" width="41.474" height="43.475" filterUnits="userSpaceOnUse">
      <feOffset dx="2" dy="4" input="SourceAlpha"/>
      <feGaussianBlur result="blur-2"/>
      <feFlood flood-opacity="0.078"/>
      <feComposite operator="in" in2="blur-2"/>
      <feComposite in="SourceGraphic"/>
    </filter>
    <clipPath id="clip-path-3">
      <rect id="사각형_37487" data-name="사각형 37487" width="39.474" height="51.316" fill="none"/>
    </clipPath>
    <clipPath id="clip-path-4">
      <rect id="사각형_235245" data-name="사각형 235245" width="200.292" height="200.292" fill="none"/>
    </clipPath>
    <clipPath id="clip-path-6">
      <rect id="사각형_235221" data-name="사각형 235221" width="62.09" height="28.892" fill="none"/>
    </clipPath>
    <clipPath id="clip-path-7">
      <rect id="사각형_235222" data-name="사각형 235222" width="29.192" height="19.038" fill="none"/>
    </clipPath>
    <clipPath id="clip-path-9">
      <rect id="사각형_235224" data-name="사각형 235224" width="9.965" height="26.774" fill="none"/>
    </clipPath>
    <clipPath id="clip-path-10">
      <rect id="사각형_235225" data-name="사각형 235225" width="172.101" height="105.283" fill="none"/>
    </clipPath>
    <clipPath id="clip-path-11">
      <path id="패스_620633" data-name="패스 620633" d="M200.2,278.657a14.56,14.56,0,0,0,6.61,11.467c3.755,2.253,6.66.05,6.61-3.856a15.22,15.22,0,0,0-6.61-11.467,5.157,5.157,0,0,0-2.654-.8c-2.253,0-4.006,1.8-3.956,4.657" transform="translate(-200.198 -274)" fill="none"/>
    </clipPath>
    <linearGradient id="linear-gradient-2" x1="-4.328" y1="2.916" x2="-4.305" y2="2.916" gradientUnits="objectBoundingBox">
      <stop offset="0" stop-color="#c1c0c0"/>
      <stop offset="1" stop-color="#dedddc"/>
    </linearGradient>
    <clipPath id="clip-path-13">
      <rect id="사각형_235228" data-name="사각형 235228" width="10.716" height="16.103" fill="none"/>
    </clipPath>
    <clipPath id="clip-path-14">
      <path id="패스_620640" data-name="패스 620640" d="M37.6,186.657a14.56,14.56,0,0,0,6.61,11.467c3.755,2.253,6.66.05,6.61-3.856a15.219,15.219,0,0,0-6.61-11.467,5.157,5.157,0,0,0-2.654-.8c-2.253,0-4.006,1.8-3.956,4.657" transform="translate(-37.598 -182)" fill="none"/>
    </clipPath>
    <linearGradient id="linear-gradient-3" x1="-0.649" y1="4.979" x2="-0.627" y2="4.979" xlink:href="#linear-gradient-2"/>
    <clipPath id="clip-path-17">
      <rect id="사각형_235232" data-name="사각형 235232" width="164.389" height="79.911" fill="none"/>
    </clipPath>
    <clipPath id="clip-path-18">
      <rect id="사각형_235233" data-name="사각형 235233" width="9.213" height="3.014" fill="none"/>
    </clipPath>
    <clipPath id="clip-path-19">
      <rect id="사각형_235234" data-name="사각형 235234" width="31.045" height="21.546" fill="none"/>
    </clipPath>
    <clipPath id="clip-path-20">
      <rect id="사각형_235235" data-name="사각형 235235" width="48.17" height="8.903" fill="none"/>
    </clipPath>
    <clipPath id="clip-path-21">
      <rect id="사각형_235236" data-name="사각형 235236" width="7.811" height="11.837" fill="none"/>
    </clipPath>
    <clipPath id="clip-path-22">
      <rect id="사각형_235237" data-name="사각형 235237" width="6.96" height="13.485" fill="none"/>
    </clipPath>
    <clipPath id="clip-path-23">
      <rect id="사각형_235238" data-name="사각형 235238" width="22.833" height="27.735" fill="none"/>
    </clipPath>
    <clipPath id="clip-path-24">
      <rect id="사각형_235239" data-name="사각형 235239" width="11.367" height="10.34" fill="none"/>
    </clipPath>
    <clipPath id="clip-path-25">
      <rect id="사각형_235240" data-name="사각형 235240" width="9.213" height="7.461" fill="none"/>
    </clipPath>
  </defs>
  <g id="마스크_그룹_582977" data-name="마스크 그룹 582977" transform="translate(-1022 -3100)" clip-path="url(#clip-path)">
    <text id="프리미엄_세차_서비스로_하차감_UP_" data-name="프리미엄 세차 서비스로 
하차감 UP! " transform="translate(460 3079)" fill="#3673ee" font-size="66" font-family="MoebiusKorea-Regular, Moebius Korea"><tspan letter-spacing="-0.05em"><tspan x="0" y="0">프리미엄 세차 서비스</tspan><tspan y="0" fill="#111">로 </tspan></tspan><tspan fill="#111"><tspan x="0" y="83" letter-spacing="-0.05em">하차감 </tspan><tspan y="83">UP! </tspan></tspan></text>
    <g id="indicator" transform="translate(1819.863 3260) rotate(90)">
      <g id="Icon_dot_depart_b">
        <rect id="area" width="10" height="10" transform="translate(0 -0.138)" fill="none"/>
        <circle id="Oval_Copy_6" data-name="Oval Copy 6" cx="4" cy="4" r="4" transform="translate(1 0.862)" fill="#111"/>
      </g>
      <g id="Icon_dot_depart_g" transform="translate(25.009)" opacity="0.2">
        <rect id="area-2" data-name="area" width="10" height="10" transform="translate(-0.009 -0.138)" fill="none"/>
        <circle id="Oval_Copy_6-2" data-name="Oval Copy 6" cx="4" cy="4" r="4" transform="translate(0.991 0.862)" fill="#111"/>
      </g>
      <g id="Icon_dot_depart_g-2" data-name="Icon_dot_depart_g" transform="translate(50.018)" opacity="0.2">
        <rect id="area-3" data-name="area" width="10" height="10" transform="translate(-0.018 -0.138)" fill="none"/>
        <circle id="Oval_Copy_6-3" data-name="Oval Copy 6" cx="4" cy="4" r="4" transform="translate(0.982 0.862)" fill="#111"/>
      </g>
    </g>
    <text id="v" transform="translate(1178 3397)" fill="#fff" font-size="11" font-family="MoebiusKorea-Bold, Moebius Korea" font-weight="700"><tspan x="0" y="0">v</tspan></text>
    <g id="그룹_625417" data-name="그룹 625417" transform="translate(-39.818 -19)">
      <path id="합치기_258" data-name="합치기 258" d="M0,260.735A199.714,199.714,0,0,1,49.494,128.814,25.385,25.385,0,0,1,45.01,78.63,25.173,25.173,0,0,1,56.044,76.1c.348,0,.729,0,1.077.032A19.046,19.046,0,0,1,75.047,63.411a19.612,19.612,0,0,1,4.371.508q.446-.513.921-1a19.122,19.122,0,0,1,2.635-2.29,12.68,12.68,0,1,1,20.578-9.912,12.378,12.378,0,0,1-2.593,7.64A19.078,19.078,0,0,1,112.537,80.54,198.957,198.957,0,0,1,200,60.421c110.457,0,200,89.684,200,200.315S310.457,461.051,200,461.051,0,371.367,0,260.735ZM55.9,9.517a9.5,9.5,0,1,1,9.5,9.517A9.51,9.51,0,0,1,55.9,9.517Z" transform="translate(1599.904 3140) rotate(90)" fill="#3673ee" opacity="0.04"/>
      <g id="합치기_259" data-name="합치기 259" transform="translate(1590.904 3131.05) rotate(90)" fill="none" opacity="0.12">
        <path d="M0,260.735A199.714,199.714,0,0,1,49.494,128.814,25.385,25.385,0,0,1,45.01,78.63,25.173,25.173,0,0,1,56.044,76.1c.348,0,.729,0,1.077.032A19.046,19.046,0,0,1,75.047,63.411a19.612,19.612,0,0,1,4.371.508q.446-.513.921-1a19.122,19.122,0,0,1,2.635-2.29,12.68,12.68,0,1,1,20.578-9.912,12.378,12.378,0,0,1-2.593,7.64A19.078,19.078,0,0,1,112.537,80.54,198.957,198.957,0,0,1,200,60.421c110.457,0,200,89.684,200,200.315S310.457,461.051,200,461.051,0,371.367,0,260.735ZM55.9,9.517a9.5,9.5,0,1,1,9.5,9.517A9.51,9.51,0,0,1,55.9,9.517Z" stroke="none"/>
        <path d="M 199.9997711181641 459.0511474609375 C 213.4349517822266 459.0511474609375 226.8610687255859 457.6956176757812 239.9052429199219 455.022216796875 C 252.6168975830078 452.4169006347656 265.1204833984375 448.5294494628906 277.0686645507812 443.4678039550781 C 288.8004760742188 438.4978637695312 300.1159362792969 432.3463134765625 310.7008361816406 425.1840209960938 C 321.1857299804688 418.0893859863281 331.0452880859375 409.9416198730469 340.0057678222656 400.967041015625 C 348.9662475585938 391.9923706054688 357.1012573242188 382.1171569824219 364.1847839355469 371.6155700683594 C 371.3358764648438 361.0137329101562 377.4779357910156 349.6800842285156 382.440185546875 337.9293823242188 C 387.4940795898438 325.9618530273438 391.3755493164062 313.4380187988281 393.9767761230469 300.7057800292969 C 396.6461181640625 287.6404418945312 397.9996032714844 274.1924438476562 397.9996032714844 260.7354431152344 C 397.9996032714844 247.278564453125 396.6461181640625 233.8306732177734 393.9767761230469 220.765380859375 C 391.3755493164062 208.033203125 387.4940795898438 195.5094451904297 382.440185546875 183.5419769287109 C 377.4779357910156 171.7913818359375 371.3358764648438 160.4577331542969 364.1847839355469 149.8559722900391 C 357.1012573242188 139.3544464111328 348.9662475585938 129.4792022705078 340.0057678222656 120.5046157836914 C 331.0452880859375 111.530029296875 321.1857299804688 103.38232421875 310.7008361816406 96.28767395019531 C 300.1159362792969 89.12544250488281 288.8004760742188 82.97391510009766 277.0686645507812 78.00391387939453 C 265.1204833984375 72.94232177734375 252.6168975830078 69.05485534667969 239.9052429199219 66.44956207275391 C 226.8610687255859 63.77614593505859 213.4349517822266 62.42061614990234 199.9997711181641 62.42061614990234 C 184.7594757080078 62.42061614990234 169.5754852294922 64.16167449951172 154.8695983886719 67.59538269042969 C 140.5722961425781 70.93367767333984 126.6245956420898 75.89373779296875 113.4138946533203 82.33779144287109 L 109.6093597412109 84.19361877441406 L 110.5916595458984 80.07614898681641 C 110.9005355834961 78.78155517578125 111.05712890625 77.44361877441406 111.05712890625 76.09950256347656 C 111.05712890625 72.60161590576172 110.0073623657227 69.24143981933594 108.0213012695312 66.38232421875 C 106.0790710449219 63.58626556396484 103.3854827880859 61.45685195922852 100.2317733764648 60.22420501708984 L 97.74177551269531 59.25102996826172 L 99.37841796875 57.13708877563477 C 100.8011245727539 55.29944229125977 101.5531234741211 53.08090972900391 101.5531234741211 50.7213249206543 C 101.5531234741211 47.86449813842773 100.443244934082 45.17955780029297 98.42789459228516 43.16108703613281 C 96.41336059570312 41.14338302612305 93.73418426513672 40.03220367431641 90.88383483886719 40.03220367431641 C 88.03347778320312 40.03220367431641 85.35424041748047 41.14338302612305 83.33971405029297 43.16108703613281 C 81.32436370849609 45.17955780029297 80.2144775390625 47.86449813842773 80.2144775390625 50.7213249206543 C 80.2144775390625 53.99296951293945 81.67547607421875 57.03608703613281 84.22277069091797 59.0703239440918 L 86.28312683105469 60.71567535400391 L 84.14336395263672 62.25626373291016 C 83.29888916015625 62.86426544189453 82.50501251220703 63.55420684814453 81.78377532958984 64.30702972412109 L 81.77448272705078 64.31679534912109 L 81.76500701904297 64.32638549804688 C 81.47971343994141 64.61626434326172 81.19800567626953 64.92079162597656 80.92777252197266 65.23143768310547 L 80.14189147949219 66.13497161865234 L 78.97430419921875 65.86891174316406 C 77.62318420410156 65.56102752685547 76.33865356445312 65.41132354736328 75.04742431640625 65.41132354736328 C 71.46624755859375 65.41132354736328 68.03671264648438 66.52132415771484 65.12947845458984 68.62132263183594 C 63.72888946533203 69.63302612304688 62.4924201965332 70.84644317626953 61.45430374145508 72.22779083251953 C 60.4057731628418 73.62314605712891 59.5827751159668 75.15973663330078 59.0080680847168 76.79502868652344 L 58.49177169799805 78.26414489746094 L 56.94089126586914 78.12379455566406 C 56.68253707885742 78.10037994384766 56.35789108276367 78.10037994384766 56.04389190673828 78.10037994384766 C 52.48230361938477 78.10037994384766 49.06412506103516 78.88379669189453 45.88442230224609 80.42890930175781 L 45.66583251953125 80.53514862060547 L 45.42812728881836 80.58591461181641 C 40.28530120849609 81.68455505371094 35.60671615600586 84.54861450195312 32.25424575805664 88.65038299560547 C 30.5833625793457 90.69467926025391 29.28112602233887 92.98397064208984 28.3836555480957 95.45473480224609 C 27.45489120483398 98.01155853271484 26.9840087890625 100.7013854980469 26.9840087890625 103.4496154785156 C 26.9840087890625 109.5612640380859 29.32353782653809 115.3420867919922 33.57159805297852 119.7272033691406 C 37.80965423583984 124.1019668579102 43.48712539672852 126.619026184082 49.55818557739258 126.8146209716797 L 53.77989196777344 126.9506149291992 L 50.99930191040039 130.1301422119141 C 43.36406707763672 138.8608551025391 36.45730209350586 148.3122711181641 30.47083282470703 158.2220306396484 C 24.41889190673828 168.2400817871094 19.23330307006836 178.849853515625 15.05818557739258 189.7566223144531 C 10.80718517303467 200.8617401123047 7.546420574188232 212.4259643554688 5.366479396820068 224.1280822753906 C 3.133244037628174 236.1163787841797 2.000891208648682 248.4328460693359 2.000891208648682 260.7354431152344 C 2.000891208648682 274.1924438476562 3.354361772537231 287.6404418945312 6.023714542388916 300.7057800292969 C 8.624950408935547 313.4380187988281 12.50642013549805 325.9618530273438 17.560302734375 337.929443359375 C 22.52253913879395 349.6800842285156 28.66453742980957 361.0137329101562 35.81571578979492 371.6155700683594 C 42.89918518066406 382.1171569824219 51.03418350219727 391.9923706054688 59.99465560913086 400.967041015625 C 68.95507049560547 409.9416198730469 78.81459808349609 418.0893859863281 89.29942321777344 425.1840209960938 C 99.88424682617188 432.3463134765625 111.1997146606445 438.4978637695312 122.9314193725586 443.4678039550781 C 134.8795928955078 448.5294494628906 147.3831329345703 452.4169006347656 160.0946502685547 455.022216796875 C 173.1387176513672 457.6956176757812 186.5647125244141 459.0511474609375 199.9997711181641 459.0511474609375 M 65.39759826660156 17.03408813476562 C 69.53382873535156 17.03408813476562 72.89888763427734 13.66214656829834 72.89888763427734 9.517499923706055 C 72.89888763427734 5.372323036193848 69.53382873535156 2.00002908706665 65.39759826660156 2.00002908706665 C 61.26089096069336 2.00002908706665 57.89542007446289 5.372323036193848 57.89542007446289 9.517499923706055 C 57.89542007446289 13.66214656829834 61.26089096069336 17.03408813476562 65.39759826660156 17.03408813476562 M 199.9997711181641 461.0511474609375 C 89.54371643066406 461.0511474609375 0.0008911994518712163 371.3670349121094 0.0008911994518712163 260.7354431152344 C 0.0008911994518712163 210.2075042724609 18.67524337768555 164.0538482666016 49.4937744140625 128.8135528564453 C 35.8836555480957 128.3750915527344 24.9840087890625 117.1872634887695 24.9840087890625 103.4496154785156 C 24.9840087890625 91.25779724121094 33.56630325317383 81.07485198974609 45.01030349731445 78.63002777099609 C 48.34553909301758 77.00938415527344 52.08800888061523 76.10037994384766 56.04389190673828 76.10037994384766 C 56.39218521118164 76.10037994384766 56.77289199829102 76.10037994384766 57.12118530273438 76.13191223144531 C 59.71859741210938 68.7410888671875 66.78089141845703 63.41132354736328 75.04742431640625 63.41132354736328 C 76.56753540039062 63.41132354736328 78.02459716796875 63.60120391845703 79.41871643066406 63.91891098022461 C 79.7161865234375 63.57691192626953 80.02336120605469 63.24473571777344 80.339599609375 62.92343902587891 C 81.14530181884766 62.08243942260742 82.02759552001953 61.31508636474609 82.97477722167969 60.63314819335938 C 80.07430267333984 58.31690979003906 78.2144775390625 54.74026489257812 78.2144775390625 50.7213249206543 C 78.2144775390625 43.71120452880859 83.88447570800781 38.03220367431641 90.88383483886719 38.03220367431641 C 97.88312530517578 38.03220367431641 103.5531234741211 43.71120452880859 103.5531234741211 50.7213249206543 C 103.5531234741211 53.60602951049805 102.6042404174805 56.23744201660156 100.959831237793 58.36144256591797 C 108.0409469604492 61.12908935546875 113.05712890625 68.02749633789062 113.05712890625 76.09950256347656 C 113.05712890625 77.62844085693359 112.876953125 79.11561584472656 112.5370712280273 80.54026794433594 C 138.9564819335938 67.65314483642578 168.6374206542969 60.42061614990234 199.9997711181641 60.42061614990234 C 310.4568176269531 60.42061614990234 399.9996032714844 150.104736328125 399.9996032714844 260.7354431152344 C 399.9996032714844 371.3670349121094 310.4568176269531 461.0511474609375 199.9997711181641 461.0511474609375 Z M 65.39759826660156 19.03408813476562 C 60.14971542358398 19.03408813476562 55.89542007446289 14.77261734008789 55.89542007446289 9.517499923706055 C 55.89542007446289 4.261499881744385 60.14971542358398 2.90599145955639e-05 65.39759826660156 2.90599145955639e-05 C 70.64459991455078 2.90599145955639e-05 74.89888763427734 4.261499881744385 74.89888763427734 9.517499923706055 C 74.89888763427734 14.77261734008789 70.64459991455078 19.03408813476562 65.39759826660156 19.03408813476562 Z" stroke="none" fill="#3673ee"/>
      </g>
      <g id="손체차_일러스트" transform="translate(1232.408 3251.801)">
        <g id="그룹_300750" data-name="그룹 300750" transform="translate(71.672 0.039)">
          <g transform="matrix(1, 0, 0, 1, -242.26, -132.84)" filter="url(#타원_1500)">
            <g id="타원_1500-2" data-name="타원 1500" transform="translate(242.26 132.84)" stroke="rgba(4,160,243,0.3)" stroke-width="1" fill="url(#linear-gradient)">
              <circle cx="53.828" cy="53.828" r="53.828" stroke="none"/>
              <circle cx="53.828" cy="53.828" r="53.328" fill="none"/>
            </g>
          </g>
          <g id="그룹_25870" data-name="그룹 25870" transform="translate(5.941 13.927)">
            <g transform="matrix(1, 0, 0, 1, -248.2, -146.77)" filter="url(#패스_132435)">
              <path id="패스_132435-2" data-name="패스 132435" d="M38.6,41.9a10.52,10.52,0,0,1-17.54,7.842,6.474,6.474,0,0,1-.882.053,9.018,9.018,0,0,1-5.066-1.526H15.1A10.376,10.376,0,0,1,9.652,49.8a10.527,10.527,0,0,1,0-21.053c.145,0,.3,0,.447.013a7.911,7.911,0,0,1,7.447-5.277,8.167,8.167,0,0,1,1.816.211,8.5,8.5,0,0,1,1.487-1.355,5.263,5.263,0,1,1,8.54-4.119,5.13,5.13,0,0,1-1.079,3.171,7.909,7.909,0,0,1,5.026,7.356,7.828,7.828,0,0,1-.868,3.592A10.542,10.542,0,0,1,38.6,41.9Z" transform="translate(274.08 164.08)" fill="#fff"/>
            </g>
            <g id="그룹_25744" data-name="그룹 25744" transform="translate(25 18.422)">
              <g id="그룹_25869" data-name="그룹 25869" transform="translate(0 0)" clip-path="url(#clip-path-3)">
                <path id="패스_132510" data-name="패스 132510" d="M20.263,9A5.263,5.263,0,1,1,15,14.263,5.263,5.263,0,0,1,20.263,9" transform="translate(4.737 2.842)" fill="#fff"/>
                <path id="패스_132511" data-name="패스 132511" d="M14.947,0A3.947,3.947,0,1,1,11,3.947,3.947,3.947,0,0,1,14.947,0" transform="translate(3.474)" fill="#fff"/>
                <path id="패스_132512" data-name="패스 132512" d="M15.895,17A7.895,7.895,0,1,1,8,24.895,7.895,7.895,0,0,1,15.895,17" transform="translate(2.526 5.368)" fill="#fff"/>
                <path id="패스_132513" data-name="패스 132513" d="M10.526,21A10.526,10.526,0,1,1,0,31.526,10.526,10.526,0,0,1,10.526,21" transform="translate(0 6.632)" fill="#fff"/>
                <path id="패스_132514" data-name="패스 132514" d="M24.526,23A10.526,10.526,0,1,1,14,33.526,10.526,10.526,0,0,1,24.526,23" transform="translate(4.421 7.263)" fill="#fff"/>
                <path id="패스_132515" data-name="패스 132515" d="M21.895,15A7.895,7.895,0,1,1,14,22.895,7.895,7.895,0,0,1,21.895,15" transform="translate(4.421 4.737)" fill="#fff"/>
              </g>
            </g>
            <ellipse id="타원_2440" data-name="타원 2440" cx="9.211" cy="9.211" rx="9.211" ry="9.211" transform="translate(0 0)" fill="#fff"/>
          </g>
        </g>
        <g id="손세차" transform="translate(100.146 102.253)">
          <g id="손세차-2" data-name="손세차" transform="translate(-100.146 -100.146)" style="isolation: isolate">
            <g id="Layer_1" data-name="Layer 1">
              <g id="그룹_300350" data-name="그룹 300350" clip-path="url(#clip-path-4)">
                <g id="그룹_300318" data-name="그룹 300318" clip-path="url(#clip-path-4)">
                  <g id="그룹_300315" data-name="그룹 300315" transform="translate(14.371 142.457)" opacity="0.05">
                    <g id="그룹_300314" data-name="그룹 300314" clip-path="url(#clip-path-6)">
                      <path id="패스_620616" data-name="패스 620616" d="M88.827,285.33l-.6-.351a4.007,4.007,0,0,0-3.956,0l-18.277,9.915a11.166,11.166,0,0,0-8.262-3.405,10.765,10.765,0,0,0-8.913,4.256,4.007,4.007,0,0,0-2,.5L30.643,305.86a3.805,3.805,0,0,0,0,6.659l.6.351a4.007,4.007,0,0,0,3.956,0l13.92-8.262a10.942,10.942,0,0,0,8.663,3.906c3.655,0,8.012-2.2,9.564-5.308a4,4,0,0,0,1.9-.5l19.578-10.666a3.806,3.806,0,0,0,0-6.66" transform="translate(-28.69 -284.478)"/>
                    </g>
                  </g>
                  <g id="그룹_300317" data-name="그룹 300317" transform="translate(165.19 108.057)" opacity="0.05">
                    <g id="그룹_300316" data-name="그룹 300316" clip-path="url(#clip-path-7)">
                      <path id="패스_620617" data-name="패스 620617" d="M359.043,225.314c0,5.258-6.56,9.514-14.621,9.514s-14.622-4.256-14.622-9.514,6.56-9.514,14.622-9.514,14.621,4.256,14.621,9.514" transform="translate(-329.85 -215.8)"/>
                    </g>
                  </g>
                </g>
                <path id="패스_620618" data-name="패스 620618" d="M360.8,233.5l4.957.1v2.754H361Z" transform="translate(-180.137 -116.58)" fill="#fff"/>
                <g id="그룹_300323" data-name="그룹 300323" clip-path="url(#clip-path-4)">
                  <path id="패스_620619" data-name="패스 620619" d="M350.233,187.254c-.15,1-.351,4.857-1.753,4.857s-2,.451-2.454-.15l-1.052-.651-1.853-.851V187l-.551-18.978a4.707,4.707,0,0,0-3.2-3.655l-6.109,25.737-5.458-7.16,2.454-26.839.3-.25a8.357,8.357,0,0,0,6.61,2.7c4.657,0,8.612-2.554,9.814-6.059a3.005,3.005,0,0,0-.2-2.4h0c2.554,4.657,4.456,9.113,4.607,14.421Z" transform="translate(-163.661 -74.941)" fill="#3673ee"/>
                  <g id="그룹_300320" data-name="그룹 300320" transform="translate(165.19 81.118)" opacity="0.2">
                    <g id="그룹_300319" data-name="그룹 300319" clip-path="url(#clip-path-9)">
                      <path id="패스_620620" data-name="패스 620620" d="M339.865,170.162l-.951-5.758-7.661-2.4L329.9,177.372l6.359,11.417Z" transform="translate(-329.9 -162)"/>
                    </g>
                  </g>
                  <path id="패스_620621" data-name="패스 620621" d="M330.2,162l-2.4,26.839,5.758,7.16,5.759-25.437" transform="translate(-163.661 -80.882)" fill="none" stroke="#222" stroke-linecap="round" stroke-miterlimit="10" stroke-width="1.252"/>
                  <path id="패스_620622" data-name="패스 620622" d="M346.852,182.206l1.3-3.505-2.454-.6Z" transform="translate(-172.598 -88.92)" fill="#222"/>
                  <path id="패스_620623" data-name="패스 620623" d="M366.3,151.6s5.057,5.859,4.306,13.62a12.231,12.231,0,0,0-.1,1.352l-1.252,23.685" transform="translate(-182.883 -75.689)" fill="none" stroke="#222" stroke-linecap="round" stroke-miterlimit="10" stroke-width="1.252"/>
                  <path id="패스_620624" data-name="패스 620624" d="M360.353,234.05l.4,3.1a1.152,1.152,0,0,1-.451,1.052l-5.308,3.956a3.054,3.054,0,0,1-3.4.2l-1.2-.7a1.2,1.2,0,0,1-.6-.851l-.1-.7a1.6,1.6,0,0,1,.651-1.5l5.157-3.956c.15,1,1.3,1.652,2.654,1.5s2.3-1.1,2.153-2.153" transform="translate(-174.582 -116.829)" fill="#222"/>
                  <path id="패스_620625" data-name="패스 620625" d="M365.61,229c0,1.4-1.5,2.554-3.355,2.554S358.9,230.4,358.9,229" transform="translate(-179.188 -114.333)" fill="none" stroke="#222" stroke-linecap="round" stroke-miterlimit="10" stroke-width="1.252"/>
                  <path id="패스_620626" data-name="패스 620626" d="M365.957,232.65v1.4a2.216,2.216,0,0,1-2.4,1.853,2.179,2.179,0,0,1-2.4-1.853L361,232.6" transform="translate(-180.237 -116.131)" fill="none" stroke="#222" stroke-linecap="round" stroke-miterlimit="10" stroke-width="1.001"/>
                  <path id="패스_620627" data-name="패스 620627" d="M355.7,233.9l-5.258,4.006a1.653,1.653,0,0,0-.651,1.5l.1.7a1.2,1.2,0,0,0,.6.851l1.2.7a3.055,3.055,0,0,0,3.405-.2l5.258-4.006a1.152,1.152,0,0,0,.451-1.052l-.5-3.906" transform="translate(-174.635 -116.081)" fill="none" stroke="#222" stroke-miterlimit="10" stroke-width="1.001"/>
                  <g id="그룹_300322" data-name="그룹 300322" transform="translate(5.007 57.634)" opacity="0.1" style="mix-blend-mode: multiply;isolation: isolate">
                    <g id="그룹_300321" data-name="그룹 300321" clip-path="url(#clip-path-10)">
                      <path id="패스_620628" data-name="패스 620628" d="M13.937,143.992C23.35,137.533,66.763,115.1,66.763,115.1l111.462,69.151s8.262,5.208.4,9.864c-10.866,6.409-37.555,22.282-43.413,25.637-4.707,2.654-21.281-3.505-21.281-3.505L16.64,159.965s-13.019-8.913-2.7-15.923" transform="translate(-9.981 -115.1)"/>
                    </g>
                  </g>
                  <path id="패스_620629" data-name="패스 620629" d="M189.1,265.561l1.853,4.557,1.8.851,8.262-11.817-8.262-1.052-4.457,3.505Z" transform="translate(-94.013 -128.862)"/>
                  <path id="패스_620630" data-name="패스 620630" d="M197.8,261.724l7.411-4.256c1.8-1,4.206-.851,6.91.7,5.458,3.155,9.814,10.766,9.814,17.025,0,3.155-1.1,5.358-2.9,6.409l-7.411,4.256c-1.753,1-4.206.851-6.91-.7-5.408-3.154-9.814-10.766-9.814-17.025,0-3.155,1.1-5.358,2.9-6.359" transform="translate(-97.308 -128.23)" fill="#222"/>
                  <path id="패스_620631" data-name="패스 620631" d="M194.9,272.327c0,6.259,4.407,13.87,9.814,17.025,2.7,1.552,5.157,1.7,6.91.7s2.9-3.2,2.9-6.359c0-6.259-4.406-13.87-9.814-17.025-2.7-1.552-5.158-1.7-6.91-.7s-2.9,3.255-2.9,6.359" transform="translate(-97.308 -132.474)" fill="#222"/>
                  <path id="패스_620632" data-name="패스 620632" d="M195.6,273.809c0,5.809,4.056,12.869,9.113,15.773,2.5,1.452,4.757,1.6,6.409.651s2.7-3,2.7-5.909c0-5.808-4.056-12.869-9.113-15.773-2.5-1.452-4.757-1.6-6.409-.651s-2.7,3-2.7,5.909" transform="translate(-97.657 -133.455)" fill="#222"/>
                </g>
                <g id="그룹_300324" data-name="그룹 300324" transform="translate(100.245 137.2)" clip-path="url(#clip-path-11)">
                  <rect id="사각형_235227" data-name="사각형 235227" width="22.132" height="22.348" transform="translate(-9.056 8.41) rotate(-43.2)" fill="url(#linear-gradient-2)"/>
                </g>
                <g id="그룹_300327" data-name="그룹 300327" clip-path="url(#clip-path-4)">
                  <path id="패스_620634" data-name="패스 620634" d="M200.7,279.6a13.887,13.887,0,0,0,6.259,10.916c3.555,2.153,6.359.05,6.259-3.655a13.82,13.82,0,0,0-6.259-10.916c-3.2-1.9-6.359-.05-6.259,3.655" transform="translate(-100.201 -137.393)" fill="#cccbca"/>
                  <g id="그룹_300326" data-name="그룹 300326" transform="translate(100.496 137.751)" opacity="0.5">
                    <g id="그룹_300325" data-name="그룹 300325" clip-path="url(#clip-path-13)">
                      <path id="패스_620635" data-name="패스 620635" d="M204.354,275.1c-1.7.35-2.954,1.953-2.9,4.306a13.641,13.641,0,0,0,6.209,10.766,4.306,4.306,0,0,0,3.806.5,4.163,4.163,0,0,1-4.406-.25,13.625,13.625,0,0,1-6.259-10.916c-.05-2.654,1.552-4.356,3.605-4.406" transform="translate(-200.749 -275.1)" fill="#fff"/>
                    </g>
                  </g>
                  <path id="패스_620636" data-name="패스 620636" d="M26.5,173.461l1.853,4.607,1.8.851,8.262-11.867L30.156,166,25.7,169.505Z" transform="translate(-12.831 -82.879)"/>
                  <path id="패스_620637" data-name="패스 620637" d="M35.2,169.624l7.411-4.256c1.8-1,4.206-.851,6.91.7,5.458,3.155,9.814,10.766,9.814,17.025,0,3.155-1.1,5.358-2.9,6.409l-7.411,4.256c-1.753,1-4.206.851-6.91-.7C36.706,189.9,32.3,182.293,32.3,176.034c0-3.155,1.1-5.358,2.9-6.359" transform="translate(-16.126 -82.247)" fill="#222"/>
                  <path id="패스_620638" data-name="패스 620638" d="M32.3,180.177c0,6.259,4.406,13.87,9.814,17.025,2.7,1.552,5.157,1.7,6.91.7s2.9-3.2,2.9-6.409c0-6.259-4.406-13.87-9.814-17.025-2.7-1.552-5.158-1.7-6.91-.7s-2.9,3.2-2.9,6.359" transform="translate(-16.126 -86.441)" fill="#222"/>
                  <path id="패스_620639" data-name="패스 620639" d="M33,181.709c0,5.808,4.056,12.869,9.113,15.773,2.5,1.452,4.757,1.6,6.409.651s2.7-3,2.7-5.909c0-5.808-4.056-12.869-9.113-15.773-2.5-1.452-4.757-1.6-6.409-.651s-2.7,3-2.7,5.909" transform="translate(-16.476 -87.472)" fill="#222"/>
                </g>
                <g id="그룹_300328" data-name="그룹 300328" transform="translate(18.826 91.133)" clip-path="url(#clip-path-14)">
                  <rect id="사각형_235230" data-name="사각형 235230" width="22.132" height="22.348" transform="translate(-9.045 8.444) rotate(-43.2)" fill="url(#linear-gradient-3)"/>
                </g>
                <g id="그룹_300349" data-name="그룹 300349" clip-path="url(#clip-path-4)">
                  <path id="패스_620641" data-name="패스 620641" d="M38.1,187.5a13.887,13.887,0,0,0,6.259,10.916c3.555,2.153,6.359.05,6.259-3.655a13.82,13.82,0,0,0-6.259-10.916c-3.2-1.9-6.359-.05-6.259,3.655" transform="translate(-19.02 -91.41)" fill="#cccbca"/>
                  <g id="그룹_300330" data-name="그룹 300330" transform="translate(19.078 91.683)" opacity="0.5">
                    <g id="그룹_300329" data-name="그룹 300329" clip-path="url(#clip-path-13)">
                      <path id="패스_620642" data-name="패스 620642" d="M41.754,183.1c-1.7.351-2.954,1.953-2.9,4.306a13.67,13.67,0,0,0,6.209,10.766,4.306,4.306,0,0,0,3.806.5,4.163,4.163,0,0,1-4.406-.25A13.626,13.626,0,0,1,38.2,187.506c-.05-2.654,1.552-4.356,3.605-4.406" transform="translate(-38.149 -183.1)" fill="#fff"/>
                    </g>
                  </g>
                  <path id="패스_620643" data-name="패스 620643" d="M21.249,115.94c1.652-2.1,7.711-7.962,7.711-7.962a31.145,31.145,0,0,1,6.86-6.359c4.356-3,18.777-11.417,29.293-13.77A38.457,38.457,0,0,1,74.627,86.5a21.732,21.732,0,0,1,8.062,1.4l12.218,4.757a75.841,75.841,0,0,1,11.967,1.7,92.329,92.329,0,0,1,16.324,6.51c5.308,2.6,17.576,11.216,25.187,16.123s16.374,13.219,19.178,15.923l5.007,4.907s4.757,4.106,5.808,5.658,2.9,7.461,2.9,7.461a49.571,49.571,0,0,1,2.554,7.611,13.408,13.408,0,0,1,0,4.607,6.76,6.76,0,0,1-.751,5.558c-1.7,2.6-12.518,10.165-20.079,14.922a229.553,229.553,0,0,1-24.536,12.518,18.175,18.175,0,0,1-8.963.25c-.1-7.361-5.708-16.624-12.017-20.28s-12.719-1.652-10.515,7.461L49.44,151.041c-1.2-7.411-6.91-18.677-13.219-22.332s-13.219-.751-9.564,9.263a44.389,44.389,0,0,1-4.757-7.16,6.56,6.56,0,0,1-.4-4.657s-1.853-8.112-.25-10.215" transform="translate(-10.283 -43.184)" fill="#fff"/>
                  <path id="패스_620644" data-name="패스 620644" d="M21.227,115.94c1.652-2.1,7.711-7.962,7.711-7.962a31.144,31.144,0,0,1,6.86-6.359c4.356-3,18.777-11.417,29.293-13.77A38.456,38.456,0,0,1,74.6,86.5a21.733,21.733,0,0,1,8.062,1.4l12.218,4.757a75.84,75.84,0,0,1,11.967,1.7,92.327,92.327,0,0,1,16.324,6.51c5.308,2.6,17.576,11.216,25.187,16.123s16.374,13.219,19.178,15.923l5.007,4.907s4.757,4.106,5.808,5.658,2.9,7.461,2.9,7.461a49.578,49.578,0,0,1,2.554,7.611,13.411,13.411,0,0,1,0,4.607,6.76,6.76,0,0,1-.751,5.558c-1.7,2.6-12.518,10.165-20.079,14.922a229.553,229.553,0,0,1-24.536,12.518,18.175,18.175,0,0,1-8.963.25c-.1-7.361-5.708-16.624-12.017-20.28s-12.719-1.652-10.515,7.461L49.418,151.041c-1.2-7.411-6.91-18.677-13.219-22.332s-13.219-.751-9.564,9.263a44.388,44.388,0,0,1-4.757-7.16,6.559,6.559,0,0,1-.4-4.657S19.575,118.093,21.227,115.94Z" transform="translate(-10.261 -43.184)" fill="none" stroke="#222" stroke-miterlimit="10" stroke-width="2.504"/>
                  <g id="그룹_300332" data-name="그룹 300332" transform="translate(9.814 74.659)" opacity="0.18" style="mix-blend-mode: multiply;isolation: isolate">
                    <g id="그룹_300331" data-name="그룹 300331" clip-path="url(#clip-path-17)">
                      <path id="패스_620645" data-name="패스 620645" d="M182.5,201.727c-1.7,2.6-13.069,9.263-20.63,14.02a229.58,229.58,0,0,1-24.536,12.518,18.226,18.226,0,0,1-8.963.25c-.1-7.361-5.708-16.624-12.017-20.28s-12.719-1.652-10.515,7.461L48.4,183.2c-1.2-7.411-6.91-18.677-13.219-22.332s-13.219-.751-9.564,9.263a50.717,50.717,0,0,1-4.757-7.16,6.56,6.56,0,0,1-.451-4.657S18.958,151.9,19.76,149a8.765,8.765,0,0,0,.6,1.4,14.675,14.675,0,0,0,2.3,3.2,11.871,11.871,0,0,0,1.452,1.352,1.1,1.1,0,0,0,1.753-1.1l-.8-3.705,6.209,2.153c2.5.35,8.562,1.3,13.219,2.353,6.009,1.4,9.013-1.152,14.972-1.9s15.823-1.7,25.487,1.252c10.966,3.355,24.586,13.269,29.393,17.525a69.693,69.693,0,0,1,9.414,11.066l5.157,11.166,3.655-.3,40.309-22.583c1,.15,4.406,2.6,4.957,4.507a18.527,18.527,0,0,1-.25,3.956,93.483,93.483,0,0,1-1.2,10.215c1.452-.7,3.705-3.655,5.158-4.356a23.632,23.632,0,0,1,1.6,4.957c.551,2.9.651,5.057.751,5.558Z" transform="translate(-19.559 -149.05)"/>
                    </g>
                  </g>
                  <path id="패스_620646" data-name="패스 620646" d="M225.1,189.133a42.481,42.481,0,0,0,2.654,8.763c1.6,3.2,3.805,7.511,5.057,8.262s5.258,1.452,9.113.15,13.72-7.06,20.079-10.465,14.822-10.365,14.972-13.119-5.057-7.06-5.458-7.461L262.1,166.4l-21.281,13.319Z" transform="translate(-112.386 -83.079)" fill="#222"/>
                  <path id="패스_620647" data-name="패스 620647" d="M237.867,207.258a13.97,13.97,0,0,0,4.456-.7c2.8-.952,8.913-4.356,14.321-7.311l5.658-3.1c6.76-3.605,14.621-10.415,14.722-12.769.05-1.051-.8-3.054-5.057-6.86l-.3-.25L262.5,167.6l-20.931,13.069L226.1,189.933a40.609,40.609,0,0,0,2.554,8.362c1.352,2.7,3.755,7.411,4.857,8.112s2.253.8,4.306.8" transform="translate(-112.885 -83.678)" fill="#222"/>
                  <path id="패스_620648" data-name="패스 620648" d="M104.4,124.415s-8.813-.15-14.421.05-12.618,1.6-14.421,1.4-3.856-.9-3.956-2.4S74.7,113.2,84.416,107.74s18.627-8.562,25.687-9.163,9.914.2,9.914.2,7.561.851,11.066,1.6a60.93,60.93,0,0,1,8.112,2.754,173.9,173.9,0,0,0-16.574,7.511,82.906,82.906,0,0,0-18.277,13.72" transform="translate(-35.746 -49.105)" fill="#222"/>
                  <path id="패스_620649" data-name="패스 620649" d="M94.18,106.81c12.168-5.157,20.53-6.76,25.437-7.11l1.2.2h.1c.1,0,7.611.851,11.016,1.6a37.906,37.906,0,0,1,6.66,2.454c-2.454,1-9.213,3.806-15.222,7.01a84.2,84.2,0,0,0-18.277,13.67H98.837l-8.012.1c-2.954.1-6.309.551-9.013.9a42.953,42.953,0,0,1-4.907.5h-.4c-.651-.1-2.5-.4-3.2-1.252,1.152-2.8,5.909-11.717,20.931-18.076" transform="translate(-36.597 -49.777)" fill="#222"/>
                  <g id="그룹_300334" data-name="그룹 300334" transform="translate(91.083 54.329)" opacity="0.7">
                    <g id="그룹_300333" data-name="그룹 300333" clip-path="url(#clip-path-18)">
                      <path id="패스_620650" data-name="패스 620650" d="M182.136,108.5c1.252,0,6.76.4,9.013.551l-5.708,2.454c-1.9-1.3-4.306-3-3.355-3" transform="translate(-181.885 -108.5)" fill="#222"/>
                    </g>
                  </g>
                  <path id="패스_620651" data-name="패스 620651" d="M187.878,192.035c0,1-1.552,3.3-5.258,4.256a14.668,14.668,0,0,1-3.655.4,27.287,27.287,0,0,1-5.658-.651,43.5,43.5,0,0,1-6.359-1.953l-3.856-2a1.5,1.5,0,0,1-.751-1.753,122.088,122.088,0,0,1,4.206-12.468,3.054,3.054,0,0,1,4.607-1.252h.05c7.461,5.708,16.674,13.92,16.674,15.422" transform="translate(-81.022 -87.883)" fill="#222"/>
                  <path id="패스_620652" data-name="패스 620652" d="M187.878,192.035c0,1-1.552,3.3-5.258,4.256a14.668,14.668,0,0,1-3.655.4,27.287,27.287,0,0,1-5.658-.651,43.5,43.5,0,0,1-6.359-1.953l-3.856-2a1.5,1.5,0,0,1-.751-1.753,122.088,122.088,0,0,1,4.206-12.468,3.054,3.054,0,0,1,4.607-1.252h.05C178.664,182.321,187.878,190.533,187.878,192.035Z" transform="translate(-81.022 -87.883)" fill="none" stroke="#222" stroke-miterlimit="10" stroke-width="1.502"/>
                  <g id="그룹_300336" data-name="그룹 300336" transform="translate(133.094 83.822)" opacity="0.2">
                    <g id="그룹_300335" data-name="그룹 300335" clip-path="url(#clip-path-19)">
                      <path id="패스_620653" data-name="패스 620653" d="M282.424,167.4l9.163,8.663.3.25c4.256,3.806,5.057,5.859,5.057,6.86s-1.953,3.355-4.657,5.708c-4.707-3.455-13.269-8.412-26.388-11.166Z" transform="translate(-265.85 -167.4)" fill="#222"/>
                    </g>
                  </g>
                  <g id="그룹_300338" data-name="그룹 300338" transform="translate(53.778 49.923)" opacity="0.2">
                    <g id="그룹_300337" data-name="그룹 300337" clip-path="url(#clip-path-20)">
                      <path id="패스_620654" data-name="패스 620654" d="M107.4,108.513c1.2-.6,2.454-1.2,3.806-1.8,12.168-5.158,20.53-6.76,25.437-7.11l1.2.2h.1c.1,0,7.611.851,11.016,1.6a37.906,37.906,0,0,1,6.66,2.454c-1.552.651-4.857,2-8.613,3.755-6.66-1.1-19.478-2.053-39.608.851" transform="translate(-107.4 -99.65)" fill="#222"/>
                    </g>
                  </g>
                  <path id="패스_620655" data-name="패스 620655" d="M244.367,258.885a1.9,1.9,0,0,0,.7-2.9c-1.4-1.8-3.655-4.406-5.358-4.907-2.654-.8-5.859-1.2-7.561-2s-6.209-3.054-6.71-1.5,2.153,6.86,5.258,9.614,5.057,3.455,8.763,3.1a16.029,16.029,0,0,0,4.907-1.4" transform="translate(-112.525 -123.338)" fill="#f8483b"/>
                  <path id="패스_620656" data-name="패스 620656" d="M244.367,258.885a1.9,1.9,0,0,0,.7-2.9c-1.4-1.8-3.655-4.406-5.358-4.907-2.654-.8-5.859-1.2-7.561-2s-6.209-3.054-6.71-1.5,2.153,6.86,5.258,9.614,5.057,3.455,8.763,3.1A16.028,16.028,0,0,0,244.367,258.885Z" transform="translate(-112.525 -123.338)" fill="none" stroke="#222" stroke-linejoin="round" stroke-width="1.502"/>
                  <path id="패스_620657" data-name="패스 620657" d="M236.662,261.556l1.152.25a2.353,2.353,0,0,1,1.853,1.252l1.252,2.5c-3.605.35-5.558-.451-8.663-3.1A18.976,18.976,0,0,1,228.5,257.7a58.3,58.3,0,0,0,8.112,3.806" transform="translate(-114.084 -128.662)" fill="#fff"/>
                  <path id="패스_620658" data-name="패스 620658" d="M236.662,261.556l1.152.25a2.353,2.353,0,0,1,1.853,1.252l1.252,2.5c-3.605.35-5.558-.451-8.663-3.1A18.976,18.976,0,0,1,228.5,257.7,56.36,56.36,0,0,0,236.662,261.556Z" transform="translate(-114.084 -128.662)" fill="none" stroke="#222" stroke-linejoin="round" stroke-width="1.502"/>
                  <path id="패스_620659" data-name="패스 620659" d="M336.3,207.162a5.517,5.517,0,0,1-.751,3.455A31.405,31.405,0,0,1,332,214.072a.35.35,0,0,1-.6-.3l1.3-10.165a37.005,37.005,0,0,0,.25-4.406l.451.6c1,1.5,2.854,7.21,2.9,7.461" transform="translate(-165.453 -99.455)" fill="#f8483b"/>
                  <path id="패스_620660" data-name="패스 620660" d="M336.3,207.162a5.517,5.517,0,0,1-.751,3.455A31.405,31.405,0,0,1,332,214.072a.35.35,0,0,1-.6-.3l1.3-10.165a37.005,37.005,0,0,0,.25-4.406l.451.6C334.4,201.253,336.252,206.961,336.3,207.162Z" transform="translate(-165.453 -99.455)" fill="none" stroke="#222" stroke-linejoin="round" stroke-width="1.502"/>
                  <path id="패스_620661" data-name="패스 620661" d="M339,211.1l.651,2a5.518,5.518,0,0,1-.751,3.455l-.3.351-.5-4.006a1.2,1.2,0,0,1,.25-.851l.7-.9" transform="translate(-168.799 -105.396)" fill="#fff"/>
                  <path id="패스_620662" data-name="패스 620662" d="M339,211.1l.651,2a5.518,5.518,0,0,1-.751,3.455l-.3.351-.5-4.006a1.2,1.2,0,0,1,.25-.851Z" transform="translate(-168.799 -105.396)" fill="none" stroke="#222" stroke-miterlimit="10" stroke-width="1.001"/>
                  <path id="패스_620663" data-name="패스 620663" d="M32.766,131a6.725,6.725,0,0,0,1.652,2.654l5.758,6.159s-.8,2.2-4.156,2.453-6.71-.8-7.06-3.455c-.5-3.856,3.856-7.761,3.856-7.761" transform="translate(-14.439 -65.405)" fill="#222"/>
                  <path id="패스_620664" data-name="패스 620664" d="M300.168,239.6s-28.291,22.032-46.968,26.388" transform="translate(-126.415 -119.625)" fill="none" stroke="#222" stroke-linecap="round" stroke-miterlimit="10" stroke-width="1.502"/>
                  <path id="패스_620665" data-name="패스 620665" d="M317.263,193.3s1.4,1.9,1.152,2.854.3,2.4-10.315,10.265l12.268-9.564a.6.6,0,0,0,.05-.851Z" transform="translate(-153.825 -96.509)" fill="#fff"/>
                  <path id="패스_620666" data-name="패스 620666" d="M266.2,245.427s19.929-6.91,31.947-18.927l-.1.9a1.3,1.3,0,0,0,.4.851s-3.806,7.411-31.846,19.028" transform="translate(-132.906 -113.085)" fill="#fff"/>
                  <path id="패스_620667" data-name="패스 620667" d="M233.8,235.7s2.4,6.009,4.306,7.361,10.465-3.054,10.465-3.054a13.62,13.62,0,0,1-8.763,1.352l-.851-.1c-.751-.05-2.754-.651-5.157-5.558" transform="translate(-116.73 -117.678)" fill="#fff"/>
                  <path id="패스_620668" data-name="패스 620668" d="M185.6,225.3s12.769,6.81,19.679,10.015c0,0-9.914,1-19.679-10.015" transform="translate(-92.665 -112.486)" fill="#fff"/>
                  <path id="패스_620669" data-name="패스 620669" d="M152.723,178.393a5.109,5.109,0,0,1,.3,1.7c0,1.9-1.2,3-2.7,2.454a3.655,3.655,0,0,1-1.452-1.1c-.2,1.552-1.3,2.353-2.654,1.853a4.365,4.365,0,0,1-2.554-3.1,1.953,1.953,0,0,1-1.4-.05,4.939,4.939,0,0,1-2.754-4.306,3.412,3.412,0,0,1,.05-.6h-.05a4.772,4.772,0,0,1-2.754-4.256,2.554,2.554,0,0,1,.851-2.1,4.857,4.857,0,0,1-.9-2.654c0-1.753,1.1-2.8,2.554-2.454a4.457,4.457,0,0,1-.25-1.452c0-1.8,1.2-2.9,2.7-2.5a3.406,3.406,0,0,1,1.552,1.052,2.078,2.078,0,0,1,2.654-1.753,4.006,4.006,0,0,1,2.4,2.454,2.1,2.1,0,0,1,1.051.05,4.551,4.551,0,0,1,2.754,4.256h0a4.8,4.8,0,0,1,2.253,4.106,3.1,3.1,0,0,1-.651,2.053,5.208,5.208,0,0,1,1.5,3.605c0,1.8-1.1,2.954-2.454,2.6" transform="translate(-68.25 -79.398)" fill="#e4eff5"/>
                  <path id="패스_620670" data-name="패스 620670" d="M152.723,178.393a5.109,5.109,0,0,1,.3,1.7c0,1.9-1.2,3-2.7,2.454a3.655,3.655,0,0,1-1.452-1.1c-.2,1.552-1.3,2.353-2.654,1.853a4.365,4.365,0,0,1-2.554-3.1,1.953,1.953,0,0,1-1.4-.05,4.939,4.939,0,0,1-2.754-4.306,3.412,3.412,0,0,1,.05-.6h-.05a4.772,4.772,0,0,1-2.754-4.256,2.554,2.554,0,0,1,.851-2.1,4.857,4.857,0,0,1-.9-2.654c0-1.753,1.1-2.8,2.554-2.454a4.457,4.457,0,0,1-.25-1.452c0-1.8,1.2-2.9,2.7-2.5a3.406,3.406,0,0,1,1.552,1.052,2.078,2.078,0,0,1,2.654-1.753,4.006,4.006,0,0,1,2.4,2.454,2.1,2.1,0,0,1,1.051.05,4.551,4.551,0,0,1,2.754,4.256h0a4.8,4.8,0,0,1,2.253,4.106,3.1,3.1,0,0,1-.651,2.053,5.208,5.208,0,0,1,1.5,3.605C155.227,177.591,154.125,178.693,152.723,178.393Z" transform="translate(-68.25 -79.398)" fill="none" stroke="#111" stroke-linecap="round" stroke-linejoin="round" stroke-width="1.001"/>
                  <g id="그룹_300340" data-name="그룹 300340" transform="translate(76.862 92.184)" opacity="0.15">
                    <g id="그룹_300339" data-name="그룹 300339" clip-path="url(#clip-path-21)">
                      <path id="패스_620671" data-name="패스 620671" d="M154.1,184.1c1.652,4.206,3.906,7.711,7.211,9.965l-7.811,1.853Z" transform="translate(-153.5 -184.1)" fill="#111"/>
                    </g>
                  </g>
                  <path id="패스_620672" data-name="패스 620672" d="M95.9,224.316v.25a2.907,2.907,0,0,1-.05.551c-.751,2.754-2.954,12.017-11.216,13.219a8.26,8.26,0,0,1-2.654-.15c-3.655-.6-5.708-1.8-6.81-4.056a11.767,11.767,0,0,1-1.152-3.956h0a13.12,13.12,0,0,1,.05-3.255c.6-4.256,4.757-13.57,9.414-19.829.951-1.252,3.255-1.452,4.757-2.3a2.9,2.9,0,0,1,2.454-.25h.25l-.15.951s-2.353,2.2-.551,3.255,5.258-1.753,5.258-1.753l2.654.5,1.1.2a19.478,19.478,0,0,0-3.3,16.624" transform="translate(-36.918 -102.038)" fill="#fff"/>
                  <path id="패스_620673" data-name="패스 620673" d="M119.831,204.434l-2.654,6.359-.1.2v-.25a19.478,19.478,0,0,1,3.3-16.624h.25l6.86,1h.4a2.4,2.4,0,0,0,2.353-2.1l1.6-7.26a11.871,11.871,0,0,0,.1-1.4,11.216,11.216,0,0,0-.651-3.755c-.4-1.152.551-1.853,1.552-2.554l.6-.451a1.7,1.7,0,0,1,2.353.4c.7,1,.5,1.6.5,2.754a5.609,5.609,0,0,1-.8,2.854,1.752,1.752,0,0,0-.25,1l.3,13.77a2.854,2.854,0,0,1-2.7,3.1l-10.515.4-1.953.351Z" transform="translate(-58.141 -88.516)" fill="#fff"/>
                  <path id="패스_620674" data-name="패스 620674" d="M127.51,288a1.7,1.7,0,0,1-.05.451c-.25,1.2-1.7,2.1-3.4,2.1S120.6,289.4,120.6,288a2.3,2.3,0,0,1,1.152-1.9,4.806,4.806,0,0,0,2.854.851,5.056,5.056,0,0,0,2.2-.5,2.153,2.153,0,0,1,.7,1.552" transform="translate(-60.212 -142.841)" fill="#fff"/>
                  <path id="패스_620675" data-name="패스 620675" d="M41.361,309.61l-.2.25-2.2.651-1.9.6-1.7-2.353L33.8,306.606h0l2.954-2.3h0l2.2-1.7c1.4,0,2.754,1.552,3.1,3.605a4.807,4.807,0,0,1-.651,3.455" transform="translate(-16.875 -151.079)" fill="#fff"/>
                  <path id="패스_620676" data-name="패스 620676" d="M95.875,245.488l-5.308,14.321a2.254,2.254,0,0,1,.05.451,2.842,2.842,0,0,1-1.953,2.5l-5.358-.35a2.7,2.7,0,0,1-1.3-2,1.5,1.5,0,0,1,0-.15l.2-.9h0l1.4-6.81L80.853,256a8.913,8.913,0,0,1-11.617,2h-.15l-2.1,5.408a9.214,9.214,0,0,1-3.555,4.457L47.6,278.036h-.5a5.308,5.308,0,0,0,.7-3.806c-.351-2.253-1.853-3.956-3.4-3.956l10.265-6.96A10.265,10.265,0,0,0,58.971,255v-7.811a11.917,11.917,0,0,0,1.2,3.956c1.152,2.2,4.306,2.8,8.012,3.4v.15h2.153C78.4,253.8,80.2,245.088,81,242.384l9.864-3.505a3.856,3.856,0,0,1,4.707,1.853,6.058,6.058,0,0,1,.3,4.857" transform="translate(-22.168 -119.154)" fill="#3673ee"/>
                  <path id="패스_620677" data-name="패스 620677" d="M106.952,204.3l-1.652,3,.1,1.552h3.2l3.054-2.3.2-1.9Z" transform="translate(-52.573 -102.001)" fill="#fff"/>
                  <g id="그룹_300342" data-name="그룹 300342" transform="translate(59.937 129.989)" opacity="0.2">
                    <g id="그룹_300341" data-name="그룹 300341" clip-path="url(#clip-path-22)">
                      <path id="패스_620678" data-name="패스 620678" d="M125.158,259.6l1.5,13.47-6.259-.05-.7-2.153,1.3-5.608Z" transform="translate(-119.7 -259.6)"/>
                    </g>
                  </g>
                  <path id="패스_620679" data-name="패스 620679" d="M121.7,263.405l4.156-3.805.551.2-5.308,8.713Z" transform="translate(-60.462 -129.611)" fill="#222"/>
                  <path id="패스_620680" data-name="패스 620680" d="M88.7,274.3l-.9,8.913,3.054-7.361Z" transform="translate(-43.836 -136.95)" fill="#222"/>
                  <g id="그룹_300344" data-name="그룹 300344" transform="translate(22.182 130.54)" opacity="0.2">
                    <g id="그룹_300343" data-name="그룹 300343" clip-path="url(#clip-path-23)">
                      <path id="패스_620681" data-name="패스 620681" d="M59.221,260.7l5.107,4.507,2.9,1.052-1.052,10.165L47.5,288.44l-.4-4.406-2.6-3.806,12.819-8.362s2.8-6.71,1.9-11.166" transform="translate(-44.4 -260.7)"/>
                    </g>
                  </g>
                  <path id="패스_620682" data-name="패스 620682" d="M132.57,288.791h0l-8.512,4.657a3.455,3.455,0,0,1-2.9.25,3.3,3.3,0,0,1-2.153-3.1v-.2l.25-4.256h.15v.25c0,1.4,1.6,2.554,3.655,2.554s3.3-.9,3.555-2.1h.25l-.1-2.2,1.953-.951a3.856,3.856,0,0,1,4.957.4,2.8,2.8,0,0,1,.5.7,3.065,3.065,0,0,1-1.6,4.006" transform="translate(-59.413 -141.276)" fill="#222"/>
                  <path id="패스_620683" data-name="패스 620683" d="M90.125,204.437h0a2.9,2.9,0,0,0-2.454.25l-3.155,1.3a8.512,8.512,0,0,0-3.856,3.756l-6.409,14.171A14.17,14.17,0,0,0,73,228.923" transform="translate(-36.447 -101.988)" fill="none" stroke="#222" stroke-linecap="round" stroke-linejoin="round" stroke-width="1.252"/>
                  <line id="선_85474" data-name="선 85474" x2="3.405" y2="2.654" transform="translate(36.002 140.555)" fill="none" stroke="#222" stroke-linecap="round" stroke-linejoin="round" stroke-width="1.252"/>
                  <path id="패스_620684" data-name="패스 620684" d="M89.8,267.011l1.9,1.3a8.913,8.913,0,0,0,11.917-1.853l6.61-6.86" transform="translate(-44.835 -129.611)" fill="none" stroke="#222" stroke-linecap="round" stroke-linejoin="round" stroke-width="1.252"/>
                  <path id="패스_620685" data-name="패스 620685" d="M118,241.984l9.614-3.405a3.856,3.856,0,0,1,4.707,1.853,6.059,6.059,0,0,1,.3,4.857l-5.959,16.124" transform="translate(-58.914 -119.005)" fill="none" stroke="#222" stroke-linecap="round" stroke-linejoin="round" stroke-width="1.252"/>
                  <path id="패스_620686" data-name="패스 620686" d="M128.411,289.9a1.751,1.751,0,0,1-.05.451c-.3,1.3-1.853,2.253-3.756,2.253s-3.805-1.2-3.805-2.7" transform="translate(-60.312 -144.739)" fill="#fff"/>
                  <path id="패스_620687" data-name="패스 620687" d="M128.411,289.9a1.751,1.751,0,0,1-.05.451c-.3,1.3-1.853,2.253-3.756,2.253s-3.805-1.2-3.805-2.7" transform="translate(-60.312 -144.739)" fill="none" stroke="#222" stroke-linecap="round" stroke-linejoin="round" stroke-width="1.252"/>
                  <line id="선_85475" data-name="선 85475" y1="6.96" x2="1.452" transform="translate(59.937 134.145)" fill="none" stroke="#222" stroke-linecap="round" stroke-linejoin="round" stroke-width="1.252"/>
                  <path id="패스_620688" data-name="패스 620688" d="M34.764,321.417l-.551.2h0l-2.854,1.3a3.655,3.655,0,0,1-3.355-.15,5.859,5.859,0,0,1-2.9-4.957l-.1-4.306v-.9h0a3,3,0,0,1,2.854-2.8,2.6,2.6,0,0,1,1.1.25l1.7,2.4,1.853,2.6.15,1a3,3,0,0,1,3.705,1.352,3.065,3.065,0,0,1-1.6,4.006" transform="translate(-12.482 -154.674)" fill="#222"/>
                  <path id="패스_620689" data-name="패스 620689" d="M40.262,309.761l-2.2.651-2.5.751L32.3,307.007l3.605-2.8h0l2.153-1.7c1.4,0,2.754,1.552,3.054,3.605a4.556,4.556,0,0,1-.851,3.705" transform="translate(-16.126 -151.03)" fill="#fff"/>
                  <path id="패스_620690" data-name="패스 620690" d="M40.262,309.761l-2.2.651-2.5.751L32.3,307.007l3.605-2.8h0l2.153-1.7c1.4,0,2.754,1.552,3.054,3.605A4.556,4.556,0,0,1,40.262,309.761Z" transform="translate(-16.126 -151.03)" fill="none" stroke="#222" stroke-miterlimit="10" stroke-width="1.252"/>
                  <line id="선_85476" data-name="선 85476" x1="0.1" y1="2.153" transform="translate(60.438 142.758)" fill="none" stroke="#222" stroke-linecap="round" stroke-linejoin="round" stroke-width="1.252"/>
                  <line id="선_85477" data-name="선 85477" x2="3.105" y2="0.3" transform="translate(69.701 106.705)" fill="none" stroke="#222" stroke-linecap="round" stroke-linejoin="round" stroke-width="1.252"/>
                  <path id="패스_620691" data-name="패스 620691" d="M127.811,282.75c-.05,1.4-1.953,2.5-4.156,2.453s-4.006-1.3-3.956-2.7" transform="translate(-59.762 -141.044)" fill="none" stroke="#222" stroke-linecap="round" stroke-linejoin="round" stroke-width="1.252"/>
                  <path id="패스_620692" data-name="패스 620692" d="M71.981,278.8l-1.853,4.807a9.214,9.214,0,0,1-3.605,4.406L50.4,297.978" transform="translate(-25.163 -139.197)" fill="none" stroke="#222" stroke-linecap="round" stroke-linejoin="round" stroke-width="1.252"/>
                  <path id="패스_620693" data-name="패스 620693" d="M59.122,259.6l-.15,5.909a10.265,10.265,0,0,1-4.406,8.262L44.2,280.581" transform="translate(-22.068 -129.611)" fill="none" stroke="#222" stroke-linecap="round" stroke-linejoin="round" stroke-width="1.252"/>
                  <path id="패스_620694" data-name="패스 620694" d="M117.1,211.695l3.806-9.614,12.218-.4a2.854,2.854,0,0,0,2.7-3.1l-.3-13.77a1.8,1.8,0,0,1,.25-1c1.152-1.953,1.6-3.806.25-5.608a1.7,1.7,0,0,0-2.353-.4l-.6.451c-1,.7-1.953,1.4-1.552,2.554a11.266,11.266,0,0,1,.551,5.157l-1.5,7.261a2.4,2.4,0,0,1-2.754,2.053l-6.86-1" transform="translate(-58.465 -88.615)" fill="none" stroke="#222" stroke-linecap="round" stroke-linejoin="round" stroke-width="1.252"/>
                  <path id="패스_620695" data-name="패스 620695" d="M90.225,206.5s-2.353,2.2-.551,3.255S94.932,208,94.932,208l3.755.751a19.478,19.478,0,0,0-3.3,16.624l-3.806,9.414a3.955,3.955,0,0,1-1.1,1.552,11.267,11.267,0,0,1-7.21,2.5c-5.658,0-10.265-3.856-10.265-8.613" transform="translate(-36.447 -103.1)" fill="none" stroke="#222" stroke-linecap="round" stroke-linejoin="round" stroke-width="1.252"/>
                  <path id="패스_620696" data-name="패스 620696" d="M106.9,189.663l2.954-12.568a4.967,4.967,0,0,1,9.664,2.3l-2.1,8.913a3.755,3.755,0,0,1-4.507,2.754l-.851-.2" transform="translate(-53.372 -86.512)" fill="#fff"/>
                  <path id="패스_620697" data-name="패스 620697" d="M106.9,189.663l2.954-12.568a4.967,4.967,0,0,1,9.664,2.3l-2.1,8.913a3.755,3.755,0,0,1-4.507,2.754l-.851-.2" transform="translate(-53.372 -86.512)" fill="none" stroke="#222" stroke-linecap="round" stroke-miterlimit="10" stroke-width="1.252"/>
                  <path id="패스_620698" data-name="패스 620698" d="M121.516,173.887l-11.116-2.6.651-2.854a2.7,2.7,0,0,1,3.255-2l8.512,2a2.7,2.7,0,0,1,2,3.255v.2a2.7,2.7,0,0,1-3.255,2" transform="translate(-55.12 -83.055)" fill="#222"/>
                  <path id="패스_620699" data-name="패스 620699" d="M114.684,185.916l-2.654-.651a4.807,4.807,0,0,1-3.555-5.758l1-4.206,4.406,1.051a3,3,0,0,1,2.253,3.605Z" transform="translate(-54.096 -87.522)" fill="#222"/>
                  <path id="패스_620700" data-name="패스 620700" d="M119.023,172.2a4.156,4.156,0,1,1-.512-3.149,4.156,4.156,0,0,1,.512,3.149" transform="translate(-55.33 -83.42)" fill="#222"/>
                  <path id="패스_620701" data-name="패스 620701" d="M121.107,188.851a1.7,1.7,0,1,0-.751,3.255" transform="translate(-59.267 -94.213)" fill="#fff"/>
                  <path id="패스_620702" data-name="패스 620702" d="M121.107,188.851a1.7,1.7,0,1,0-.751,3.255" transform="translate(-59.267 -94.213)" fill="none" stroke="#222" stroke-linecap="round" stroke-miterlimit="10" stroke-width="1.252"/>
                  <g id="그룹_300346" data-name="그룹 300346" transform="translate(129.789 85.024)" opacity="0.15">
                    <g id="그룹_300345" data-name="그룹 300345" clip-path="url(#clip-path-24)">
                      <path id="패스_620703" data-name="패스 620703" d="M259.59,169.8a19.274,19.274,0,0,0,.751,10.365l10.165-6.359Z" transform="translate(-259.19 -169.8)" fill="#111"/>
                    </g>
                  </g>
                  <path id="패스_620704" data-name="패스 620704" d="M276.172,158.958a3.4,3.4,0,0,1,.6,1.4,2.485,2.485,0,0,1-2.7,2.954,3.7,3.7,0,0,1-1.8-.5,2.7,2.7,0,0,1-2.854,2.554,3.705,3.705,0,0,1-3.255-2,3.005,3.005,0,0,1-1.652.451,3.555,3.555,0,0,1-3.505-3.2,2.9,2.9,0,0,1,0-.551h-.05a3.555,3.555,0,0,1-3.4-3.255,2.9,2.9,0,0,1,.8-2.3,3.607,3.607,0,0,1-1.152-2.353,2.67,2.67,0,0,1,2.6-3,3.6,3.6,0,0,1-.4-1.352,2.543,2.543,0,0,1,2.654-2.954,3.254,3.254,0,0,1,1.7.651,2.3,2.3,0,0,1,2.554-2.1,3.806,3.806,0,0,1,2.754,1.8,2.5,2.5,0,0,1,1.052-.15,4.006,4.006,0,0,1,3.405,3.255h0a4.106,4.106,0,0,1,2.954,3.1,2.452,2.452,0,0,1-.35,1.9,4.006,4.006,0,0,1,2.2,2.754,2.353,2.353,0,0,1-2.3,2.9" transform="translate(-128.406 -71.581)" fill="#e4eff5"/>
                  <path id="패스_620705" data-name="패스 620705" d="M276.172,158.958a3.4,3.4,0,0,1,.6,1.4,2.485,2.485,0,0,1-2.7,2.954,3.7,3.7,0,0,1-1.8-.5,2.7,2.7,0,0,1-2.854,2.554,3.705,3.705,0,0,1-3.255-2,3.005,3.005,0,0,1-1.652.451,3.555,3.555,0,0,1-3.505-3.2,2.9,2.9,0,0,1,0-.551h-.05a3.555,3.555,0,0,1-3.4-3.255,2.9,2.9,0,0,1,.8-2.3,3.607,3.607,0,0,1-1.152-2.353,2.67,2.67,0,0,1,2.6-3,3.6,3.6,0,0,1-.4-1.352,2.543,2.543,0,0,1,2.654-2.954,3.254,3.254,0,0,1,1.7.651,2.3,2.3,0,0,1,2.554-2.1,3.806,3.806,0,0,1,2.754,1.8,2.5,2.5,0,0,1,1.052-.15,4.006,4.006,0,0,1,3.405,3.255h0a4.106,4.106,0,0,1,2.954,3.1,2.452,2.452,0,0,1-.35,1.9,4.006,4.006,0,0,1,2.2,2.754,2.353,2.353,0,0,1-2.153,2.9Z" transform="translate(-128.406 -71.581)" fill="none" stroke="#111" stroke-linecap="round" stroke-linejoin="round" stroke-width="1.001"/>
                  <g id="그룹_300348" data-name="그룹 300348" transform="translate(140.655 81.719)" opacity="0.15">
                    <g id="그룹_300347" data-name="그룹 300347" clip-path="url(#clip-path-25)">
                      <path id="패스_620706" data-name="패스 620706" d="M280.9,165.253l7.211,5.408,2-5.158-2.4-2.3Z" transform="translate(-280.9 -163.2)" fill="#111"/>
                    </g>
                  </g>
                  <line id="선_85478" data-name="선 85478" x1="0.05" y2="0.05" transform="translate(163.438 74.709)" fill="none" stroke="#222" stroke-linecap="round" stroke-miterlimit="10" stroke-width="1.252"/>
                  <path id="패스_620707" data-name="패스 620707" d="M311.618,111.2l.651-.4,6.81,3a16.524,16.524,0,0,1,7.411,6.509l5.859,9.964.1.2a3,3,0,0,1,.2,2.4c-1.2,3.505-5.157,6.059-9.814,6.059a8.357,8.357,0,0,1-6.609-2.7,14.569,14.569,0,0,1-3.055-5.858l-.2-.351h-.15l-.1-.2a4.082,4.082,0,0,0,.1-3.555,2.9,2.9,0,0,0-2-1.9,2.754,2.754,0,0,0-2.3.4l.5-.4-.9-.25a2.754,2.754,0,0,0-2.754.7h-.1l-.2.25-1.4,1.853a2.8,2.8,0,0,0-.6-3.405,2.7,2.7,0,0,0-3.756-.3h-.1l4.807-7.911Z" transform="translate(-149.382 -55.319)" fill="#fff"/>
                  <line id="선_85479" data-name="선 85479" x1="3.305" y2="2.403" transform="translate(164.139 63.442)" fill="none" stroke="#222" stroke-linecap="round" stroke-miterlimit="10" stroke-width="1.252"/>
                  <path id="패스_620708" data-name="패스 620708" d="M301.636,143.311a1.5,1.5,0,0,1-.7.5l-15.323,6.91-5.408,1.953a2.4,2.4,0,0,1-.851.15A2.5,2.5,0,0,1,277,151.173a1.6,1.6,0,0,1-.1-.551,1.652,1.652,0,0,1,.451-1.152,3.554,3.554,0,0,1,2.954-1.1l.7.1h.551a2.5,2.5,0,0,0,1.2-.4l8.062-5.458,6.409-4.306h.1a2.754,2.754,0,0,1,2.3-.4,2.9,2.9,0,0,1,2,1.9,4.082,4.082,0,0,1-.1,3.555" transform="translate(-138.248 -68.803)" fill="#fff"/>
                  <path id="패스_620709" data-name="패스 620709" d="M296.767,138.778l-.25.35-1.452,1.853h0L287,146.439a2.5,2.5,0,0,1-1.2.4l-.5-.3,7.01-11.467h.1a2.7,2.7,0,0,1,3.756.3,2.8,2.8,0,0,1,.6,3.4" transform="translate(-142.442 -67.124)" fill="#fff"/>
                  <line id="선_85480" data-name="선 85480" transform="translate(155.977 69.551)" fill="none" stroke="#222" stroke-linecap="round" stroke-miterlimit="10" stroke-width="2.5"/>
                  <path id="패스_620710" data-name="패스 620710" d="M365.051,148.7l-.751-1.3" transform="translate(-181.884 -73.593)" fill="none" stroke="#222" stroke-linecap="round" stroke-miterlimit="10" stroke-width="1.252"/>
                  <path id="패스_620711" data-name="패스 620711" d="M345.9,177.2l1.1.3a6.91,6.91,0,0,1,5.008,6.71l.351,18.927" transform="translate(-172.698 -88.471)" fill="none" stroke="#222" stroke-linecap="round" stroke-miterlimit="10" stroke-width="1.252"/>
                  <path id="패스_620712" data-name="패스 620712" d="M309.212,120.3c.15,3.555,1.5,4.907,5.057,2.4l3.3.851-7.01,5.057H307.61l-2.2,1.152-4.707-2.8,3.455-5.859.651-.35Z" transform="translate(-150.131 -60.062)" fill="#dbdbdb"/>
                  <path id="패스_620713" data-name="패스 620713" d="M326.682,145.254l7.711-2.954,2.5,1c.25.1,4.406,10.415,4.406,10.415s-6.509,2.453-10.816-1.252-3.805-7.211-3.805-7.211" transform="translate(-163.094 -71.046)" fill="#dbdbdb"/>
                  <path id="패스_620714" data-name="패스 620714" d="M325.4,110.8l6.81,3a16.524,16.524,0,0,1,7.411,6.509l5.859,9.965a3.054,3.054,0,0,1,.3,2.554c-1.2,3.505-5.158,6.059-9.814,6.059-5.658,0-8.012-3.555-9.664-8.563" transform="translate(-162.463 -55.319)" fill="none" stroke="#222" stroke-linecap="round" stroke-miterlimit="10" stroke-width="1.252"/>
                  <path id="패스_620715" data-name="패스 620715" d="M326.4,145.873l6.159-3.054a3.706,3.706,0,0,1,3.555.15l.651.4" transform="translate(-162.962 -71.114)" fill="none" stroke="#222" stroke-linecap="round" stroke-miterlimit="10" stroke-width="1.252"/>
                  <line id="선_85481" data-name="선 85481" y1="6.059" x2="8.362" transform="translate(159.082 63.442)" fill="none" stroke="#222" stroke-linecap="round" stroke-miterlimit="10" stroke-width="1.252"/>
                  <path id="패스_620716" data-name="패스 620716" d="M285.712,150.672l15.322-6.91c1.252-.4,1.452-2.2.8-4.056a2.9,2.9,0,0,0-2-1.9,2.754,2.754,0,0,0-2.3.4l-14.571,9.814a2.5,2.5,0,0,1-1.652.4l-.8-.1a3.556,3.556,0,0,0-2.954,1.1,1.653,1.653,0,0,0-.35,1.7,2.5,2.5,0,0,0,3.155,1.5Z" transform="translate(-138.348 -68.753)" fill="none" stroke="#222" stroke-linecap="round" stroke-miterlimit="10" stroke-width="1.252"/>
                  <path id="패스_620717" data-name="패스 620717" d="M316.1,118.455l.351,1.252a3.3,3.3,0,0,0,2.6,2.3,2.252,2.252,0,0,0,1.652-.4h0a13.62,13.62,0,0,0,3.806-4.957l.7-1.552" transform="translate(-157.82 -57.466)" fill="none" stroke="#222" stroke-linecap="round" stroke-miterlimit="10" stroke-width="1.252"/>
                  <line id="선_85482" data-name="선 85482" x1="11.867" y2="19.428" transform="translate(142.808 59.937)" fill="none" stroke="#222" stroke-linecap="round" stroke-miterlimit="10" stroke-width="1.252"/>
                  <path id="패스_620718" data-name="패스 620718" d="M299.5,135.073a2.9,2.9,0,0,1,4.056,4.056" transform="translate(-149.532 -67.124)" fill="none" stroke="#222" stroke-linecap="round" stroke-miterlimit="10" stroke-width="1.252"/>
                  <path id="패스_620719" data-name="패스 620719" d="M304.9,142.279l3.1-4.006a2.754,2.754,0,0,1,3.054-1l.9.25" transform="translate(-152.228 -68.472)" fill="none" stroke="#222" stroke-linecap="round" stroke-miterlimit="10" stroke-width="1.252"/>
                  <path id="패스_620720" data-name="패스 620720" d="M311.5,135.555s1.8-1.652,1.5-3.355" transform="translate(-155.523 -66.004)" fill="none" stroke="#222" stroke-linecap="round" stroke-miterlimit="10" stroke-width="1.252"/>
                  <path id="패스_620721" data-name="패스 620721" d="M313.96,97.783l-1.853,1.2L307.1,91.273l1.6-1.052a3,3,0,0,1,4.156.9l1.9,2.9a2.7,2.7,0,0,1-.8,3.705" transform="translate(-153.326 -44.806)" fill="#222"/>
                  <path id="패스_620722" data-name="패스 620722" d="M297.981,92.649a4.106,4.106,0,1,1-5.658-1.2,4.106,4.106,0,0,1,5.658,1.2" transform="translate(-145.009 -45.33)" fill="#222"/>
                  <path id="패스_620723" data-name="패스 620723" d="M308.233,88.787a3.805,3.805,0,1,1-5.258-1.1,3.806,3.806,0,0,1,5.258,1.1" transform="translate(-150.403 -43.471)" fill="#222"/>
                  <path id="패스_620724" data-name="패스 620724" d="M313.92,104.116l-6.109-9.364A4.306,4.306,0,1,0,300.6,99.46l4.357,6.659a3.255,3.255,0,0,0,4.507.951l2.253-1.452" transform="translate(-149.731 -46.332)" fill="#fff"/>
                  <path id="패스_620725" data-name="패스 620725" d="M313.92,104.116l-6.109-9.364A4.306,4.306,0,1,0,300.6,99.46l4.357,6.659a3.255,3.255,0,0,0,4.507.951l2.253-1.452" transform="translate(-149.731 -46.332)" fill="none" stroke="#222" stroke-linecap="round" stroke-miterlimit="10" stroke-width="1.252"/>
                  <path id="패스_620726" data-name="패스 620726" d="M317.2,100.962a1.465,1.465,0,0,1,1.6,2.454" transform="translate(-158.369 -50.288)" fill="#fff"/>
                  <path id="패스_620727" data-name="패스 620727" d="M317.2,100.962a1.465,1.465,0,0,1,1.6,2.454" transform="translate(-158.369 -50.288)" fill="none" stroke="#222" stroke-linecap="round" stroke-miterlimit="10" stroke-width="1.252"/>
                  <rect id="사각형_235241" data-name="사각형 235241" width="6.96" height="1.647" transform="translate(149.153 53.259) rotate(-78.1)" fill="#222"/>
                  <rect id="사각형_235242" data-name="사각형 235242" width="2.353" height="8.197" transform="translate(151.351 48.445) rotate(-78.1)" fill="#222"/>
                  <path id="패스_620728" data-name="패스 620728" d="M310.483,114.638l-2.1,1.352a.751.751,0,1,1-.8-1.2l2.1-1.352a.751.751,0,1,1,.8,1.2" transform="translate(-153.305 -56.503)" fill="#222"/>
                  <rect id="사각형_235243" data-name="사각형 235243" width="1.302" height="3.986" transform="matrix(0.838, -0.546, 0.546, 0.838, 156.254, 57.888)" fill="#222"/>
                  <path id="패스_620729" data-name="패스 620729" d="M313.148,117.748l-1.753,1.1a1.452,1.452,0,0,1-2-.5l-2.2-3.555a1.452,1.452,0,0,1,.5-2l1.753-1.1a1.452,1.452,0,0,1,2,.5l2.2,3.555a1.452,1.452,0,0,1-.5,2" transform="translate(-153.266 -55.658)" fill="#222"/>
                  <line id="선_85483" data-name="선 85483" y1="0.801" x2="1.352" transform="translate(155.777 57.834)" fill="none" stroke="#fff" stroke-linecap="round" stroke-miterlimit="10" stroke-width="1.502"/>
                </g>
              </g>
            </g>
          </g>
        </g>
        <g id="사각형_421973" data-name="사각형 421973" transform="translate(2.04 0)" fill="#fff" stroke="#707070" stroke-width="1" opacity="0">
          <rect width="199.914" height="201.954" stroke="none"/>
          <rect x="0.5" y="0.5" width="198.914" height="200.954" fill="none"/>
        </g>
      </g>
    </g>
  </g>
</svg>
