<svg xmlns="http://www.w3.org/2000/svg" xmlns:xlink="http://www.w3.org/1999/xlink" width="547" height="430" viewBox="0 0 547 430">
  <defs>
    <clipPath id="clip-path">
      <rect id="사각형_463730" data-name="사각형 463730" width="547" height="430" transform="translate(1021 3102)" fill="red" opacity="0.346"/>
    </clipPath>
    <clipPath id="clip-path-2">
      <path id="패스_1480475" data-name="패스 1480475" d="M53.945,64.563l-5.734-5.739v-.405l5.736-5.736,6.924,3.935c1.94,1.1,1.94,2.906,0,4.007l-6.8,3.862-.131.077" transform="translate(-48.211 -52.683)" fill="none"/>
    </clipPath>
    <clipPath id="clip-path-3">
      <path id="패스_1480476" data-name="패스 1480476" d="M65.059,60.718l-5.865-5.865L41.887,72.16c.638.679,1.7.761,2.885.085L65.059,60.718" transform="translate(-41.887 -54.853)" fill="none"/>
    </clipPath>
    <clipPath id="clip-path-4">
      <path id="패스_1480477" data-name="패스 1480477" d="M65.059,60.321,44.772,48.794c-1.188-.676-2.247-.591-2.885.085L59.194,66.186l5.865-5.865" transform="translate(-41.887 -48.328)" fill="none"/>
    </clipPath>
    <clipPath id="clip-path-5">
      <path id="패스_1535398" data-name="패스 1535398" d="M629.984,427.94h0A113.062,113.062,0,0,1,743.046,541h0A113.06,113.06,0,0,1,629.984,654.063h0A113.058,113.058,0,0,1,516.923,541h0A113.06,113.06,0,0,1,629.984,427.94Z" transform="translate(621.932 2662.904)" stroke="#3673ee" stroke-width="1" opacity="0.07"/>
    </clipPath>
    <clipPath id="clip-path-6">
      <rect id="사각형_318396" data-name="사각형 318396" width="193.845" height="193.845" fill="none"/>
    </clipPath>
    <clipPath id="clip-path-8">
      <rect id="사각형_318382" data-name="사각형 318382" width="27.381" height="14.141" fill="none"/>
    </clipPath>
    <clipPath id="clip-path-9">
      <rect id="사각형_318383" data-name="사각형 318383" width="28.447" height="14.136" fill="none"/>
    </clipPath>
    <clipPath id="clip-path-10">
      <rect id="사각형_318384" data-name="사각형 318384" width="20.015" height="56.186" fill="none"/>
    </clipPath>
    <clipPath id="clip-path-11">
      <rect id="사각형_318385" data-name="사각형 318385" width="2.762" height="4.856" fill="none"/>
    </clipPath>
    <clipPath id="clip-path-12">
      <rect id="사각형_318386" data-name="사각형 318386" width="8.965" height="7.914" fill="none"/>
    </clipPath>
    <clipPath id="clip-path-13">
      <rect id="사각형_318387" data-name="사각형 318387" width="8.481" height="3.203" fill="none"/>
    </clipPath>
    <clipPath id="clip-path-14">
      <rect id="사각형_318388" data-name="사각형 318388" width="6.93" height="6.954" fill="none"/>
    </clipPath>
    <clipPath id="clip-path-15">
      <rect id="사각형_318391" data-name="사각형 318391" width="8.045" height="9.847" fill="none"/>
    </clipPath>
    <clipPath id="clip-path-16">
      <rect id="사각형_318392" data-name="사각형 318392" width="8.917" height="10.138" fill="none"/>
    </clipPath>
    <clipPath id="clip-path-17">
      <rect id="사각형_318393" data-name="사각형 318393" width="5.282" height="9.343" fill="none"/>
    </clipPath>
    <clipPath id="clip-path-18">
      <rect id="사각형_318394" data-name="사각형 318394" width="12.503" height="75.658" fill="none"/>
    </clipPath>
  </defs>
  <g id="마스크_그룹_582977" data-name="마스크 그룹 582977" transform="translate(-1021 -3102)" clip-path="url(#clip-path)">
    <text id="프리미엄_세차_서비스로_하차감_UP_" data-name="프리미엄 세차 서비스로 
하차감 UP! " transform="translate(460 3079)" fill="#3673ee" font-size="66" font-family="MoebiusKorea-Regular, Moebius Korea"><tspan letter-spacing="-0.05em"><tspan x="0" y="0">프리미엄 세차 서비스</tspan><tspan y="0" fill="#111">로 </tspan></tspan><tspan fill="#111"><tspan x="0" y="83" letter-spacing="-0.05em">하차감 </tspan><tspan y="83">UP! </tspan></tspan></text>
    <g id="indicator" transform="translate(1819.863 3260) rotate(90)">
      <g id="Icon_dot_depart_b">
        <rect id="area" width="10" height="10" transform="translate(0 -0.138)" fill="none"/>
        <circle id="Oval_Copy_6" data-name="Oval Copy 6" cx="4" cy="4" r="4" transform="translate(1 0.862)" fill="#111"/>
      </g>
      <g id="Icon_dot_depart_g" transform="translate(25.009)" opacity="0.2">
        <rect id="area-2" data-name="area" width="10" height="10" transform="translate(-0.009 -0.138)" fill="none"/>
        <circle id="Oval_Copy_6-2" data-name="Oval Copy 6" cx="4" cy="4" r="4" transform="translate(0.991 0.862)" fill="#111"/>
      </g>
      <g id="Icon_dot_depart_g-2" data-name="Icon_dot_depart_g" transform="translate(50.018)" opacity="0.2">
        <rect id="area-3" data-name="area" width="10" height="10" transform="translate(-0.018 -0.138)" fill="none"/>
        <circle id="Oval_Copy_6-3" data-name="Oval Copy 6" cx="4" cy="4" r="4" transform="translate(0.982 0.862)" fill="#111"/>
      </g>
    </g>
    <g id="download" transform="translate(0 1881)">
      <g id="그룹_600337" data-name="그룹 600337" transform="translate(-63 -141)">
        <rect id="사각형_440844" data-name="사각형 440844" width="220" height="80" rx="40" transform="translate(763 1741)" fill="#111"/>
        <g id="그룹_600333" data-name="그룹 600333" transform="translate(1)">
          <g id="그룹_600332" data-name="그룹 600332" transform="translate(-4 8)">
            <text id="Download_on_the_" data-name="Download on the " transform="translate(849 1767)" fill="#fff" font-size="11" font-family="MoebiusKorea-Bold, Moebius Korea" font-weight="700"><tspan x="0" y="0">Download on the </tspan></text>
            <g id="그룹_600319" data-name="그룹 600319" transform="translate(847 1771)">
              <path id="패스_1480482" data-name="패스 1480482" d="M71.5,101.78H68.8l-1.479-4.648H62.179l-1.406,4.648H58.145l5.09-15.815H66.38Zm-4.622-6.6-1.336-4.126q-.214-.635-.8-2.981H64.69c-.157.672-.4,1.666-.751,2.981l-1.313,4.126Z" transform="translate(-58.145 -85.729)" fill="#fff"/>
              <path id="패스_1480483" data-name="패스 1480483" d="M75.734,93.546a6.49,6.49,0,0,1-1.57,4.6,4.6,4.6,0,0,1-3.5,1.5,3.494,3.494,0,0,1-3.236-1.619H67.38v6.007H64.848v-12.3q0-1.829-.1-3.754h2.23l.14,1.807h.047a4.506,4.506,0,0,1,7.215-.447A6.281,6.281,0,0,1,75.734,93.546Zm-2.581.094a4.714,4.714,0,0,0-.749-2.745A2.594,2.594,0,0,0,70.2,89.766a2.629,2.629,0,0,0-1.7.622,2.884,2.884,0,0,0-1,1.631,3.4,3.4,0,0,0-.119.772v1.9a3.042,3.042,0,0,0,.763,2.1,2.535,2.535,0,0,0,1.984.857,2.6,2.6,0,0,0,2.228-1.1A4.856,4.856,0,0,0,73.153,93.639Z" transform="translate(-49.291 -83.338)" fill="#fff"/>
              <path id="패스_1480484" data-name="패스 1480484" d="M81.339,93.546a6.48,6.48,0,0,1-1.573,4.6,4.6,4.6,0,0,1-3.5,1.5,3.5,3.5,0,0,1-3.239-1.619h-.044v6.007H70.453v-12.3q0-1.829-.1-3.754h2.23l.14,1.807h.049a4.506,4.506,0,0,1,7.215-.447A6.3,6.3,0,0,1,81.339,93.546Zm-2.581.094a4.7,4.7,0,0,0-.751-2.745,2.587,2.587,0,0,0-2.2-1.128,2.635,2.635,0,0,0-1.7.622,2.909,2.909,0,0,0-1,1.631,3.358,3.358,0,0,0-.115.772v1.9a3.04,3.04,0,0,0,.761,2.1,2.527,2.527,0,0,0,1.982.857,2.592,2.592,0,0,0,2.228-1.1A4.856,4.856,0,0,0,78.758,93.639Z" transform="translate(-41.779 -83.338)" fill="#fff"/>
              <path id="패스_1480485" data-name="패스 1480485" d="M86.934,97.48a4.217,4.217,0,0,1-1.4,3.283,6.227,6.227,0,0,1-4.308,1.385,7.515,7.515,0,0,1-4.1-.988l.587-2.111a6.938,6.938,0,0,0,3.662,1.011,3.47,3.47,0,0,0,2.232-.648,2.11,2.11,0,0,0,.793-1.727,2.2,2.2,0,0,0-.655-1.622,6.118,6.118,0,0,0-2.183-1.224q-4.153-1.548-4.151-4.533a4.019,4.019,0,0,1,1.456-3.2,5.748,5.748,0,0,1,3.871-1.245,7.7,7.7,0,0,1,3.59.749l-.634,2.066a6.228,6.228,0,0,0-3.026-.725,3.074,3.074,0,0,0-2.087.655,1.881,1.881,0,0,0-.634,1.432,1.931,1.931,0,0,0,.728,1.547,8.111,8.111,0,0,0,2.3,1.222,7.791,7.791,0,0,1,3,1.924A4.034,4.034,0,0,1,86.934,97.48Z" transform="translate(-32.71 -85.864)" fill="#fff"/>
              <path id="패스_1480486" data-name="패스 1480486" d="M88.872,91.376H86.08v5.537q0,2.113,1.479,2.113a4.576,4.576,0,0,0,1.126-.117l.07,1.924a5.778,5.778,0,0,1-1.97.281,3.042,3.042,0,0,1-2.347-.915,4.5,4.5,0,0,1-.845-3.075V91.376H81.929v-1.9h1.664v-2.09l2.488-.749v2.839h2.792Z" transform="translate(-26.271 -84.828)" fill="#fff"/>
              <path id="패스_1480487" data-name="패스 1480487" d="M96.676,93.592a6.266,6.266,0,0,1-1.5,4.318A5.368,5.368,0,0,1,91,99.646a5.094,5.094,0,0,1-4-1.666,6.072,6.072,0,0,1-1.488-4.2,6.189,6.189,0,0,1,1.535-4.339,5.317,5.317,0,0,1,4.142-1.692,5.2,5.2,0,0,1,4.034,1.669A6,6,0,0,1,96.676,93.592Zm-2.63.082a5.137,5.137,0,0,0-.679-2.705A2.5,2.5,0,0,0,91.09,89.6a2.534,2.534,0,0,0-2.321,1.367,5.232,5.232,0,0,0-.681,2.754,5.129,5.129,0,0,0,.681,2.7,2.587,2.587,0,0,0,4.575-.023A5.126,5.126,0,0,0,94.046,93.674Z" transform="translate(-21.473 -83.338)" fill="#fff"/>
              <path id="패스_1480488" data-name="패스 1480488" d="M97.3,90.213a4.386,4.386,0,0,0-.8-.073,2.4,2.4,0,0,0-2.066,1.011,3.8,3.8,0,0,0-.632,2.254v5.984H91.267l.021-7.814q0-1.973-.1-3.59H93.4l.094,2.181h.068a3.907,3.907,0,0,1,1.268-1.807,3.065,3.065,0,0,1,1.83-.611,4.016,4.016,0,0,1,.637.047Z" transform="translate(-13.857 -83.338)" fill="#fff"/>
              <path id="패스_1480489" data-name="패스 1480489" d="M104.448,93.161a5.941,5.941,0,0,1-.094,1.149h-7.6a3.312,3.312,0,0,0,1.1,2.581,3.768,3.768,0,0,0,2.488.8,8.388,8.388,0,0,0,3.073-.538l.4,1.76a9.518,9.518,0,0,1-3.824.7,5.521,5.521,0,0,1-4.165-1.561,5.757,5.757,0,0,1-1.514-4.187,6.542,6.542,0,0,1,1.409-4.294,4.859,4.859,0,0,1,3.988-1.83,4.248,4.248,0,0,1,3.733,1.83A6.155,6.155,0,0,1,104.448,93.161Zm-2.417-.66a3.446,3.446,0,0,0-.491-1.947A2.216,2.216,0,0,0,99.52,89.5,2.4,2.4,0,0,0,97.5,90.533a3.8,3.8,0,0,0-.751,1.968Z" transform="translate(-9.677 -83.351)" fill="#fff"/>
            </g>
          </g>
          <g id="그룹_600335" data-name="그룹 600335" transform="translate(805.003 1761.978)">
            <g id="그룹_600317" data-name="그룹 600317" transform="translate(0 0)">
              <path id="패스_1480480" data-name="패스 1480480" d="M67.2,93.307a8.05,8.05,0,0,1,3.84-6.757,8.244,8.244,0,0,0-6.5-3.514c-2.734-.287-5.386,1.634-6.779,1.634-1.42,0-3.566-1.606-5.873-1.557A8.655,8.655,0,0,0,44.6,87.551c-3.147,5.452-.8,13.465,2.22,17.871,1.508,2.159,3.27,4.57,5.58,4.486,2.258-.093,3.1-1.442,5.829-1.442,2.7,0,3.489,1.442,5.846,1.385,2.422-.036,3.949-2.168,5.405-4.346a17.75,17.75,0,0,0,2.474-5.033A7.791,7.791,0,0,1,67.2,93.307Z" transform="translate(-43.103 -74.453)" fill="#fff"/>
              <path id="패스_1480481" data-name="패스 1480481" d="M53.652,85.563a7.929,7.929,0,0,0,1.814-5.682,8.066,8.066,0,0,0-5.222,2.7,7.548,7.548,0,0,0-1.861,5.474A6.669,6.669,0,0,0,53.652,85.563Z" transform="translate(-34.004 -79.881)" fill="#fff"/>
            </g>
          </g>
        </g>
      </g>
      <g id="그룹_600338" data-name="그룹 600338" transform="translate(-34 -141)">
        <rect id="사각형_440843" data-name="사각형 440843" width="220" height="80" rx="40" transform="translate(484 1741)" fill="#111"/>
        <g id="그룹_600334" data-name="그룹 600334" transform="translate(-6 1)">
          <path id="패스_1480503" data-name="패스 1480503" d="M89.63,58.946A5.055,5.055,0,1,0,94.7,64a4.981,4.981,0,0,0-5.069-5.055m0,8.116A3.07,3.07,0,1,1,92.478,64,2.923,2.923,0,0,1,89.63,67.062ZM78.561,58.946A5.055,5.055,0,1,0,83.635,64,4.983,4.983,0,0,0,78.561,58.946Zm0,8.116A3.07,3.07,0,1,1,81.414,64,2.925,2.925,0,0,1,78.561,67.062ZM65.394,60.5v2.144h5.132a4.486,4.486,0,0,1-1.168,2.7,5.266,5.266,0,0,1-3.964,1.568,5.706,5.706,0,0,1,0-11.411,5.466,5.466,0,0,1,3.868,1.533l1.514-1.514a7.49,7.49,0,0,0-5.382-2.165,7.852,7.852,0,1,0,0,15.7,7.174,7.174,0,0,0,5.476-2.2A7.734,7.734,0,0,0,72.613,60.5Zm53.847,1.664a4.7,4.7,0,0,0-4.329-3.215A4.8,4.8,0,0,0,110.144,64a4.947,4.947,0,0,0,5.017,5.055,5.018,5.018,0,0,0,4.21-2.242l-1.722-1.149a2.874,2.874,0,0,1-2.488,1.4,2.572,2.572,0,0,1-2.452-1.528l6.758-2.8Zm-6.894,1.685a2.771,2.771,0,0,1,2.642-2.946,1.946,1.946,0,0,1,1.874,1.072Zm-5.492,4.9h2.221V53.889h-2.221Zm-3.641-8.673h-.075a3.5,3.5,0,0,0-2.661-1.13,5.059,5.059,0,0,0,0,10.109,3.45,3.45,0,0,0,2.661-1.149h.075v.725c0,1.935-1.032,2.97-2.7,2.97a2.8,2.8,0,0,1-2.546-1.8l-1.933.805a4.813,4.813,0,0,0,4.479,2.984c2.6,0,4.8-1.53,4.8-5.263V59.25h-2.106Zm-2.546,6.985a3.073,3.073,0,0,1,0-6.124,3.086,3.086,0,0,1,0,6.124Zm28.976-13.17H124.33V68.749h2.216v-5.63h3.1a4.62,4.62,0,1,0,0-9.227Zm.056,7.161h-3.152V55.96H129.7a2.547,2.547,0,1,1,0,5.092ZM143.4,58.918a4.167,4.167,0,0,0-3.957,2.275l1.968.821a2.1,2.1,0,0,1,2.027-1.09,2.139,2.139,0,0,1,2.333,1.914v.152a4.883,4.883,0,0,0-2.314-.573c-2.122,0-4.28,1.165-4.28,3.344a3.43,3.43,0,0,0,3.688,3.269,3.127,3.127,0,0,0,2.829-1.453h.077v1.147h2.141v-5.7C147.916,60.39,145.946,58.918,143.4,58.918Zm-.267,8.141c-.73,0-1.741-.36-1.741-1.259,0-1.147,1.264-1.587,2.35-1.587a3.946,3.946,0,0,1,2.029.5A2.688,2.688,0,0,1,143.138,67.059Zm12.576-7.816-2.541,6.44H153.1l-2.637-6.44h-2.392l3.96,9-2.258,5.008h2.314l6.1-14.01Zm-19.973,9.506h2.216V53.891h-2.216Z" transform="translate(513.822 1725.647)" fill="#fff"/>
          <text id="Get_In_On_" data-name="Get In On  " transform="translate(573 1774)" fill="#fff" font-size="11" font-family="MoebiusKorea-Bold, Moebius Korea" font-weight="700"><tspan x="0" y="0" xml:space="preserve">Get In On  </tspan></text>
        </g>
        <g id="그룹_600336" data-name="그룹 600336" transform="translate(524 1763.5)">
          <path id="패스_1480474" data-name="패스 1480474" d="M42.3,48.592a2.764,2.764,0,0,0-.643,1.951V81.255a2.759,2.759,0,0,0,.643,1.951l.1.1L59.6,66.1V65.7L42.4,48.493l-.1.1" transform="translate(-41.652 -48.04)" fill="#00d6ff"/>
          <g id="그룹_600309" data-name="그룹 600309" transform="translate(17.95 11.92)">
            <g id="그룹_600308" data-name="그룹 600308" clip-path="url(#clip-path-2)">
              <rect id="사각형_440839" data-name="사각형 440839" width="14.6" height="11.88" transform="translate(0 0)" fill="#ffd100"/>
            </g>
          </g>
          <g id="그룹_600311" data-name="그룹 600311" transform="translate(0.643 17.859)">
            <g id="그룹_600310" data-name="그룹 600310" clip-path="url(#clip-path-3)">
              <rect id="사각형_440840" data-name="사각형 440840" width="29.161" height="29.161" transform="matrix(0.707, -0.707, 0.707, 0.707, -9.035, 9.035)" fill="#ff0238"/>
            </g>
          </g>
          <g id="그룹_600313" data-name="그룹 600313" transform="translate(0.643 0)">
            <g id="그룹_600312" data-name="그룹 600312" clip-path="url(#clip-path-4)">
              <rect id="사각형_440841" data-name="사각형 440841" width="29.161" height="29.161" transform="translate(-9.035 8.825) rotate(-44.998)" fill="#00f367"/>
            </g>
          </g>
        </g>
      </g>
    </g>
    <text id="v" transform="translate(1178 3397)" fill="#fff" font-size="11" font-family="MoebiusKorea-Bold, Moebius Korea" font-weight="700"><tspan x="0" y="0">v</tspan></text>
    <g id="그룹_625480" data-name="그룹 625480" transform="translate(-39.818 -19)">
      <path id="합치기_258" data-name="합치기 258" d="M0,260.735A199.714,199.714,0,0,1,49.494,128.814,25.385,25.385,0,0,1,45.01,78.63,25.173,25.173,0,0,1,56.044,76.1c.348,0,.729,0,1.077.032A19.046,19.046,0,0,1,75.047,63.411a19.612,19.612,0,0,1,4.371.508q.446-.513.921-1a19.122,19.122,0,0,1,2.635-2.29,12.68,12.68,0,1,1,20.578-9.912,12.378,12.378,0,0,1-2.593,7.64A19.078,19.078,0,0,1,112.537,80.54,198.957,198.957,0,0,1,200,60.421c110.457,0,200,89.684,200,200.315S310.457,461.051,200,461.051,0,371.367,0,260.735ZM55.9,9.517a9.5,9.5,0,1,1,9.5,9.517A9.51,9.51,0,0,1,55.9,9.517Z" transform="translate(1599.904 3140) rotate(90)" fill="#3673ee" opacity="0.04"/>
      <g id="합치기_259" data-name="합치기 259" transform="translate(1590.904 3131.05) rotate(90)" fill="none" opacity="0.12">
        <path d="M0,260.735A199.714,199.714,0,0,1,49.494,128.814,25.385,25.385,0,0,1,45.01,78.63,25.173,25.173,0,0,1,56.044,76.1c.348,0,.729,0,1.077.032A19.046,19.046,0,0,1,75.047,63.411a19.612,19.612,0,0,1,4.371.508q.446-.513.921-1a19.122,19.122,0,0,1,2.635-2.29,12.68,12.68,0,1,1,20.578-9.912,12.378,12.378,0,0,1-2.593,7.64A19.078,19.078,0,0,1,112.537,80.54,198.957,198.957,0,0,1,200,60.421c110.457,0,200,89.684,200,200.315S310.457,461.051,200,461.051,0,371.367,0,260.735ZM55.9,9.517a9.5,9.5,0,1,1,9.5,9.517A9.51,9.51,0,0,1,55.9,9.517Z" stroke="none"/>
        <path d="M 199.9997711181641 459.0511474609375 C 213.4349517822266 459.0511474609375 226.8610687255859 457.6956176757812 239.9052429199219 455.022216796875 C 252.6168975830078 452.4169006347656 265.1204833984375 448.5294494628906 277.0686645507812 443.4678039550781 C 288.8004760742188 438.4978637695312 300.1159362792969 432.3463134765625 310.7008361816406 425.1840209960938 C 321.1857299804688 418.0893859863281 331.0452880859375 409.9416198730469 340.0057678222656 400.967041015625 C 348.9662475585938 391.9923706054688 357.1012573242188 382.1171569824219 364.1847839355469 371.6155700683594 C 371.3358764648438 361.0137329101562 377.4779357910156 349.6800842285156 382.440185546875 337.9293823242188 C 387.4940795898438 325.9618530273438 391.3755493164062 313.4380187988281 393.9767761230469 300.7057800292969 C 396.6461181640625 287.6404418945312 397.9996032714844 274.1924438476562 397.9996032714844 260.7354431152344 C 397.9996032714844 247.278564453125 396.6461181640625 233.8306732177734 393.9767761230469 220.765380859375 C 391.3755493164062 208.033203125 387.4940795898438 195.5094451904297 382.440185546875 183.5419769287109 C 377.4779357910156 171.7913818359375 371.3358764648438 160.4577331542969 364.1847839355469 149.8559722900391 C 357.1012573242188 139.3544464111328 348.9662475585938 129.4792022705078 340.0057678222656 120.5046157836914 C 331.0452880859375 111.530029296875 321.1857299804688 103.38232421875 310.7008361816406 96.28767395019531 C 300.1159362792969 89.12544250488281 288.8004760742188 82.97391510009766 277.0686645507812 78.00391387939453 C 265.1204833984375 72.94232177734375 252.6168975830078 69.05485534667969 239.9052429199219 66.44956207275391 C 226.8610687255859 63.77614593505859 213.4349517822266 62.42061614990234 199.9997711181641 62.42061614990234 C 184.7594757080078 62.42061614990234 169.5754852294922 64.16167449951172 154.8695983886719 67.59538269042969 C 140.5722961425781 70.93367767333984 126.6245956420898 75.89373779296875 113.4138946533203 82.33779144287109 L 109.6093597412109 84.19361877441406 L 110.5916595458984 80.07614898681641 C 110.9005355834961 78.78155517578125 111.05712890625 77.44361877441406 111.05712890625 76.09950256347656 C 111.05712890625 72.60161590576172 110.0073623657227 69.24143981933594 108.0213012695312 66.38232421875 C 106.0790710449219 63.58626556396484 103.3854827880859 61.45685195922852 100.2317733764648 60.22420501708984 L 97.74177551269531 59.25102996826172 L 99.37841796875 57.13708877563477 C 100.8011245727539 55.29944229125977 101.5531234741211 53.08090972900391 101.5531234741211 50.7213249206543 C 101.5531234741211 47.86449813842773 100.443244934082 45.17955780029297 98.42789459228516 43.16108703613281 C 96.41336059570312 41.14338302612305 93.73418426513672 40.03220367431641 90.88383483886719 40.03220367431641 C 88.03347778320312 40.03220367431641 85.35424041748047 41.14338302612305 83.33971405029297 43.16108703613281 C 81.32436370849609 45.17955780029297 80.2144775390625 47.86449813842773 80.2144775390625 50.7213249206543 C 80.2144775390625 53.99296951293945 81.67547607421875 57.03608703613281 84.22277069091797 59.0703239440918 L 86.28312683105469 60.71567535400391 L 84.14336395263672 62.25626373291016 C 83.29888916015625 62.86426544189453 82.50501251220703 63.55420684814453 81.78377532958984 64.30702972412109 L 81.77448272705078 64.31679534912109 L 81.76500701904297 64.32638549804688 C 81.47971343994141 64.61626434326172 81.19800567626953 64.92079162597656 80.92777252197266 65.23143768310547 L 80.14189147949219 66.13497161865234 L 78.97430419921875 65.86891174316406 C 77.62318420410156 65.56102752685547 76.33865356445312 65.41132354736328 75.04742431640625 65.41132354736328 C 71.46624755859375 65.41132354736328 68.03671264648438 66.52132415771484 65.12947845458984 68.62132263183594 C 63.72888946533203 69.63302612304688 62.4924201965332 70.84644317626953 61.45430374145508 72.22779083251953 C 60.4057731628418 73.62314605712891 59.5827751159668 75.15973663330078 59.0080680847168 76.79502868652344 L 58.49177169799805 78.26414489746094 L 56.94089126586914 78.12379455566406 C 56.68253707885742 78.10037994384766 56.35789108276367 78.10037994384766 56.04389190673828 78.10037994384766 C 52.48230361938477 78.10037994384766 49.06412506103516 78.88379669189453 45.88442230224609 80.42890930175781 L 45.66583251953125 80.53514862060547 L 45.42812728881836 80.58591461181641 C 40.28530120849609 81.68455505371094 35.60671615600586 84.54861450195312 32.25424575805664 88.65038299560547 C 30.5833625793457 90.69467926025391 29.28112602233887 92.98397064208984 28.3836555480957 95.45473480224609 C 27.45489120483398 98.01155853271484 26.9840087890625 100.7013854980469 26.9840087890625 103.4496154785156 C 26.9840087890625 109.5612640380859 29.32353782653809 115.3420867919922 33.57159805297852 119.7272033691406 C 37.80965423583984 124.1019668579102 43.48712539672852 126.619026184082 49.55818557739258 126.8146209716797 L 53.77989196777344 126.9506149291992 L 50.99930191040039 130.1301422119141 C 43.36406707763672 138.8608551025391 36.45730209350586 148.3122711181641 30.47083282470703 158.2220306396484 C 24.41889190673828 168.2400817871094 19.23330307006836 178.849853515625 15.05818557739258 189.7566223144531 C 10.80718517303467 200.8617401123047 7.546420574188232 212.4259643554688 5.366479396820068 224.1280822753906 C 3.133244037628174 236.1163787841797 2.000891208648682 248.4328460693359 2.000891208648682 260.7354431152344 C 2.000891208648682 274.1924438476562 3.354361772537231 287.6404418945312 6.023714542388916 300.7057800292969 C 8.624950408935547 313.4380187988281 12.50642013549805 325.9618530273438 17.560302734375 337.929443359375 C 22.52253913879395 349.6800842285156 28.66453742980957 361.0137329101562 35.81571578979492 371.6155700683594 C 42.89918518066406 382.1171569824219 51.03418350219727 391.9923706054688 59.99465560913086 400.967041015625 C 68.95507049560547 409.9416198730469 78.81459808349609 418.0893859863281 89.29942321777344 425.1840209960938 C 99.88424682617188 432.3463134765625 111.1997146606445 438.4978637695312 122.9314193725586 443.4678039550781 C 134.8795928955078 448.5294494628906 147.3831329345703 452.4169006347656 160.0946502685547 455.022216796875 C 173.1387176513672 457.6956176757812 186.5647125244141 459.0511474609375 199.9997711181641 459.0511474609375 M 65.39759826660156 17.03408813476562 C 69.53382873535156 17.03408813476562 72.89888763427734 13.66214656829834 72.89888763427734 9.517499923706055 C 72.89888763427734 5.372323036193848 69.53382873535156 2.00002908706665 65.39759826660156 2.00002908706665 C 61.26089096069336 2.00002908706665 57.89542007446289 5.372323036193848 57.89542007446289 9.517499923706055 C 57.89542007446289 13.66214656829834 61.26089096069336 17.03408813476562 65.39759826660156 17.03408813476562 M 199.9997711181641 461.0511474609375 C 89.54371643066406 461.0511474609375 0.0008911994518712163 371.3670349121094 0.0008911994518712163 260.7354431152344 C 0.0008911994518712163 210.2075042724609 18.67524337768555 164.0538482666016 49.4937744140625 128.8135528564453 C 35.8836555480957 128.3750915527344 24.9840087890625 117.1872634887695 24.9840087890625 103.4496154785156 C 24.9840087890625 91.25779724121094 33.56630325317383 81.07485198974609 45.01030349731445 78.63002777099609 C 48.34553909301758 77.00938415527344 52.08800888061523 76.10037994384766 56.04389190673828 76.10037994384766 C 56.39218521118164 76.10037994384766 56.77289199829102 76.10037994384766 57.12118530273438 76.13191223144531 C 59.71859741210938 68.7410888671875 66.78089141845703 63.41132354736328 75.04742431640625 63.41132354736328 C 76.56753540039062 63.41132354736328 78.02459716796875 63.60120391845703 79.41871643066406 63.91891098022461 C 79.7161865234375 63.57691192626953 80.02336120605469 63.24473571777344 80.339599609375 62.92343902587891 C 81.14530181884766 62.08243942260742 82.02759552001953 61.31508636474609 82.97477722167969 60.63314819335938 C 80.07430267333984 58.31690979003906 78.2144775390625 54.74026489257812 78.2144775390625 50.7213249206543 C 78.2144775390625 43.71120452880859 83.88447570800781 38.03220367431641 90.88383483886719 38.03220367431641 C 97.88312530517578 38.03220367431641 103.5531234741211 43.71120452880859 103.5531234741211 50.7213249206543 C 103.5531234741211 53.60602951049805 102.6042404174805 56.23744201660156 100.959831237793 58.36144256591797 C 108.0409469604492 61.12908935546875 113.05712890625 68.02749633789062 113.05712890625 76.09950256347656 C 113.05712890625 77.62844085693359 112.876953125 79.11561584472656 112.5370712280273 80.54026794433594 C 138.9564819335938 67.65314483642578 168.6374206542969 60.42061614990234 199.9997711181641 60.42061614990234 C 310.4568176269531 60.42061614990234 399.9996032714844 150.104736328125 399.9996032714844 260.7354431152344 C 399.9996032714844 371.3670349121094 310.4568176269531 461.0511474609375 199.9997711181641 461.0511474609375 Z M 65.39759826660156 19.03408813476562 C 60.14971542358398 19.03408813476562 55.89542007446289 14.77261734008789 55.89542007446289 9.517499923706055 C 55.89542007446289 4.261499881744385 60.14971542358398 2.90599145955639e-05 65.39759826660156 2.90599145955639e-05 C 70.64459991455078 2.90599145955639e-05 74.89888763427734 4.261499881744385 74.89888763427734 9.517499923706055 C 74.89888763427734 14.77261734008789 70.64459991455078 19.03408813476562 65.39759826660156 19.03408813476562 Z" stroke="none" fill="#3673ee"/>
      </g>
      <g id="새벽세차_일러스트" transform="translate(1226.75 3233.658)" opacity="0.998">
        <ellipse id="타원_7390" data-name="타원 7390" cx="52.096" cy="52.096" rx="52.096" ry="52.096" transform="translate(28.258 0)" fill="#111"/>
        <g id="그룹_16287" data-name="그룹 16287" transform="translate(0 13.663)">
          <path id="패스_34865" data-name="패스 34865" d="M2063.833,1040.9l1.176.4a.32.32,0,0,0,.406-.405l-.4-1.175a.32.32,0,0,1,.046-.293l.744-1a.317.317,0,0,0-.259-.509l-1.242.017a.317.317,0,0,1-.265-.135l-.718-1.012a.32.32,0,0,0-.566.09l-.369,1.185a.322.322,0,0,1-.211.211l-1.187.369a.319.319,0,0,0-.089.565l1.014.716a.316.316,0,0,1,.134.264l-.016,1.241a.319.319,0,0,0,.509.26l1-.744A.318.318,0,0,1,2063.833,1040.9Z" transform="translate(-1977.378 -1027.273)" fill="#fff"/>
          <path id="패스_34866" data-name="패스 34866" d="M3070.994,1561.931l-.745-.1a.189.189,0,0,1-.145-.1l-.338-.672a.192.192,0,0,0-.345,0l-.33.677a.2.2,0,0,1-.146.108l-.742.114a.193.193,0,0,0-.1.331l.541.521a.2.2,0,0,1,.057.171l-.124.743a.192.192,0,0,0,.28.2l.665-.355a.192.192,0,0,1,.18,0l.667.344a.194.194,0,0,0,.28-.206l-.131-.74a.2.2,0,0,1,.055-.172l.534-.53A.193.193,0,0,0,3070.994,1561.931Z" transform="translate(-2918.765 -1517.268)" fill="#fff"/>
          <path id="패스_34867" data-name="패스 34867" d="M3695,2989.664l-.337-.672a.194.194,0,0,0-.347,0l-.326.677a.2.2,0,0,1-.146.107l-.744.116a.192.192,0,0,0-.105.329l.54.521a.194.194,0,0,1,.057.171l-.122.743a.192.192,0,0,0,.28.2l.665-.355a.191.191,0,0,1,.18,0l.668.344a.194.194,0,0,0,.279-.207l-.13-.741a.192.192,0,0,1,.052-.171l.538-.531a.193.193,0,0,0-.11-.327l-.745-.1A.185.185,0,0,1,3695,2989.664Z" transform="translate(-3502.789 -2851.805)" fill="#fff"/>
          <path id="패스_34868" data-name="패스 34868" d="M2224.3,1460.765l-.549,1.121a.325.325,0,0,1-.242.176l-1.233.182a.322.322,0,0,0-.178.549l.9.871a.321.321,0,0,1,.093.284l-.207,1.232a.319.319,0,0,0,.463.338l1.1-.583a.318.318,0,0,1,.3,0l1.105.58a.32.32,0,0,0,.463-.34l-.211-1.231a.32.32,0,0,1,.091-.285l.892-.874a.321.321,0,0,0-.178-.547l-1.234-.178a.326.326,0,0,1-.243-.175l-.552-1.12A.32.32,0,0,0,2224.3,1460.765Z" transform="translate(-2128.068 -1423.471)" fill="#fff"/>
          <path id="패스_34869" data-name="패스 34869" d="M4020.729,2162.726l-1.234-.178a.326.326,0,0,1-.243-.177l-.553-1.119a.318.318,0,0,0-.573,0l-.55,1.123a.322.322,0,0,1-.243.176l-1.234.181a.322.322,0,0,0-.178.548l.894.871a.326.326,0,0,1,.094.284l-.211,1.232a.322.322,0,0,0,.467.339l1.1-.583a.317.317,0,0,1,.3,0l1.106.579a.32.32,0,0,0,.464-.34l-.212-1.232a.317.317,0,0,1,.092-.283l.893-.873A.322.322,0,0,0,4020.729,2162.726Z" transform="translate(-3804.557 -2078.139)" fill="#fff"/>
          <path id="패스_34870" data-name="패스 34870" d="M3501.5,3567.238l-1.175-.177a.311.311,0,0,1-.229-.176l-.527-1.12a.3.3,0,0,0-.546,0l-.524,1.122a.308.308,0,0,1-.23.175l-1.173.182a.327.327,0,0,0-.168.549l.851.871a.335.335,0,0,1,.088.284l-.2,1.231a.311.311,0,0,0,.444.34l1.047-.584a.289.289,0,0,1,.286,0l1.051.579a.309.309,0,0,0,.441-.339l-.2-1.233a.33.33,0,0,1,.087-.285l.849-.875A.326.326,0,0,0,3501.5,3567.238Z" transform="translate(-3319.51 -3390.784)" fill="#fff"/>
          <path id="패스_34871" data-name="패스 34871" d="M1221.178,2056.808l-1.234-.178a.322.322,0,0,1-.242-.177l-.553-1.118a.321.321,0,0,0-.575,0l-.55,1.122a.333.333,0,0,1-.241.177l-1.233.18a.323.323,0,0,0-.178.55l.894.87a.32.32,0,0,1,.093.285l-.209,1.232a.321.321,0,0,0,.466.338l1.1-.583a.32.32,0,0,1,.3,0l1.1.58a.321.321,0,0,0,.465-.341l-.213-1.229a.321.321,0,0,1,.091-.285l.892-.874A.322.322,0,0,0,1221.178,2056.808Z" transform="translate(-1188.124 -1979.153)" fill="#fff"/>
          <path id="패스_34872" data-name="패스 34872" d="M3569.358,1313.057l-.494-.072a.127.127,0,0,1-.1-.07l-.223-.451a.128.128,0,0,0-.23,0l-.222.45a.128.128,0,0,1-.1.072l-.5.074a.129.129,0,0,0-.072.22l.36.35a.129.129,0,0,1,.037.115l-.083.5a.128.128,0,0,0,.187.136l.443-.234a.131.131,0,0,1,.122,0l.444.233a.129.129,0,0,0,.186-.137l-.084-.5a.126.126,0,0,1,.037-.114l.358-.352A.13.13,0,0,0,3569.358,1313.057Z" transform="translate(-3385.449 -1284.971)" fill="#fff"/>
          <path id="패스_34873" data-name="패스 34873" d="M3388.276,1118.324l-.5-.072a.123.123,0,0,1-.1-.07l-.223-.451a.13.13,0,0,0-.232,0l-.222.452a.129.129,0,0,1-.1.071l-.5.072a.129.129,0,0,0-.071.221l.359.351a.132.132,0,0,1,.038.115l-.085.5a.13.13,0,0,0,.188.137l.445-.235a.129.129,0,0,1,.12,0l.444.233a.128.128,0,0,0,.187-.136l-.086-.495a.131.131,0,0,1,.039-.116l.358-.351A.129.129,0,0,0,3388.276,1118.324Z" transform="translate(-3216.212 -1102.975)" fill="#fff"/>
          <path id="패스_34874" data-name="패스 34874" d="M3970.339,1895.612a.145.145,0,0,1,.038.115l-.086.5a.128.128,0,0,0,.186.136l.444-.235a.135.135,0,0,1,.122,0l.442.234a.131.131,0,0,0,.189-.138l-.086-.5a.126.126,0,0,1,.038-.113l.358-.353a.129.129,0,0,0-.072-.22l-.494-.071a.134.134,0,0,1-.1-.071l-.224-.451a.127.127,0,0,0-.229,0l-.221.451a.134.134,0,0,1-.1.071l-.494.073a.13.13,0,0,0-.074.221Z" transform="translate(-3761.671 -1828.885)" fill="#fff"/>
          <path id="패스_34875" data-name="패스 34875" d="M2880.259,3626.965l-.5-.072a.132.132,0,0,1-.1-.069l-.221-.451a.129.129,0,0,0-.231,0l-.222.452a.121.121,0,0,1-.1.069l-.5.073a.13.13,0,0,0-.071.221l.359.351a.127.127,0,0,1,.037.115l-.083.494a.129.129,0,0,0,.186.138l.446-.236a.122.122,0,0,1,.118,0l.446.233a.129.129,0,0,0,.186-.135l-.086-.5a.127.127,0,0,1,.037-.112l.359-.353A.13.13,0,0,0,2880.259,3626.965Z" transform="translate(-2741.425 -3447.526)" fill="#fff"/>
          <path id="패스_34876" data-name="패스 34876" d="M4113.1,2533.811a.141.141,0,0,0-.06-.22l-.4-.073a.111.111,0,0,1-.081-.07l-.174-.452a.1.1,0,0,0-.189,0l-.178.451a.114.114,0,0,1-.079.071l-.4.071a.14.14,0,0,0-.057.22l.288.353a.158.158,0,0,1,.033.114l-.07.5c-.016.106.076.187.149.137l.359-.234a.084.084,0,0,1,.094,0l.359.235c.076.05.164-.03.15-.135l-.068-.5a.151.151,0,0,1,.033-.113Z" transform="translate(-3893.924 -2425.669)" fill="#fff"/>
          <path id="패스_34877" data-name="패스 34877" d="M786.351,2563.147l-.084.5a.129.129,0,0,0,.188.136l.444-.234a.132.132,0,0,1,.12,0l.445.232a.129.129,0,0,0,.187-.136l-.086-.5a.132.132,0,0,1,.037-.114l.359-.351a.13.13,0,0,0-.072-.221l-.5-.072a.125.125,0,0,1-.1-.069l-.223-.451a.129.129,0,0,0-.231,0l-.221.452a.131.131,0,0,1-.1.071l-.5.075a.128.128,0,0,0-.071.219l.36.352A.129.129,0,0,1,786.351,2563.147Z" transform="translate(-785.914 -2452.649)" fill="#fff"/>
          <path id="패스_34878" data-name="패스 34878" d="M3339.944,3324.453l-.5-.071a.126.126,0,0,1-.1-.071l-.223-.452a.13.13,0,0,0-.232,0l-.221.451a.134.134,0,0,1-.1.071l-.5.072a.131.131,0,0,0-.072.221l.361.351a.132.132,0,0,1,.037.114l-.083.5a.127.127,0,0,0,.186.135l.445-.233a.123.123,0,0,1,.119,0l.445.232a.129.129,0,0,0,.188-.137l-.085-.494a.128.128,0,0,1,.036-.115l.359-.353A.13.13,0,0,0,3339.944,3324.453Z" transform="translate(-3171.042 -3164.802)" fill="#fff"/>
          <path id="패스_34879" data-name="패스 34879" d="M2433.15,1240.887a.13.13,0,0,1,.039.114l-.085.5a.129.129,0,0,0,.188.135l.443-.234a.13.13,0,0,1,.122,0l.444.233a.13.13,0,0,0,.188-.137l-.086-.5a.131.131,0,0,1,.037-.115l.357-.35a.13.13,0,0,0-.071-.222l-.5-.071a.13.13,0,0,1-.1-.07l-.222-.451a.128.128,0,0,0-.231,0l-.22.452a.132.132,0,0,1-.1.071l-.5.073a.129.129,0,0,0-.072.221Z" transform="translate(-2325.032 -1216.984)" fill="#fff"/>
          <path id="패스_34880" data-name="패스 34880" d="M3601.225,1841.535l-.5-.072a.132.132,0,0,1-.1-.07l-.224-.451a.128.128,0,0,0-.23,0l-.222.452a.132.132,0,0,1-.1.07l-.5.073a.13.13,0,0,0-.071.221l.362.351a.131.131,0,0,1,.036.114l-.084.5a.13.13,0,0,0,.188.137l.445-.235a.131.131,0,0,1,.121,0l.442.233a.129.129,0,0,0,.188-.136l-.084-.5a.128.128,0,0,1,.036-.115l.359-.351A.13.13,0,0,0,3601.225,1841.535Z" transform="translate(-3415.232 -1778.881)" fill="#fff"/>
          <path id="패스_34881" data-name="패스 34881" d="M1646.677,1104.115l.445.234a.129.129,0,0,0,.187-.137l-.085-.5a.128.128,0,0,1,.036-.115l.359-.352a.129.129,0,0,0-.072-.22l-.5-.072a.127.127,0,0,1-.1-.071l-.223-.45a.129.129,0,0,0-.231,0l-.222.451a.128.128,0,0,1-.1.071l-.5.073a.129.129,0,0,0-.072.22l.36.351a.13.13,0,0,1,.037.115l-.084.5a.129.129,0,0,0,.188.136l.444-.234A.13.13,0,0,1,1646.677,1104.115Z" transform="translate(-1589.343 -1088.682)" fill="#fff"/>
          <path id="패스_34882" data-name="패스 34882" d="M2864.4,1925.848a.13.13,0,0,0-.073-.221l-.5-.071a.125.125,0,0,1-.1-.071l-.222-.451a.13.13,0,0,0-.233,0l-.221.452a.128.128,0,0,1-.1.071l-.5.073a.129.129,0,0,0-.072.221l.359.351a.127.127,0,0,1,.038.114l-.084.5a.13.13,0,0,0,.188.137l.442-.236a.14.14,0,0,1,.123,0l.444.234a.129.129,0,0,0,.188-.136l-.086-.5a.124.124,0,0,1,.037-.115Z" transform="translate(-2726.532 -1857.473)" fill="#fff"/>
          <path id="패스_34883" data-name="패스 34883" d="M1933.446,2417.149l-.778-.112a.2.2,0,0,1-.152-.111l-.348-.7a.2.2,0,0,0-.362,0l-.346.706a.2.2,0,0,1-.152.111l-.777.114a.2.2,0,0,0-.112.346l.562.548a.208.208,0,0,1,.06.18l-.133.775a.2.2,0,0,0,.293.212l.695-.365a.2.2,0,0,1,.189,0l.695.365a.2.2,0,0,0,.292-.212l-.134-.775a.207.207,0,0,1,.057-.18l.561-.549A.2.2,0,0,0,1933.446,2417.149Z" transform="translate(-1855.502 -2316.493)" fill="#fff"/>
          <path id="패스_34884" data-name="패스 34884" d="M1257.841,1623.955l-.5-.071a.129.129,0,0,1-.1-.071l-.222-.451a.129.129,0,0,0-.231,0l-.222.452a.129.129,0,0,1-.1.071l-.5.073a.13.13,0,0,0-.071.221l.36.35a.13.13,0,0,1,.038.115l-.084.5a.129.129,0,0,0,.187.136l.444-.234a.125.125,0,0,1,.12,0l.445.233a.129.129,0,0,0,.187-.136l-.085-.5a.131.131,0,0,1,.036-.115l.36-.352A.13.13,0,0,0,1257.841,1623.955Z" transform="translate(-1225.127 -1575.533)" fill="#fff"/>
          <path id="패스_34885" data-name="패스 34885" d="M1007.913,1879.745l-.5-.071a.132.132,0,0,1-.1-.07l-.223-.451a.129.129,0,0,0-.231,0l-.221.453a.134.134,0,0,1-.1.07l-.5.073a.128.128,0,0,0-.071.219l.359.351a.131.131,0,0,1,.038.114l-.084.5a.129.129,0,0,0,.187.136l.444-.234a.122.122,0,0,1,.12,0l.445.234a.13.13,0,0,0,.187-.138l-.086-.5a.128.128,0,0,1,.037-.114l.358-.352A.13.13,0,0,0,1007.913,1879.745Z" transform="translate(-991.548 -1814.592)" fill="#fff"/>
          <path id="패스_34886" data-name="패스 34886" d="M2955.846,2974.256l-.5-.072a.13.13,0,0,1-.1-.07l-.222-.451a.129.129,0,0,0-.231,0l-.221.45a.126.126,0,0,1-.1.07l-.5.073a.131.131,0,0,0-.073.222l.361.351a.127.127,0,0,1,.038.114l-.084.494a.129.129,0,0,0,.187.137l.444-.235a.136.136,0,0,1,.121,0l.443.234a.13.13,0,0,0,.188-.136l-.085-.5a.13.13,0,0,1,.036-.115l.358-.351A.129.129,0,0,0,2955.846,2974.256Z" transform="translate(-2812.067 -2837.512)" fill="#fff"/>
          <path id="패스_34887" data-name="패스 34887" d="M818.486,2277.978l-.5-.072a.124.124,0,0,1-.1-.07l-.223-.45a.129.129,0,0,0-.232,0l-.221.451a.129.129,0,0,1-.1.071l-.5.073a.13.13,0,0,0-.072.222l.36.35a.129.129,0,0,1,.037.114l-.084.5a.129.129,0,0,0,.187.135l.444-.234a.124.124,0,0,1,.12,0l.445.233a.129.129,0,0,0,.187-.138l-.086-.495a.136.136,0,0,1,.037-.116l.358-.35A.13.13,0,0,0,818.486,2277.978Z" transform="translate(-814.511 -2186.777)" fill="#fff"/>
          <path id="패스_34888" data-name="패스 34888" d="M1244.632,2588.03l-.4-.073a.107.107,0,0,1-.077-.071l-.178-.452a.1.1,0,0,0-.186,0l-.18.45a.106.106,0,0,1-.078.07l-.4.073a.139.139,0,0,0-.057.22l.288.352a.149.149,0,0,1,.03.113l-.069.5c-.014.1.074.186.151.134l.357-.232a.082.082,0,0,1,.1,0l.358.235c.077.051.166-.03.152-.136l-.069-.5a.158.158,0,0,1,.03-.114l.291-.351A.14.14,0,0,0,1244.632,2588.03Z" transform="translate(-1213.143 -2476.545)" fill="#fff"/>
          <path id="패스_34889" data-name="패스 34889" d="M3419.037,2417.972l-.5-.071a.133.133,0,0,1-.1-.07l-.223-.451a.127.127,0,0,0-.23,0l-.222.451a.135.135,0,0,1-.1.072l-.5.073a.129.129,0,0,0-.071.22l.36.349a.127.127,0,0,1,.037.115l-.083.5a.129.129,0,0,0,.187.136l.443-.235a.126.126,0,0,1,.121,0l.444.232a.129.129,0,0,0,.187-.136l-.085-.5a.126.126,0,0,1,.038-.115l.357-.352A.13.13,0,0,0,3419.037,2417.972Z" transform="translate(-3244.959 -2317.613)" fill="#fff"/>
          <path id="패스_34890" data-name="패스 34890" d="M850.58,2866.084l-.5-.073a.128.128,0,0,1-.1-.07l-.223-.451a.129.129,0,0,0-.232,0l-.221.451a.132.132,0,0,1-.1.072l-.5.073a.131.131,0,0,0-.072.222l.36.349a.128.128,0,0,1,.037.114l-.084.5a.129.129,0,0,0,.188.134l.444-.234a.13.13,0,0,1,.121,0l.444.233a.129.129,0,0,0,.187-.137l-.086-.495a.129.129,0,0,1,.037-.115l.359-.353A.128.128,0,0,0,850.58,2866.084Z" transform="translate(-844.505 -2736.413)" fill="#fff"/>
          <path id="패스_34891" data-name="패스 34891" d="M4025.287,2882.559l-.085-.5a.13.13,0,0,1,.038-.115l.359-.351a.129.129,0,0,0-.073-.22l-.494-.072a.127.127,0,0,1-.1-.07l-.223-.45a.129.129,0,0,0-.232,0l-.22.452a.134.134,0,0,1-.1.069l-.494.074a.129.129,0,0,0-.075.22l.363.352a.13.13,0,0,1,.036.113l-.083.5a.13.13,0,0,0,.188.137l.442-.236a.137.137,0,0,1,.121,0l.444.235A.13.13,0,0,0,4025.287,2882.559Z" transform="translate(-3811.779 -2750.708)" fill="#fff"/>
          <path id="패스_34892" data-name="패스 34892" d="M1912.161,3020.089l-.5-.073a.131.131,0,0,1-.1-.07l-.223-.451a.129.129,0,0,0-.231,0l-.221.453a.132.132,0,0,1-.1.071l-.5.074a.129.129,0,0,0-.071.22l.36.351a.133.133,0,0,1,.037.114l-.084.5a.129.129,0,0,0,.187.136l.444-.236a.138.138,0,0,1,.119,0l.445.235a.13.13,0,0,0,.187-.136l-.086-.5a.136.136,0,0,1,.037-.116l.358-.351A.127.127,0,0,0,1912.161,3020.089Z" transform="translate(-1836.649 -2880.344)" fill="#fff"/>
          <path id="패스_34893" data-name="패스 34893" d="M1657.475,2130.38l-.5-.072a.128.128,0,0,1-.1-.07l-.223-.451a.129.129,0,0,0-.232,0l-.221.449a.13.13,0,0,1-.1.072l-.5.073a.129.129,0,0,0-.072.22l.36.351a.128.128,0,0,1,.037.113l-.085.5a.129.129,0,0,0,.187.134l.444-.234a.13.13,0,0,1,.12,0l.444.234a.129.129,0,0,0,.187-.136l-.086-.5a.133.133,0,0,1,.037-.115l.359-.351A.129.129,0,0,0,1657.475,2130.38Z" transform="translate(-1598.622 -2048.832)" fill="#fff"/>
          <path id="패스_34894" data-name="패스 34894" d="M3826.313,2427.176l-.5-.071a.124.124,0,0,1-.1-.069l-.224-.451a.13.13,0,0,0-.232,0l-.222.451a.124.124,0,0,1-.1.07l-.5.074a.13.13,0,0,0-.071.22l.362.351a.119.119,0,0,1,.034.114l-.082.5a.129.129,0,0,0,.188.136l.443-.235a.131.131,0,0,1,.12,0l.445.233a.129.129,0,0,0,.187-.136l-.085-.5a.125.125,0,0,1,.036-.115l.357-.353A.129.129,0,0,0,3826.313,2427.176Z" transform="translate(-3625.598 -2326.218)" fill="#fff"/>
          <path id="패스_34895" data-name="패스 34895" d="M2551.8,3833.38l-.5-.071a.119.119,0,0,1-.1-.069l-.223-.45a.128.128,0,0,0-.231,0l-.222.453a.141.141,0,0,1-.1.07l-.5.073a.131.131,0,0,0-.072.222l.363.35a.129.129,0,0,1,.036.113l-.083.5a.129.129,0,0,0,.187.136l.444-.234a.121.121,0,0,1,.12,0l.444.231a.129.129,0,0,0,.187-.135l-.086-.5a.135.135,0,0,1,.037-.115l.359-.351A.131.131,0,0,0,2551.8,3833.38Z" transform="translate(-2434.448 -3640.443)" fill="#fff"/>
          <path id="패스_34896" data-name="패스 34896" d="M2113.043,3998.317l-.5-.071a.119.119,0,0,1-.1-.072l-.223-.448a.128.128,0,0,0-.231,0l-.222.449a.128.128,0,0,1-.1.071l-.5.074a.129.129,0,0,0-.07.221l.359.351a.133.133,0,0,1,.038.113l-.084.5a.128.128,0,0,0,.187.134l.444-.233a.126.126,0,0,1,.12,0l.445.231a.129.129,0,0,0,.188-.136l-.086-.5a.127.127,0,0,1,.038-.113l.359-.351A.131.131,0,0,0,2113.043,3998.317Z" transform="translate(-2024.392 -3794.591)" fill="#fff"/>
          <path id="패스_34897" data-name="패스 34897" d="M3144.556,3845.67l-.5-.072a.126.126,0,0,1-.1-.069l-.222-.451a.128.128,0,0,0-.231,0l-.221.45a.146.146,0,0,1-.1.072l-.5.071a.13.13,0,0,0-.072.221l.36.351a.135.135,0,0,1,.038.115l-.083.5a.128.128,0,0,0,.187.135l.444-.235a.132.132,0,0,1,.12,0l.444.234a.129.129,0,0,0,.187-.138l-.086-.494a.13.13,0,0,1,.037-.115l.358-.353A.128.128,0,0,0,3144.556,3845.67Z" transform="translate(-2988.434 -3651.926)" fill="#fff"/>
          <path id="패스_34898" data-name="패스 34898" d="M2113.044,3496.145l-.5-.071a.132.132,0,0,1-.1-.07l-.222-.451a.129.129,0,0,0-.231,0l-.221.451a.127.127,0,0,1-.1.071l-.5.074a.129.129,0,0,0-.071.22l.36.35a.138.138,0,0,1,.038.116l-.085.5a.131.131,0,0,0,.188.136l.444-.236a.131.131,0,0,1,.118,0l.445.235a.129.129,0,0,0,.188-.137l-.086-.5a.141.141,0,0,1,.038-.115l.359-.352A.13.13,0,0,0,2113.044,3496.145Z" transform="translate(-2024.392 -3325.265)" fill="#fff"/>
          <path id="패스_34899" data-name="패스 34899" d="M2780.762,3983.021l-.5-.069a.135.135,0,0,1-.1-.07l-.223-.451a.13.13,0,0,0-.232,0l-.221.451a.133.133,0,0,1-.1.072l-.5.072a.129.129,0,0,0-.072.22l.359.351a.132.132,0,0,1,.039.115l-.084.5a.129.129,0,0,0,.186.137l.444-.234a.121.121,0,0,1,.121,0l.445.231a.128.128,0,0,0,.186-.135l-.085-.5a.129.129,0,0,1,.035-.113l.359-.351A.132.132,0,0,0,2780.762,3983.021Z" transform="translate(-2648.435 -3780.296)" fill="#fff"/>
          <path id="패스_34900" data-name="패스 34900" d="M3324.012,1430.663l-.5-.072a.126.126,0,0,1-.1-.071l-.223-.451a.128.128,0,0,0-.23,0l-.222.452a.134.134,0,0,1-.1.07l-.5.073a.13.13,0,0,0-.072.221l.362.35a.138.138,0,0,1,.037.115l-.085.5a.129.129,0,0,0,.188.136l.445-.234a.124.124,0,0,1,.118,0l.445.233a.129.129,0,0,0,.188-.136l-.085-.5a.132.132,0,0,1,.037-.115l.358-.351A.129.129,0,0,0,3324.012,1430.663Z" transform="translate(-3156.15 -1394.884)" fill="#fff"/>
          <path id="패스_34901" data-name="패스 34901" d="M1599.746,3309.158l-.5-.07a.129.129,0,0,1-.1-.071l-.223-.45a.128.128,0,0,0-.231,0l-.221.452a.137.137,0,0,1-.1.071l-.5.073a.128.128,0,0,0-.071.219l.359.351a.126.126,0,0,1,.037.113l-.085.5a.131.131,0,0,0,.188.137l.444-.236a.128.128,0,0,1,.12,0l.445.233a.129.129,0,0,0,.187-.137l-.086-.5a.129.129,0,0,1,.037-.114l.359-.352A.13.13,0,0,0,1599.746,3309.158Z" transform="translate(-1544.669 -3150.509)" fill="#fff"/>
          <path id="패스_34902" data-name="패스 34902" d="M2016.212,947.917a.128.128,0,0,1,.037.114l-.084.5a.129.129,0,0,0,.187.136l.444-.235a.128.128,0,0,1,.12,0l.445.234a.129.129,0,0,0,.186-.137l-.085-.5a.126.126,0,0,1,.037-.114l.359-.352a.13.13,0,0,0-.073-.22l-.495-.072a.132.132,0,0,1-.1-.071l-.223-.45a.129.129,0,0,0-.231,0l-.221.451a.128.128,0,0,1-.1.071l-.5.073a.129.129,0,0,0-.07.22Z" transform="translate(-1935.366 -943.178)" fill="#fff"/>
          <path id="패스_34903" data-name="패스 34903" d="M2746.852,894.413a.129.129,0,0,1,.037.115l-.083.5a.129.129,0,0,0,.187.136l.444-.234a.127.127,0,0,1,.119,0l.445.234a.129.129,0,0,0,.187-.136l-.085-.5a.126.126,0,0,1,.037-.115l.358-.352a.129.129,0,0,0-.072-.221l-.5-.071a.131.131,0,0,1-.1-.071l-.223-.451a.128.128,0,0,0-.23,0l-.223.451a.126.126,0,0,1-.1.071l-.5.073a.129.129,0,0,0-.071.221Z" transform="translate(-2618.214 -893.175)" fill="#fff"/>
          <path id="패스_34904" data-name="패스 34904" d="M1761.165,1446.53a.133.133,0,0,1,.038.115l-.085.5a.13.13,0,0,0,.188.136l.443-.235a.132.132,0,0,1,.12,0l.445.235a.129.129,0,0,0,.187-.137l-.086-.495a.132.132,0,0,1,.037-.115l.359-.351a.13.13,0,0,0-.073-.221l-.5-.072a.128.128,0,0,1-.1-.071l-.223-.451a.129.129,0,0,0-.232,0l-.221.452a.13.13,0,0,1-.1.07l-.5.073a.129.129,0,0,0-.071.22Z" transform="translate(-1697.001 -1409.177)" fill="#fff"/>
          <path id="패스_34905" data-name="패스 34905" d="M2970.2,1298.338a.125.125,0,0,1,.038.114l-.085.5a.13.13,0,0,0,.188.136l.444-.234a.13.13,0,0,1,.121,0l.444.233a.129.129,0,0,0,.188-.137l-.086-.5a.131.131,0,0,1,.038-.114l.359-.351a.13.13,0,0,0-.072-.221l-.5-.071a.129.129,0,0,1-.1-.071l-.224-.45a.128.128,0,0,0-.23,0l-.221.451a.128.128,0,0,1-.1.071l-.5.073a.129.129,0,0,0-.072.22Z" transform="translate(-2826.958 -1270.678)" fill="#fff"/>
          <path id="패스_34906" data-name="패스 34906" d="M2667.112,1523.288l.326.316.034.033a.135.135,0,0,1,.038.115l-.085.5a.129.129,0,0,0,.188.136l.443-.235a.127.127,0,0,1,.12,0l.446.233a.127.127,0,0,0,.185-.136l-.085-.5a.129.129,0,0,1,.038-.115l.358-.351a.129.129,0,0,0-.071-.221l-.5-.072a.129.129,0,0,1-.1-.07l-.223-.45a.129.129,0,0,0-.231,0l-.222.452a.129.129,0,0,1-.1.07l-.281.041-.215.032A.13.13,0,0,0,2667.112,1523.288Z" transform="translate(-2544.026 -1481.241)" fill="#fff"/>
          <path id="패스_34907" data-name="패스 34907" d="M3592.115,1576.6l-.235-1.362a.354.354,0,0,1,.1-.315l.985-.965a.356.356,0,0,0-.2-.606l-1.365-.2a.353.353,0,0,1-.267-.193l-.612-1.239a.355.355,0,0,0-.637,0l-.608,1.24a.354.354,0,0,1-.266.2l-1.363.2a.355.355,0,0,0-.2.607l.988.963a.357.357,0,0,1,.1.315l-.231,1.362a.355.355,0,0,0,.516.373l1.219-.645a.354.354,0,0,1,.331,0l1.221.641A.354.354,0,0,0,3592.115,1576.6Z" transform="translate(-3404.107 -1527.157)" fill="#fff"/>
          <path id="패스_34908" data-name="패스 34908" d="M1375.169,1273.782a.355.355,0,0,1,.1.314l-.231,1.362a.354.354,0,0,0,.515.374l1.22-.645a.353.353,0,0,1,.329,0l1.222.641a.354.354,0,0,0,.513-.375l-.235-1.363a.354.354,0,0,1,.1-.314l.986-.967a.356.356,0,0,0-.2-.605l-1.365-.2a.354.354,0,0,1-.267-.194l-.613-1.238a.354.354,0,0,0-.636,0l-.608,1.24a.354.354,0,0,1-.267.194l-1.364.2a.356.356,0,0,0-.2.606Z" transform="translate(-1335.602 -1245.705)" fill="#fff"/>
          <path id="패스_34909" data-name="패스 34909" d="M3829.76,3241.585l-1.365-.2a.365.365,0,0,1-.267-.194l-.611-1.239a.355.355,0,0,0-.637,0l-.609,1.238a.357.357,0,0,1-.265.2l-1.364.2a.356.356,0,0,0-.2.607l.989.963a.358.358,0,0,1,.1.314l-.231,1.361a.355.355,0,0,0,.515.375l1.219-.646a.351.351,0,0,1,.33,0l1.223.641a.355.355,0,0,0,.514-.376l-.235-1.361a.348.348,0,0,1,.1-.314l.987-.967A.356.356,0,0,0,3829.76,3241.585Z" transform="translate(-3625.597 -3086.268)" fill="#fff"/>
          <path id="패스_34910" data-name="패스 34910" d="M2553.834,1079.048a.359.359,0,0,1,.1.315l-.231,1.362a.355.355,0,0,0,.515.374l1.22-.645a.348.348,0,0,1,.329,0l1.22.641a.355.355,0,0,0,.515-.375l-.236-1.362a.356.356,0,0,1,.1-.315l.986-.966a.356.356,0,0,0-.2-.606l-1.364-.2a.36.36,0,0,1-.27-.194l-.611-1.238a.355.355,0,0,0-.637,0l-.607,1.24a.355.355,0,0,1-.267.194l-1.364.2a.355.355,0,0,0-.195.606Z" transform="translate(-2437.17 -1063.709)" fill="#fff"/>
          <path id="패스_34911" data-name="패스 34911" d="M3122.883,916.541l-1.364-.2a.353.353,0,0,1-.267-.194l-.613-1.238a.354.354,0,0,0-.635,0l-.609,1.24a.349.349,0,0,1-.266.195l-1.364.2a.355.355,0,0,0-.195.606l.989.963a.357.357,0,0,1,.1.315l-.231,1.362a.355.355,0,0,0,.516.373l1.219-.645a.354.354,0,0,1,.329,0l1.222.641a.354.354,0,0,0,.513-.375l-.235-1.362a.353.353,0,0,1,.1-.315l.986-.966A.355.355,0,0,0,3122.883,916.541Z" transform="translate(-2964.955 -913.305)" fill="#fff"/>
          <path id="패스_34912" data-name="패스 34912" d="M1242.911,3223.348l-1.364-.2a.356.356,0,0,1-.267-.194l-.612-1.239a.355.355,0,0,0-.636,0l-.608,1.24a.353.353,0,0,1-.266.194l-1.365.2a.356.356,0,0,0-.2.607l.988.964a.353.353,0,0,1,.1.314l-.23,1.364a.355.355,0,0,0,.515.373l1.219-.644a.345.345,0,0,1,.33,0l1.221.639a.355.355,0,0,0,.515-.375l-.236-1.362a.352.352,0,0,1,.1-.313l.985-.967A.355.355,0,0,0,1242.911,3223.348Z" transform="translate(-1207.952 -3069.224)" fill="#fff"/>
          <path id="패스_34913" data-name="패스 34913" d="M1762.739,3719.6l-.5-.073a.126.126,0,0,1-.1-.07l-.222-.451a.13.13,0,0,0-.232,0l-.221.453a.131.131,0,0,1-.1.069l-.5.073a.129.129,0,0,0-.072.22l.359.351a.13.13,0,0,1,.037.116l-.083.495a.129.129,0,0,0,.187.135l.443-.233a.121.121,0,0,1,.12,0l.446.231a.129.129,0,0,0,.187-.136l-.087-.493a.134.134,0,0,1,.038-.116l.359-.351A.13.13,0,0,0,1762.739,3719.6Z" transform="translate(-1697.001 -3534.105)" fill="#fff"/>
          <path id="패스_34914" data-name="패스 34914" d="M2418.791,3293.865l-.5-.071a.131.131,0,0,1-.1-.071l-.222-.451a.13.13,0,0,0-.233,0l-.22.45a.13.13,0,0,1-.1.072l-.5.073a.13.13,0,0,0-.07.221l.361.352a.13.13,0,0,1,.037.113l-.085.5a.129.129,0,0,0,.188.135l.446-.236a.127.127,0,0,1,.118,0l.446.233a.129.129,0,0,0,.187-.136l-.084-.5a.122.122,0,0,1,.036-.115l.358-.35A.13.13,0,0,0,2418.791,3293.865Z" transform="translate(-2310.14 -3136.215)" fill="#fff"/>
        </g>
        <g id="새벽세차" transform="translate(122.758 111.461)">
          <g id="그룹_422748" data-name="그룹 422748" transform="translate(-96.923 -96.923)" clip-path="url(#clip-path-6)">
            <g id="그룹_422747" data-name="그룹 422747" clip-path="url(#clip-path-6)">
              <g id="그룹_422726" data-name="그룹 422726" transform="translate(56.409 164.672)" opacity="0.2">
                <g id="그룹_422725" data-name="그룹 422725" clip-path="url(#clip-path-8)">
                  <path id="패스_840156" data-name="패스 840156" d="M143.732,346.875c0,3.925-6.106,7.075-13.666,7.075S116.4,350.8,116.4,346.875s6.106-7.075,13.666-7.075,13.666,3.15,13.666,7.075" transform="translate(-116.4 -339.8)" fill="#222"/>
                </g>
              </g>
              <g id="그룹_422728" data-name="그룹 422728" transform="translate(116.016 144.124)" opacity="0.2">
                <g id="그룹_422727" data-name="그룹 422727" clip-path="url(#clip-path-9)">
                  <path id="패스_840157" data-name="패스 840157" d="M267.847,304.475c0,3.925-6.349,7.075-14.248,7.075s-14.2-3.2-14.2-7.075,6.349-7.075,14.248-7.075,14.248,3.15,14.248,7.075" transform="translate(-239.4 -297.4)" fill="#222"/>
                </g>
              </g>
              <path id="패스_840158" data-name="패스 840158" d="M260.183,147.523l-6.251-7.705h-.1l-.921.388,1.26-2.714-7.366-4.991c-1.163,3.538.1,7.754-.436,7.124l-1.89-.485a6.2,6.2,0,0,1-2.568-1.551l-1.26-1.309H240.6a1.018,1.018,0,0,1,.339.727c0,.824-1.26,1.5-2.859,1.6H237.6l1.454,14.635,1.648,16.719h.049a10.366,10.366,0,0,0,7.705,3.15c3.2,0,6.785-1.6,8.335-3.974h.145a23.347,23.347,0,0,0-.339-4.41v-.1l1.115.1a4.895,4.895,0,0,0,4.895-4.895v-5.476a10.855,10.855,0,0,0-2.423-6.833m-5.04,11.1a3.1,3.1,0,0,1-4.071,1.7h-.048l-6.3-7.8,5.282-1.745,4.7,4.7a3.1,3.1,0,0,1,.436,3.1" transform="translate(-122.456 -68.289)" fill="#fff"/>
              <path id="패스_840159" data-name="패스 840159" d="M262.719,178.051a3.1,3.1,0,0,1-4.071,1.7H258.6l-6.3-7.8,5.282-1.745,4.7,4.7a3.1,3.1,0,0,1,.436,3.1" transform="translate(-130.032 -87.719)" fill="#fff"/>
              <path id="패스_840160" data-name="패스 840160" d="M276.125,183.225l-3.78-3.78-.145-.145.145.145.194.194" transform="translate(-140.288 -92.409)" fill="none" stroke="#222" stroke-linecap="round" stroke-linejoin="round" stroke-width="1.212"/>
              <line id="선_126299" data-name="선 126299" x1="0.048" y1="0.048" transform="translate(132.251 87.23)" fill="none" stroke="#222" stroke-linecap="round" stroke-linejoin="round" stroke-width="1.212"/>
              <line id="선_126300" data-name="선 126300" x1="0.145" y1="0.194" transform="translate(128.568 92.077)" fill="none" stroke="#222" stroke-linecap="round" stroke-linejoin="round" stroke-width="1.212"/>
              <path id="패스_840161" data-name="패스 840161" d="M227.414,121.268a1.017,1.017,0,0,1,.339.727c0,.824-1.26,1.5-2.859,1.6h-.388l-6.155-4.313-3.2-4.362a22.612,22.612,0,0,1-2.762-6.978,10.224,10.224,0,0,1-.291-2.278c0-1.308.242-2.035,1.212-2.326a1.551,1.551,0,0,1,1.405.291,2.568,2.568,0,0,1,.872,1.163c.339.921.775,1.842,1.163,2.665a36.78,36.78,0,0,0,6.106,8.723l4.652,4.992" transform="translate(-109.313 -53.228)" fill="#fff"/>
              <path id="패스_840162" data-name="패스 840162" d="M257.04,242.894l-.339,1.115a3.247,3.247,0,0,1-2.665,1.26c-1.7,0-3.635-1.308-3.635-2.617h-.1c-.049.242.194.485.048.678a3.247,3.247,0,0,1-2.665,1.26,3.393,3.393,0,0,1-2.375-.921h0a2.036,2.036,0,0,1-.63-1.454L239.4,205.433l2.229,1.6c1.7,1.89,4.458,1.842,7.657,1.842s6.785-1.6,8.335-3.974h.145c.388,9.256.824,27.962-.775,38.042" transform="translate(-123.384 -105.603)" fill="#3673ee"/>
              <path id="패스_840163" data-name="패스 840163" d="M256.734,287.732a1.975,1.975,0,0,1-2.132,1.6,1.9,1.9,0,0,1-2.084-1.405,1.114,1.114,0,0,1-.049-.291l-.969-3.3a3.393,3.393,0,0,0,2.375.921A3.246,3.246,0,0,0,256.54,284h.145Z" transform="translate(-129.62 -146.37)" fill="#fff"/>
              <path id="패스_840164" data-name="패스 840164" d="M272.849,292a1.406,1.406,0,0,1-.049.339" transform="translate(-140.597 -150.493)" fill="none" stroke="#222" stroke-linecap="round" stroke-linejoin="round" stroke-width="1.212"/>
              <line id="선_126301" data-name="선 126301" y1="0.533" transform="translate(127.114 141.362)" fill="none" stroke="#222" stroke-linecap="round" stroke-linejoin="round" stroke-width="1.212"/>
              <path id="패스_840165" data-name="패스 840165" d="M268.348,284.87l-.678,2.084-.436,1.405h0a2.253,2.253,0,0,1-2.326,1.5c-1.163,0-2.52-1.018-2.52-2.035h-.194V284.24H262c.145-.242.436.388.485.1h.1c0,1.309,1.406,1.793,3.1,1.793a3.247,3.247,0,0,0,2.665-1.26" transform="translate(-135.031 -146.464)" fill="#fff"/>
              <path id="패스_840166" data-name="패스 840166" d="M275.439,283.3a1.939,1.939,0,0,1-.339,1.115" transform="translate(-141.783 -146.009)" fill="none" stroke="#222" stroke-linecap="round" stroke-linejoin="round" stroke-width="1.212"/>
              <path id="패스_840167" data-name="패스 840167" d="M261.069,297.66l-.145.533-1.26,3.974a2.617,2.617,0,0,1-3.1,1.745l-8.432-2.132a.824.824,0,0,1-.63-.824,1.938,1.938,0,0,1,.485-1.26,7.362,7.362,0,0,0,1.26-2.084,7.465,7.465,0,0,0,.533-2.375,15.755,15.755,0,0,1,.533-3.441l.194-.63a2.234,2.234,0,0,0,4.216-.194h.194a2.5,2.5,0,0,0,2.52,2.035,2.176,2.176,0,0,0,2.326-1.5h0l.436-1.405h.145l.388,1.066a10.9,10.9,0,0,1,.339,6.542" transform="translate(-127.558 -149.514)" fill="#262626"/>
              <path id="패스_840168" data-name="패스 840168" d="M237.425,139.7a2.859,2.859,0,0,1-1.212,2.132c-1.163.775-3.489.582-4.313-.485" transform="translate(-119.518 -72)" fill="none" stroke="#222" stroke-linecap="round" stroke-linejoin="round" stroke-width="1.212"/>
              <path id="패스_840169" data-name="패스 840169" d="M253.7,224.9l2.52,4.41-.485-3.586Z" transform="translate(-130.754 -115.91)" fill="#222"/>
              <g id="그룹_422730" data-name="그룹 422730" transform="translate(114.756 83.499)" opacity="0.15">
                <g id="그룹_422729" data-name="그룹 422729" clip-path="url(#clip-path-10)">
                  <path id="패스_840170" data-name="패스 840170" d="M255.412,227.207l-2.665,1.26s.921-16.671.436-31.354c-.194-6.494-10.032-6.93-15.072-11.049L236.9,173.754l5.767-1.454,10.274,11.1v.1l3.3,1.89s1.987,31.451-.775,41.871" transform="translate(-236.852 -172.3)" fill="#222"/>
                </g>
              </g>
              <g id="그룹_422732" data-name="그룹 422732" transform="translate(130.555 138.502)" opacity="0.1">
                <g id="그룹_422731" data-name="그룹 422731" clip-path="url(#clip-path-11)">
                  <path id="패스_840171" data-name="패스 840171" d="M269.545,286.818l-.145,3.877,1.551-1.26,1.211-3.635Z" transform="translate(-269.4 -285.8)" fill="#222"/>
                </g>
              </g>
              <path id="패스_840172" data-name="패스 840172" d="M276.6,182.5l1.793.339a.824.824,0,0,1,.678,1.018l-.242,1.115Z" transform="translate(-142.556 -94.058)" fill="#222"/>
              <g id="그룹_422734" data-name="그룹 422734" transform="translate(127.55 81.657)" opacity="0.15">
                <g id="그룹_422733" data-name="그룹 422733" clip-path="url(#clip-path-12)">
                  <path id="패스_840173" data-name="패스 840173" d="M265.575,168.5l6.542,7.9-2.568-.727-6.348-6.3Z" transform="translate(-263.2 -168.5)" fill="#222"/>
                </g>
              </g>
              <g id="그룹_422736" data-name="그룹 422736" transform="translate(122.413 82.723)" opacity="0.15">
                <g id="그룹_422735" data-name="그룹 422735" clip-path="url(#clip-path-13)">
                  <path id="패스_840174" data-name="패스 840174" d="M252.6,172.687l8.481,1.212-3.3-3.2Z" transform="translate(-252.6 -170.7)" fill="#222"/>
                </g>
              </g>
              <g id="그룹_422738" data-name="그룹 422738" transform="translate(131.912 89.46)" opacity="0.15">
                <g id="그룹_422737" data-name="그룹 422737" clip-path="url(#clip-path-14)">
                  <path id="패스_840175" data-name="패스 840175" d="M279.078,188.089a3.489,3.489,0,1,1-3.489-3.489,3.489,3.489,0,0,1,3.489,3.489" transform="translate(-272.148 -184.6)" fill="#222"/>
                </g>
              </g>
              <path id="패스_840176" data-name="패스 840176" d="M263.232,148.169a4.137,4.137,0,0,1-4.943,2.956A4.216,4.216,0,0,1,254.8,147.2" transform="translate(-131.321 -75.865)" fill="none" stroke="#222" stroke-linecap="round" stroke-miterlimit="10" stroke-width="1.212"/>
              <path id="패스_840177" data-name="패스 840177" d="M268.414,147.7l6.252,7.705a10.857,10.857,0,0,1,2.423,6.833v5.573a4.895,4.895,0,0,1-4.895,4.895,5.476,5.476,0,0,1-3.877-1.6L265.7,168.49" transform="translate(-136.938 -76.123)" fill="none" stroke="#222" stroke-linecap="round" stroke-linejoin="round" stroke-width="1.212"/>
              <path id="패스_840178" data-name="패스 840178" d="M265.4,184.385a3.1,3.1,0,0,0,3.3-5.185l3.925,3.925" transform="translate(-136.784 -92.357)" fill="none" stroke="#222" stroke-linecap="round" stroke-linejoin="round" stroke-width="1.212"/>
              <line id="선_126302" data-name="선 126302" x2="6.445" y2="7.996" transform="translate(122.268 84.274)" fill="none" stroke="#222" stroke-linecap="round" stroke-linejoin="round" stroke-width="1.212"/>
              <line id="선_126303" data-name="선 126303" x2="4.749" y2="4.749" transform="translate(127.55 82.53)" fill="none" stroke="#222" stroke-linecap="round" stroke-linejoin="round" stroke-width="1.212"/>
              <path id="패스_840179" data-name="패스 840179" d="M222.471,124.909l-7.318-9.789a22.616,22.616,0,0,1-2.762-6.978,10.415,10.415,0,0,1-.291-2.278c0-1.308.242-2.035,1.211-2.326a1.551,1.551,0,0,1,1.405.291,2.568,2.568,0,0,1,.872,1.212c.339.921.775,1.842,1.163,2.665a36.826,36.826,0,0,0,6.106,8.723l5.912,6.3a6.154,6.154,0,0,0,2.568,1.551l1.6.485.436-1.648" transform="translate(-109.314 -53.331)" fill="none" stroke="#222" stroke-linecap="round" stroke-linejoin="round" stroke-width="1.212"/>
              <line id="선_126304" data-name="선 126304" y1="14.199" x2="0.582" transform="translate(115.968 85.05)" fill="none" stroke="#222" stroke-linecap="round" stroke-linejoin="round" stroke-width="1.212"/>
              <line id="선_126305" data-name="선 126305" x1="5.282" y1="37.17" transform="translate(115.968 99.394)" fill="none" stroke="#222" stroke-linecap="round" stroke-linejoin="round" stroke-width="1.212"/>
              <path id="패스_840180" data-name="패스 840180" d="M276.236,199.2s1.841,26.411-.436,40.756" transform="translate(-142.144 -102.665)" fill="none" stroke="#222" stroke-linecap="round" stroke-linejoin="round" stroke-width="1.212"/>
              <path id="패스_840181" data-name="패스 840181" d="M255.528,282.042c0,1.309-1.018,2.132-2.714,2.132A2.446,2.446,0,0,1,250.1,281.8" transform="translate(-128.898 -145.236)" fill="none" stroke="#222" stroke-linecap="round" stroke-linejoin="round" stroke-width="1.212"/>
              <path id="패스_840182" data-name="패스 840182" d="M256.734,288.353a2.2,2.2,0,0,1-4.265,0L251.5,285.3" transform="translate(-129.62 -147.04)" fill="none" stroke="#222" stroke-linecap="round" stroke-linejoin="round" stroke-width="1.212"/>
              <path id="패스_840183" data-name="패스 840183" d="M267.695,291.794a2.161,2.161,0,0,1-2.375,1.842,2.457,2.457,0,0,1-2.52-2.035" transform="translate(-135.444 -150.287)" fill="none" stroke="#222" stroke-linecap="round" stroke-linejoin="round" stroke-width="1.212"/>
              <path id="패스_840184" data-name="패스 840184" d="M257.8,252.608l-.969-24.57A4.071,4.071,0,0,0,254.5,224.5" transform="translate(-131.166 -115.704)" fill="none" stroke="#222" stroke-linecap="round" stroke-linejoin="round" stroke-width="1.212"/>
              <line id="선_126306" data-name="선 126306" y1="4.119" transform="translate(127.114 137.776)" fill="none" stroke="#222" stroke-linecap="round" stroke-linejoin="round" stroke-width="1.212"/>
              <path id="패스_840185" data-name="패스 840185" d="M267.028,287.491l1.454-4.6c0,1.308-1.357,2.375-3.053,2.375s-3.829-1.454-3.829-2.762" transform="translate(-134.825 -145.597)" fill="none" stroke="#222" stroke-linecap="round" stroke-linejoin="round" stroke-width="1.212"/>
              <path id="패스_840186" data-name="패스 840186" d="M250.4,291.066l-.194.63a15.839,15.839,0,0,0-.533,3.441,7.416,7.416,0,0,1-1.793,4.459,1.937,1.937,0,0,0-.485,1.26.824.824,0,0,0,.63.824l8.432,2.132a2.617,2.617,0,0,0,3.1-1.745l1.26-3.974.145-.533a10.9,10.9,0,0,0-.339-6.542L260.29,290" transform="translate(-127.506 -149.462)" fill="none" stroke="#222" stroke-linecap="round" stroke-linejoin="round" stroke-width="1.212"/>
              <path id="패스_840187" data-name="패스 840187" d="M215.6,113.351a1.5,1.5,0,0,1-1.357-.872L197.329,78.265a1.517,1.517,0,1,1,2.714-1.357l16.913,34.262a1.5,1.5,0,0,1-1.357,2.181" transform="translate(-101.618 -39.205)" fill="#9faeb7"/>
              <path id="패스_840188" data-name="패스 840188" d="M215.6,113.351a1.5,1.5,0,0,1-1.357-.872L197.329,78.265a1.517,1.517,0,1,1,2.714-1.357l16.913,34.262a1.5,1.5,0,0,1-1.357,2.181Z" transform="translate(-101.618 -39.205)" fill="none" stroke="#222" stroke-linecap="round" stroke-linejoin="round" stroke-width="1.212"/>
              <path id="패스_840189" data-name="패스 840189" d="M239.4,204.2c1.745,2.568,3.925,4.119,8,4.119s8.093-1.163,9.983-3.247" transform="translate(-123.384 -105.242)" fill="none" stroke="#222" stroke-linecap="round" stroke-linejoin="round" stroke-width="1.212"/>
              <line id="선_126307" data-name="선 126307" x2="1.066" y2="3.053" transform="translate(131.476 80.543)" fill="#222"/>
              <line id="선_126308" data-name="선 126308" x2="1.066" y2="3.053" transform="translate(131.476 80.543)" fill="none" stroke="#222" stroke-linecap="round" stroke-miterlimit="10" stroke-width="1.212"/>
              <path id="패스_840190" data-name="패스 840190" d="M271.726,128.187l-2.326-.921,2.859-7.366,4.749,1.842-1.938,4.992a2.617,2.617,0,0,1-3.344,1.5" transform="translate(-138.845 -61.795)" fill="#222"/>
              <path id="패스_840191" data-name="패스 840191" d="M265.139,111.714a4.265,4.265,0,1,1-2.423-5.525,4.265,4.265,0,0,1,2.423,5.525" transform="translate(-132.403 -54.578)" fill="#222"/>
              <path id="패스_840192" data-name="패스 840192" d="M276.729,118.353a3.974,3.974,0,1,1-2.278-5.137,3.974,3.974,0,0,1,2.278,5.137" transform="translate(-138.663 -58.212)" fill="#222"/>
              <path id="패스_840193" data-name="패스 840193" d="M262.037,131.4l4.216-10.9a4.507,4.507,0,0,0-8.384-3.247l-3,7.754a3.392,3.392,0,0,0,1.938,4.362l2.617,1.018" transform="translate(-131.24 -59.1)" fill="#fff"/>
              <path id="패스_840194" data-name="패스 840194" d="M262.037,131.4l4.216-10.9a4.507,4.507,0,0,0-8.384-3.247l-3,7.754a3.392,3.392,0,0,0,1.938,4.362l2.617,1.018" transform="translate(-131.24 -59.1)" fill="none" stroke="#222" stroke-linecap="round" stroke-miterlimit="10" stroke-width="1.212"/>
              <path id="패스_840195" data-name="패스 840195" d="M274.315,130.8a1.534,1.534,0,1,1-1.115,2.859" transform="translate(-140.804 -67.413)" fill="#fff"/>
              <path id="패스_840196" data-name="패스 840196" d="M274.315,130.8a1.534,1.534,0,1,1-1.115,2.859" transform="translate(-140.804 -67.413)" fill="none" stroke="#222" stroke-linecap="round" stroke-miterlimit="10" stroke-width="1.212"/>
              <rect id="사각형_318389" data-name="사각형 318389" width="7.221" height="1.716" transform="matrix(0.915, -0.404, 0.404, 0.915, 125.38, 57.454)" fill="#222"/>
              <rect id="사각형_318390" data-name="사각형 318390" width="1.696" height="5.849" transform="matrix(0.915, -0.404, 0.404, 0.915, 132.681, 56.095)" fill="#222"/>
              <path id="패스_840197" data-name="패스 840197" d="M257.723,140.542l-1.405-.533a1.405,1.405,0,0,1-.824-1.841l1.212-3.15a1.405,1.405,0,0,1,1.841-.824l1.405.533a1.405,1.405,0,0,1,.824,1.842l-1.211,3.15a1.405,1.405,0,0,1-1.842.824" transform="translate(-131.626 -69.11)" fill="#222"/>
              <line id="선_126309" data-name="선 126309" x2="1.26" y2="0.485" transform="translate(126.145 66.489)" fill="none" stroke="#fff" stroke-linecap="round" stroke-miterlimit="10" stroke-width="1.454"/>
              <path id="패스_840198" data-name="패스 840198" d="M195.419,69.815l-23.795,2.617a4.8,4.8,0,0,1-1.066-9.547l23.795-2.617a4.8,4.8,0,0,1,1.066,9.547" transform="translate(-85.703 -31.046)" fill="#e4eff5"/>
              <path id="패스_840199" data-name="패스 840199" d="M195.419,69.815l-23.795,2.617a4.8,4.8,0,0,1-1.066-9.547l23.795-2.617a4.8,4.8,0,0,1,1.066,9.547Z" transform="translate(-85.703 -31.046)" fill="none" stroke="#222" stroke-linecap="round" stroke-linejoin="round" stroke-width="1.212"/>
              <line id="선_126310" data-name="선 126310" x1="28.98" y2="3.247" transform="translate(85.098 35.425)" fill="#00a4ff"/>
              <line id="선_126311" data-name="선 126311" x1="28.98" y2="3.247" transform="translate(85.098 35.425)" fill="none" stroke="#222" stroke-linejoin="round" stroke-width="1.212"/>
              <path id="패스_840200" data-name="패스 840200" d="M173.452,65.3s3.683,8.965,4.749,9.4l-5.476.436-3.925-9.4Z" transform="translate(-86.997 -33.655)" fill="#222"/>
              <path id="패스_840201" data-name="패스 840201" d="M218.757,106.012a54.083,54.083,0,0,1-24.909,6.978c-28.689,1.018-53.017-20.645-54.083-48.122A48.947,48.947,0,0,1,151.88,30.8a1.357,1.357,0,0,1,2.375.727c3.15,35.28,29.61,63.63,64.066,71.723a1.5,1.5,0,0,1,.436,2.762" transform="translate(-72.016 -15.631)" fill="#ffdd50"/>
              <path id="패스_840202" data-name="패스 840202" d="M218.757,106.012a54.083,54.083,0,0,1-24.909,6.978c-28.689,1.018-53.017-20.645-54.083-48.122A48.947,48.947,0,0,1,151.88,30.8a1.357,1.357,0,0,1,2.375.727c3.15,35.28,29.61,63.63,64.066,71.723a1.5,1.5,0,0,1,.436,2.762Z" transform="translate(-72.016 -15.631)" fill="none" stroke="#222" stroke-linecap="round" stroke-linejoin="round" stroke-width="1.938"/>
              <path id="패스_840203" data-name="패스 840203" d="M219.532,104.83a1.454,1.454,0,0,1-.775,1.066,54.131,54.131,0,0,1-24.909,6.978c-28.689,1.018-53.017-20.645-54.083-48.122A48.947,48.947,0,0,1,151.88,30.684a1.357,1.357,0,0,1,1.066-.485,50.206,50.206,0,0,0-7.415,28.641c1.308,28.689,26.7,50.884,56.651,49.479a56.457,56.457,0,0,0,17.349-3.538" transform="translate(-72.016 -15.564)" fill="#e0b603"/>
              <path id="패스_840204" data-name="패스 840204" d="M219.532,104.83a1.454,1.454,0,0,1-.775,1.066,54.131,54.131,0,0,1-24.909,6.978c-28.689,1.018-53.017-20.645-54.083-48.122A48.947,48.947,0,0,1,151.88,30.684a1.357,1.357,0,0,1,1.066-.485,50.206,50.206,0,0,0-7.415,28.641c1.308,28.689,26.7,50.884,56.651,49.479a56.459,56.459,0,0,0,17.349-3.489Z" transform="translate(-72.016 -15.564)" fill="none" stroke="#222" stroke-linecap="round" stroke-linejoin="round" stroke-width="1.454"/>
              <g id="그룹_422740" data-name="그룹 422740" transform="translate(92.561 84.807)" opacity="0.15">
                <g id="그룹_422739" data-name="그룹 422739" clip-path="url(#clip-path-15)">
                  <path id="패스_840205" data-name="패스 840205" d="M192.115,175l5.137,3.247s3.925,6.494,0,6.591-4.507-1.7-4.507-1.7L191,178.15Z" transform="translate(-191 -175)" fill="#222"/>
                </g>
              </g>
              <path id="패스_840206" data-name="패스 840206" d="M203.142,177s9.789,4.555,4.022,9.5l-5.864-1.6Z" transform="translate(-103.747 -91.223)" fill="#222"/>
              <path id="패스_840207" data-name="패스 840207" d="M204.8,173.69a3.361,3.361,0,0,1-3.974,2.568c-1.938-.291-3.392-1.842-3.15-3.538a3.361,3.361,0,0,1,3.974-2.568c1.938.291,3.392,1.841,3.15,3.538" transform="translate(-101.864 -87.671)" fill="#222"/>
              <path id="패스_840208" data-name="패스 840208" d="M185,174.834a3.4,3.4,0,0,1-4.846,4.458,3.392,3.392,0,0,1-6.542.63,3.392,3.392,0,0,1-5.185-2.908,3.207,3.207,0,0,1,.048-.63h-.048a3.392,3.392,0,0,1-2.326-5.912,3.392,3.392,0,0,1,2.132-5.912,3.421,3.421,0,0,1,5.04-4.216,3.392,3.392,0,0,1,6.3-.775,3.392,3.392,0,0,1,4.7,3.15h0a3.392,3.392,0,0,1,1.987,5.573,3.392,3.392,0,0,1-1.212,6.445" transform="translate(-85.028 -81.304)" fill="#e4eff5"/>
              <path id="패스_840209" data-name="패스 840209" d="M185,174.834a3.4,3.4,0,0,1-4.846,4.458,3.392,3.392,0,0,1-6.542.63,3.392,3.392,0,0,1-5.185-2.908,3.207,3.207,0,0,1,.048-.63h-.048a3.392,3.392,0,0,1-2.326-5.912,3.392,3.392,0,0,1,2.132-5.912,3.421,3.421,0,0,1,5.04-4.216,3.392,3.392,0,0,1,6.3-.775,3.392,3.392,0,0,1,4.7,3.15h0a3.392,3.392,0,0,1,1.987,5.573,3.392,3.392,0,0,1-1.212,6.445Z" transform="translate(-85.028 -81.304)" fill="none" stroke="#222" stroke-linecap="round" stroke-linejoin="round" stroke-width="1.212"/>
              <path id="패스_840210" data-name="패스 840210" d="M187.4,176.448a6.348,6.348,0,1,1-6.348-6.348,6.348,6.348,0,0,1,6.348,6.348" transform="translate(-90.038 -87.667)" fill="#fff"/>
              <path id="패스_840211" data-name="패스 840211" d="M187.4,176.448a6.348,6.348,0,1,1-6.348-6.348A6.348,6.348,0,0,1,187.4,176.448Z" transform="translate(-90.038 -87.667)" fill="none" stroke="#222" stroke-linecap="round" stroke-linejoin="round" stroke-width="1.212"/>
              <path id="패스_840212" data-name="패스 840212" d="M187.118,179.759a2.859,2.859,0,1,1-2.859-2.859,2.859,2.859,0,0,1,2.859,2.859" transform="translate(-93.491 -91.172)" fill="#c1c1c1"/>
              <path id="패스_840213" data-name="패스 840213" d="M187.118,179.759a2.859,2.859,0,1,1-2.859-2.859A2.859,2.859,0,0,1,187.118,179.759Z" transform="translate(-93.491 -91.172)" fill="none" stroke="#222" stroke-miterlimit="10" stroke-width="1.212"/>
              <g id="그룹_422742" data-name="그룹 422742" transform="translate(86.116 90.865)" opacity="0.1">
                <g id="그룹_422741" data-name="그룹 422741" clip-path="url(#clip-path-16)">
                  <path id="패스_840214" data-name="패스 840214" d="M181.919,188.213,186.668,195l-2.472,2.665-3.392-1.357-1.987-1.89H177.8l1.308-4.992.145-.775a1.454,1.454,0,0,1,2.665-.485" transform="translate(-177.752 -187.486)" fill="#111"/>
                </g>
              </g>
              <path id="패스_840215" data-name="패스 840215" d="M128.488,260.112,126.453,296.6a2.376,2.376,0,0,1-.1.727h0a3.15,3.15,0,0,1-5.912-.145h0a2.471,2.471,0,0,1-.1-.582l-.339-3.2c0,.145.145.436.1.582h0a3.247,3.247,0,0,1-6.155.049V293.6h0L110.9,259.869l-.1-.969.436.533c.242,3.053,4.313,4.8,8.82,4.8s7.8-2.181,8.384-4.992Z" transform="translate(-57.105 -133.434)" fill="#3673ee"/>
              <line id="선_126312" data-name="선 126312" x1="0.388" y1="7.851" transform="translate(53.453 105.694)" fill="#fff"/>
              <path id="패스_840216" data-name="패스 840216" d="M144.266,345.665a2.617,2.617,0,0,1-1.115,2.084h-.1l-7.8,4.895H135.2a3.3,3.3,0,0,1-1.551.388,2.938,2.938,0,0,1-3.053-2.568v-5.04a3.733,3.733,0,0,1,.485-1.89h.1l.242,1.357h0a2.229,2.229,0,0,0,2.278,1.841,2.181,2.181,0,0,0,2.326-2.035l.1-.679h.1L140.583,343h.63a2.89,2.89,0,0,1,3.053,2.714" transform="translate(-67.309 -176.778)" fill="#262626"/>
              <path id="패스_840217" data-name="패스 840217" d="M136.612,338.045l-.485,3.344-.1.678A2.181,2.181,0,0,1,133.7,344.1a2.229,2.229,0,0,1-2.278-1.841h0l-.242-1.357-.485-3a3.15,3.15,0,0,0,5.912.145" transform="translate(-67.361 -174.149)" fill="#fff"/>
              <path id="패스_840218" data-name="패스 840218" d="M123.506,331.3l-.436,4.992a2.233,2.233,0,0,1-2.375,2.035,2.326,2.326,0,0,1-2.326-1.6h0v-.339L117.4,331.4a3.247,3.247,0,0,0,6.155-.049" transform="translate(-60.506 -170.748)" fill="#fff"/>
              <path id="패스_840219" data-name="패스 840219" d="M124.816,337.2h0l.485,3h-.1a3.732,3.732,0,0,0-.485,1.89v3.925h-.242a3.3,3.3,0,0,1-1.938.63,2.911,2.911,0,0,1-3.053-2.617h0v-.388a18.85,18.85,0,0,1-.145-4.216h.048a2.326,2.326,0,0,0,2.326,1.6,2.233,2.233,0,0,0,2.375-2.036" transform="translate(-61.477 -173.788)" fill="#262626"/>
              <path id="패스_840220" data-name="패스 840220" d="M126.065,224.579l.194,2.229c-.533,2.811-4.749,5.67-9.062,5.67s-8.238-2.423-8.432-5.428h-.048l-.582-11.679h0a14.151,14.151,0,0,1-2.762-9.3v-.872a5.718,5.718,0,0,1,4.7-5.234l1.89-.339,1.405.1c-.533-2.617.194-2.471,3.586-2.181s2.665,2.52,3.247,1.454c.194-.339-.048,1.938.291,1.987l.872-.1h.145l.194.1,8.917,5.912.727.485a4.071,4.071,0,0,1-2.617,7.172h-.048l-1.793-.678h0l-1.018-.485Z" transform="translate(-54.293 -101.73)" fill="#fff"/>
              <path id="패스_840221" data-name="패스 840221" d="M167.748,191.3l-.291.872c-.872,1.163-.727,2.665-1.454,3.925l-5.815,10.565a5.379,5.379,0,0,1-6.639,2.423H153.5a4.071,4.071,0,0,0,2.665-7.172h.1l6.688-8.481a5.039,5.039,0,0,0,.969-2.084l.581-2.375c.388-1.308.63-1.163,2.229-2.181.048-.048.727.388.824.388a1.912,1.912,0,0,1,.582,1.066v.678c.291,1.26.388,1.357-.388,2.375" transform="translate(-79.112 -96.27)" fill="#fff"/>
              <path id="패스_840222" data-name="패스 840222" d="M120.4,186.17l-1.212-12.551a4.507,4.507,0,0,1,8.965-.872l.775,8.287a3.392,3.392,0,0,1-3.053,3.683" transform="translate(-61.425 -87.018)" fill="#fff"/>
              <path id="패스_840223" data-name="패스 840223" d="M120.4,186.17l-1.212-12.551a4.507,4.507,0,0,1,8.965-.872l.775,8.287a3.392,3.392,0,0,1-3.053,3.683" transform="translate(-61.425 -87.018)" fill="none" stroke="#222" stroke-linecap="round" stroke-miterlimit="10" stroke-width="1.212"/>
              <path id="패스_840224" data-name="패스 840224" d="M125.458,167.04l-10.225.969-.242-2.52a2.568,2.568,0,0,1,2.278-2.762l7.657-.727a2.568,2.568,0,0,1,.485,5.088" transform="translate(-59.26 -83.493)" fill="#222"/>
              <path id="패스_840225" data-name="패스 840225" d="M123.06,181.435l-2.181.194a4.652,4.652,0,0,1-5.04-4.168l-.339-3.586,3.877-.388a2.908,2.908,0,0,1,3.15,2.617Z" transform="translate(-59.527 -89.407)" fill="#222"/>
              <path id="패스_840226" data-name="패스 840226" d="M122.679,166.774a3.78,3.78,0,1,1-4.119-3.392,3.78,3.78,0,0,1,4.119,3.392" transform="translate(-59.34 -84.196)" fill="#222"/>
              <path id="패스_840227" data-name="패스 840227" d="M129.624,182.6a1.533,1.533,0,0,0,.291,3.053" transform="translate(-66.091 -94.11)" fill="#fff"/>
              <path id="패스_840228" data-name="패스 840228" d="M129.624,182.6a1.533,1.533,0,0,0,.291,3.053" transform="translate(-66.091 -94.11)" fill="none" stroke="#222" stroke-linecap="round" stroke-miterlimit="10" stroke-width="1.212"/>
              <g id="그룹_422744" data-name="그룹 422744" transform="translate(66.101 110.056)" opacity="0.15">
                <g id="그룹_422743" data-name="그룹 422743" clip-path="url(#clip-path-17)">
                  <path id="패스_840229" data-name="패스 840229" d="M136.4,227.155h0a8.238,8.238,0,0,1,5.282,1.26v8.045Z" transform="translate(-136.4 -227.106)" fill="#222"/>
                </g>
              </g>
              <path id="패스_840230" data-name="패스 840230" d="M124.2,281.4l2.375,2.714-.533-2.52Z" transform="translate(-64.011 -145.03)" fill="#222"/>
              <g id="그룹_422746" data-name="그룹 422746" transform="translate(51.03 91.737)" opacity="0.15">
                <g id="그룹_422745" data-name="그룹 422745" clip-path="url(#clip-path-18)">
                  <path id="패스_840231" data-name="패스 840231" d="M114.244,189.446l.291,8.529-1.018,29.61s-.533,4.071,1.648,5.864l1.308,1.648.727,23.649.63,3.3-3.3,2.859H112.79s-2.617-6.833-2.617-17.979l-2.181-26.557V210.091s-3.15-2.617-2.568-8.723,5.622-5.912,5.622-5.912l2.375-.339-.678-5.476c.048-.339,1.454-.485,1.5-.145" transform="translate(-105.327 -189.301)" fill="#222"/>
                </g>
              </g>
              <line id="선_126313" data-name="선 126313" x1="0.097" y1="0.048" transform="translate(77.053 105.646)" fill="none" stroke="#222" stroke-linecap="round" stroke-linejoin="round" stroke-width="1.212"/>
              <path id="패스_840232" data-name="패스 840232" d="M158.227,217.485,157.5,217Z" transform="translate(-81.173 -111.839)" fill="none" stroke="#222" stroke-linecap="round" stroke-linejoin="round" stroke-width="1.212"/>
              <path id="패스_840233" data-name="패스 840233" d="M137.4,226.912c1.648-.388,2.908.678,4.459,1.308" transform="translate(-70.814 -116.905)" fill="none" stroke="#222" stroke-linecap="round" stroke-linejoin="round" stroke-width="1.212"/>
              <line id="선_126314" data-name="선 126314" y1="38.091" x2="2.617" transform="translate(69.348 125.079)" fill="none" stroke="#222" stroke-linecap="round" stroke-linejoin="round" stroke-width="1.212"/>
              <line id="선_126315" data-name="선 126315" x1="3.15" y1="34.456" transform="translate(53.647 125.418)" fill="none" stroke="#222" stroke-linecap="round" stroke-linejoin="round" stroke-width="1.212"/>
              <line id="선_126316" data-name="선 126316" x1="0.388" y1="7.851" transform="translate(53.453 105.694)" fill="none" stroke="#222" stroke-linecap="round" stroke-linejoin="round" stroke-width="1.212"/>
              <path id="패스_840234" data-name="패스 840234" d="M119.585,347.1v-.388a18.852,18.852,0,0,1-.145-4.216" transform="translate(-61.528 -176.52)" fill="none" stroke="#222" stroke-linecap="round" stroke-linejoin="round" stroke-width="1.211"/>
              <path id="패스_840235" data-name="패스 840235" d="M128.728,253.1a4.7,4.7,0,0,1,.291,1.648,4.311,4.311,0,0,1-.1.872c-.582,3.15-4.458,5.573-9.062,5.573s-8.917-2.714-9.159-6.106v-.339" transform="translate(-57.053 -130.444)" fill="none" stroke="#222" stroke-linecap="round" stroke-linejoin="round" stroke-width="1.212"/>
              <path id="패스_840236" data-name="패스 840236" d="M136.348,336.7a2.89,2.89,0,0,1-3.053,2.714c-1.7,0-3.3-1.212-3.3-2.714" transform="translate(-67 -173.531)" fill="none" stroke="#222" stroke-linecap="round" stroke-linejoin="round" stroke-width="1.212"/>
              <path id="패스_840237" data-name="패스 840237" d="M123.306,331.221a3.15,3.15,0,0,1-2.956,1.842,2.988,2.988,0,0,1-3.15-2.762" transform="translate(-60.403 -170.232)" fill="none" stroke="#222" stroke-linecap="round" stroke-linejoin="round" stroke-width="1.212"/>
              <path id="패스_840238" data-name="패스 840238" d="M124.243,340.9a2.557,2.557,0,0,1-4.943.242" transform="translate(-61.486 -175.695)" fill="none" stroke="#222" stroke-linecap="round" stroke-linejoin="round" stroke-width="1.212"/>
              <path id="패스_840239" data-name="패스 840239" d="M136.8,346.5a2.181,2.181,0,0,1-2.326,2.035,2.229,2.229,0,0,1-2.278-1.842" transform="translate(-68.134 -178.581)" fill="none" stroke="#222" stroke-linecap="round" stroke-linejoin="round" stroke-width="1.212"/>
              <path id="패스_840240" data-name="패스 840240" d="M135.2,360.111a3.294,3.294,0,0,1-1.551.388,2.89,2.89,0,0,1-3.053-2.714,2.425,2.425,0,0,1,.048-.485" transform="translate(-67.31 -184.148)" fill="none" stroke="#222" stroke-linecap="round" stroke-linejoin="round" stroke-width="1.212"/>
              <path id="패스_840241" data-name="패스 840241" d="M151.7,343h.388a2.89,2.89,0,0,1,3.053,2.714,2.617,2.617,0,0,1-1.115,2.084" transform="translate(-78.184 -176.778)" fill="none" stroke="#222" stroke-linecap="round" stroke-linejoin="round" stroke-width="1.212"/>
              <path id="패스_840242" data-name="패스 840242" d="M124.692,353.287a3.248,3.248,0,0,1-1.938.63A2.911,2.911,0,0,1,119.7,351.3" transform="translate(-61.692 -181.055)" fill="none" stroke="#222" stroke-linecap="round" stroke-linejoin="round" stroke-width="1.212"/>
              <line id="선_126317" data-name="선 126317" x1="0.582" y2="4.022" transform="translate(68.67 163.896)" fill="none" stroke="#222" stroke-linecap="round" stroke-linejoin="round" stroke-width="1.212"/>
              <path id="패스_840243" data-name="패스 840243" d="M127.317,307.892l-.872-25.345A1.7,1.7,0,0,0,124.7,280.9" transform="translate(-64.269 -144.771)" fill="none" stroke="#222" stroke-linecap="round" stroke-linejoin="round" stroke-width="1.212"/>
              <line id="선_126318" data-name="선 126318" y1="4.895" x2="7.802" transform="translate(67.943 171.068)" fill="none" stroke="#222" stroke-linecap="round" stroke-linejoin="round" stroke-width="1.212"/>
              <line id="선_126319" data-name="선 126319" x1="4.41" y2="0.969" transform="translate(68.864 166.271)" fill="none" stroke="#222" stroke-linecap="round" stroke-linejoin="round" stroke-width="1.212"/>
              <path id="패스_840244" data-name="패스 840244" d="M130.6,351.127V345.99a3.732,3.732,0,0,1,.485-1.89" transform="translate(-67.309 -177.345)" fill="none" stroke="#222" stroke-linecap="round" stroke-linejoin="round" stroke-width="1.211"/>
              <line id="선_126320" data-name="선 126320" x1="0.582" y1="3.489" transform="translate(63.533 164.72)" fill="none" stroke="#222" stroke-linecap="round" stroke-linejoin="round" stroke-width="1.212"/>
              <line id="선_126321" data-name="선 126321" x1="1.018" y1="5.331" transform="translate(56.797 160.31)" fill="none" stroke="#222" stroke-linecap="round" stroke-linejoin="round" stroke-width="1.212"/>
              <line id="선_126322" data-name="선 126322" y1="5.234" x2="0.145" transform="translate(62.757 160.31)" fill="none" stroke="#222" stroke-linecap="round" stroke-linejoin="round" stroke-width="1.212"/>
              <path id="패스_840245" data-name="패스 840245" d="M107.887,229.011l.194-11h0a14.15,14.15,0,0,1-2.714-9.3v-.872a5.719,5.719,0,0,1,4.7-5.234h3c.533,1.018-.775,2.084,2.617,2.375s3.247-.339,4.749-1.115,10.177,5.718,10.177,5.718l.727.485a4.071,4.071,0,0,1,1.26,4.313,3.683,3.683,0,0,1-5.137,2.326l-2.084-.921.678,11.485" transform="translate(-54.289 -104.417)" fill="none" stroke="#222" stroke-linecap="round" stroke-linejoin="round" stroke-width="1.212"/>
              <path id="패스_840246" data-name="패스 840246" d="M149,208.048l2.278.969a5.379,5.379,0,0,0,6.639-2.423l6.3-12.5s3.053-5.282.727-7.124-3.489,4.991-4.749,6.2l-6.688,8.19" transform="translate(-76.793 -96.199)" fill="none" stroke="#222" stroke-linecap="round" stroke-linejoin="round" stroke-width="1.212"/>
              <line id="선_126323" data-name="선 126323" x1="0.145" y1="1.842" transform="translate(66.053 97.31)" fill="#fff"/>
              <line id="선_126324" data-name="선 126324" x1="0.145" y1="1.842" transform="translate(66.053 97.31)" fill="none" stroke="#222" stroke-linecap="round" stroke-miterlimit="10" stroke-width="1.212"/>
              <path id="패스_840247" data-name="패스 840247" d="M198.5,82.678l4.313,1.405L201.6,82Z" transform="translate(-102.304 -42.262)" fill="#222"/>
            </g>
          </g>
        </g>
        <g id="사각형_422059" data-name="사각형 422059" transform="translate(2.659 1.581)" fill="#fff" stroke="#707070" stroke-width="1" opacity="0">
          <rect width="221.067" height="216.974" stroke="none"/>
          <rect x="0.5" y="0.5" width="220.067" height="215.974" fill="none"/>
        </g>
      </g>
    </g>
  </g>
</svg>
