<svg xmlns="http://www.w3.org/2000/svg" xmlns:xlink="http://www.w3.org/1999/xlink" width="547" height="430" viewBox="0 0 547 430">
  <defs>
    <clipPath id="clip-path">
      <rect id="사각형_463730" data-name="사각형 463730" width="547" height="430" transform="translate(1022 3100)" fill="red" opacity="0.346"/>
    </clipPath>
    <clipPath id="clip-path-2">
      <path id="패스_1535398" data-name="패스 1535398" d="M629.984,427.94h0A113.062,113.062,0,0,1,743.046,541h0A113.06,113.06,0,0,1,629.984,654.063h0A113.058,113.058,0,0,1,516.923,541h0A113.06,113.06,0,0,1,629.984,427.94Z" transform="translate(621.932 2662.904)" stroke="#3673ee" stroke-width="1" opacity="0.07"/>
    </clipPath>
    <clipPath id="clip-path-3">
      <rect id="사각형_461322" data-name="사각형 461322" width="198.122" height="198.122" fill="none"/>
    </clipPath>
    <clipPath id="clip-path-5">
      <rect id="사각형_461310" data-name="사각형 461310" width="22.536" height="15.731" fill="none"/>
    </clipPath>
    <clipPath id="clip-path-6">
      <rect id="사각형_461311" data-name="사각형 461311" width="4.656" height="4.666" fill="none"/>
    </clipPath>
    <clipPath id="clip-path-7">
      <rect id="사각형_461312" data-name="사각형 461312" width="150.424" height="86.277" fill="none"/>
    </clipPath>
    <clipPath id="clip-path-9">
      <path id="패스_1533519" data-name="패스 1533519" d="M451.931,506.261a10.857,10.857,0,0,0,4.953,8.519c2.73,1.536,4.953.3,4.953-2.873a10.78,10.78,0,0,0-4.953-8.476,4.47,4.47,0,0,0-2.179-.694c-1.635,0-2.729,1.293-2.729,3.517" transform="translate(-451.931 -502.737)" fill="none"/>
    </clipPath>
    <linearGradient id="linear-gradient" x1="-61.52" y1="48.644" x2="-61.513" y2="48.644" gradientUnits="objectBoundingBox">
      <stop offset="0" stop-color="#c2c1c1"/>
      <stop offset="1" stop-color="#dfdedd"/>
    </linearGradient>
    <clipPath id="clip-path-11">
      <path id="패스_1533520" data-name="패스 1533520" d="M505.684,537.3a10.937,10.937,0,0,0,4.9,8.519c2.675,1.536,4.953.3,4.953-2.873a10.791,10.791,0,0,0-4.953-8.519,4.469,4.469,0,0,0-2.179-.694c-1.635,0-2.729,1.293-2.729,3.517" transform="translate(-505.678 -533.736)" fill="none"/>
    </clipPath>
    <linearGradient id="linear-gradient-2" x1="-70.497" y1="45.36" x2="-70.489" y2="45.36" xlink:href="#linear-gradient"/>
    <clipPath id="clip-path-13">
      <rect id="사각형_461316" data-name="사각형 461316" width="42.795" height="23.428" fill="none"/>
    </clipPath>
    <clipPath id="clip-path-14">
      <rect id="사각형_461317" data-name="사각형 461317" width="156.268" height="84.707" fill="none"/>
    </clipPath>
    <clipPath id="clip-path-15">
      <rect id="사각형_461318" data-name="사각형 461318" width="29.272" height="16.33" fill="none"/>
    </clipPath>
  </defs>
  <g id="마스크_그룹_582977" data-name="마스크 그룹 582977" transform="translate(-1022 -3100)" clip-path="url(#clip-path)">
    <text id="프리미엄_세차_서비스로_하차감_UP_" data-name="프리미엄 세차 서비스로 
하차감 UP! " transform="translate(460 3079)" fill="#3673ee" font-size="66" font-family="MoebiusKorea-Regular, Moebius Korea"><tspan letter-spacing="-0.05em"><tspan x="0" y="0">프리미엄 세차 서비스</tspan><tspan y="0" fill="#111">로 </tspan></tspan><tspan fill="#111"><tspan x="0" y="83" letter-spacing="-0.05em">하차감 </tspan><tspan y="83">UP! </tspan></tspan></text>
    <g id="indicator" transform="translate(1819.863 3260) rotate(90)">
      <g id="Icon_dot_depart_b">
        <rect id="area" width="10" height="10" transform="translate(0 -0.138)" fill="none"/>
        <circle id="Oval_Copy_6" data-name="Oval Copy 6" cx="4" cy="4" r="4" transform="translate(1 0.862)" fill="#111"/>
      </g>
      <g id="Icon_dot_depart_g" transform="translate(25.009)" opacity="0.2">
        <rect id="area-2" data-name="area" width="10" height="10" transform="translate(-0.009 -0.138)" fill="none"/>
        <circle id="Oval_Copy_6-2" data-name="Oval Copy 6" cx="4" cy="4" r="4" transform="translate(0.991 0.862)" fill="#111"/>
      </g>
      <g id="Icon_dot_depart_g-2" data-name="Icon_dot_depart_g" transform="translate(50.018)" opacity="0.2">
        <rect id="area-3" data-name="area" width="10" height="10" transform="translate(-0.018 -0.138)" fill="none"/>
        <circle id="Oval_Copy_6-3" data-name="Oval Copy 6" cx="4" cy="4" r="4" transform="translate(0.982 0.862)" fill="#111"/>
      </g>
    </g>
    <g id="그룹_625481" data-name="그룹 625481">
      <text id="v" transform="translate(1178 3397)" fill="#fff" font-size="11" font-family="MoebiusKorea-Bold, Moebius Korea" font-weight="700"><tspan x="0" y="0">v</tspan></text>
      <g id="그룹_623857" data-name="그룹 623857" transform="translate(-39.818 -19)">
        <path id="합치기_258" data-name="합치기 258" d="M0,260.735A199.714,199.714,0,0,1,49.494,128.814,25.385,25.385,0,0,1,45.01,78.63,25.173,25.173,0,0,1,56.044,76.1c.348,0,.729,0,1.077.032A19.046,19.046,0,0,1,75.047,63.411a19.612,19.612,0,0,1,4.371.508q.446-.513.921-1a19.122,19.122,0,0,1,2.635-2.29,12.68,12.68,0,1,1,20.578-9.912,12.378,12.378,0,0,1-2.593,7.64A19.078,19.078,0,0,1,112.537,80.54,198.957,198.957,0,0,1,200,60.421c110.457,0,200,89.684,200,200.315S310.457,461.051,200,461.051,0,371.367,0,260.735ZM55.9,9.517a9.5,9.5,0,1,1,9.5,9.517A9.51,9.51,0,0,1,55.9,9.517Z" transform="translate(1599.904 3140) rotate(90)" fill="#3673ee" opacity="0.04"/>
        <g id="합치기_259" data-name="합치기 259" transform="translate(1590.904 3131.05) rotate(90)" fill="none" opacity="0.12">
          <path d="M0,260.735A199.714,199.714,0,0,1,49.494,128.814,25.385,25.385,0,0,1,45.01,78.63,25.173,25.173,0,0,1,56.044,76.1c.348,0,.729,0,1.077.032A19.046,19.046,0,0,1,75.047,63.411a19.612,19.612,0,0,1,4.371.508q.446-.513.921-1a19.122,19.122,0,0,1,2.635-2.29,12.68,12.68,0,1,1,20.578-9.912,12.378,12.378,0,0,1-2.593,7.64A19.078,19.078,0,0,1,112.537,80.54,198.957,198.957,0,0,1,200,60.421c110.457,0,200,89.684,200,200.315S310.457,461.051,200,461.051,0,371.367,0,260.735ZM55.9,9.517a9.5,9.5,0,1,1,9.5,9.517A9.51,9.51,0,0,1,55.9,9.517Z" stroke="none"/>
          <path d="M 199.9997711181641 459.0511474609375 C 213.4349517822266 459.0511474609375 226.8610687255859 457.6956176757812 239.9052429199219 455.022216796875 C 252.6168975830078 452.4169006347656 265.1204833984375 448.5294494628906 277.0686645507812 443.4678039550781 C 288.8004760742188 438.4978637695312 300.1159362792969 432.3463134765625 310.7008361816406 425.1840209960938 C 321.1857299804688 418.0893859863281 331.0452880859375 409.9416198730469 340.0057678222656 400.967041015625 C 348.9662475585938 391.9923706054688 357.1012573242188 382.1171569824219 364.1847839355469 371.6155700683594 C 371.3358764648438 361.0137329101562 377.4779357910156 349.6800842285156 382.440185546875 337.9293823242188 C 387.4940795898438 325.9618530273438 391.3755493164062 313.4380187988281 393.9767761230469 300.7057800292969 C 396.6461181640625 287.6404418945312 397.9996032714844 274.1924438476562 397.9996032714844 260.7354431152344 C 397.9996032714844 247.278564453125 396.6461181640625 233.8306732177734 393.9767761230469 220.765380859375 C 391.3755493164062 208.033203125 387.4940795898438 195.5094451904297 382.440185546875 183.5419769287109 C 377.4779357910156 171.7913818359375 371.3358764648438 160.4577331542969 364.1847839355469 149.8559722900391 C 357.1012573242188 139.3544464111328 348.9662475585938 129.4792022705078 340.0057678222656 120.5046157836914 C 331.0452880859375 111.530029296875 321.1857299804688 103.38232421875 310.7008361816406 96.28767395019531 C 300.1159362792969 89.12544250488281 288.8004760742188 82.97391510009766 277.0686645507812 78.00391387939453 C 265.1204833984375 72.94232177734375 252.6168975830078 69.05485534667969 239.9052429199219 66.44956207275391 C 226.8610687255859 63.77614593505859 213.4349517822266 62.42061614990234 199.9997711181641 62.42061614990234 C 184.7594757080078 62.42061614990234 169.5754852294922 64.16167449951172 154.8695983886719 67.59538269042969 C 140.5722961425781 70.93367767333984 126.6245956420898 75.89373779296875 113.4138946533203 82.33779144287109 L 109.6093597412109 84.19361877441406 L 110.5916595458984 80.07614898681641 C 110.9005355834961 78.78155517578125 111.05712890625 77.44361877441406 111.05712890625 76.09950256347656 C 111.05712890625 72.60161590576172 110.0073623657227 69.24143981933594 108.0213012695312 66.38232421875 C 106.0790710449219 63.58626556396484 103.3854827880859 61.45685195922852 100.2317733764648 60.22420501708984 L 97.74177551269531 59.25102996826172 L 99.37841796875 57.13708877563477 C 100.8011245727539 55.29944229125977 101.5531234741211 53.08090972900391 101.5531234741211 50.7213249206543 C 101.5531234741211 47.86449813842773 100.443244934082 45.17955780029297 98.42789459228516 43.16108703613281 C 96.41336059570312 41.14338302612305 93.73418426513672 40.03220367431641 90.88383483886719 40.03220367431641 C 88.03347778320312 40.03220367431641 85.35424041748047 41.14338302612305 83.33971405029297 43.16108703613281 C 81.32436370849609 45.17955780029297 80.2144775390625 47.86449813842773 80.2144775390625 50.7213249206543 C 80.2144775390625 53.99296951293945 81.67547607421875 57.03608703613281 84.22277069091797 59.0703239440918 L 86.28312683105469 60.71567535400391 L 84.14336395263672 62.25626373291016 C 83.29888916015625 62.86426544189453 82.50501251220703 63.55420684814453 81.78377532958984 64.30702972412109 L 81.77448272705078 64.31679534912109 L 81.76500701904297 64.32638549804688 C 81.47971343994141 64.61626434326172 81.19800567626953 64.92079162597656 80.92777252197266 65.23143768310547 L 80.14189147949219 66.13497161865234 L 78.97430419921875 65.86891174316406 C 77.62318420410156 65.56102752685547 76.33865356445312 65.41132354736328 75.04742431640625 65.41132354736328 C 71.46624755859375 65.41132354736328 68.03671264648438 66.52132415771484 65.12947845458984 68.62132263183594 C 63.72888946533203 69.63302612304688 62.4924201965332 70.84644317626953 61.45430374145508 72.22779083251953 C 60.4057731628418 73.62314605712891 59.5827751159668 75.15973663330078 59.0080680847168 76.79502868652344 L 58.49177169799805 78.26414489746094 L 56.94089126586914 78.12379455566406 C 56.68253707885742 78.10037994384766 56.35789108276367 78.10037994384766 56.04389190673828 78.10037994384766 C 52.48230361938477 78.10037994384766 49.06412506103516 78.88379669189453 45.88442230224609 80.42890930175781 L 45.66583251953125 80.53514862060547 L 45.42812728881836 80.58591461181641 C 40.28530120849609 81.68455505371094 35.60671615600586 84.54861450195312 32.25424575805664 88.65038299560547 C 30.5833625793457 90.69467926025391 29.28112602233887 92.98397064208984 28.3836555480957 95.45473480224609 C 27.45489120483398 98.01155853271484 26.9840087890625 100.7013854980469 26.9840087890625 103.4496154785156 C 26.9840087890625 109.5612640380859 29.32353782653809 115.3420867919922 33.57159805297852 119.7272033691406 C 37.80965423583984 124.1019668579102 43.48712539672852 126.619026184082 49.55818557739258 126.8146209716797 L 53.77989196777344 126.9506149291992 L 50.99930191040039 130.1301422119141 C 43.36406707763672 138.8608551025391 36.45730209350586 148.3122711181641 30.47083282470703 158.2220306396484 C 24.41889190673828 168.2400817871094 19.23330307006836 178.849853515625 15.05818557739258 189.7566223144531 C 10.80718517303467 200.8617401123047 7.546420574188232 212.4259643554688 5.366479396820068 224.1280822753906 C 3.133244037628174 236.1163787841797 2.000891208648682 248.4328460693359 2.000891208648682 260.7354431152344 C 2.000891208648682 274.1924438476562 3.354361772537231 287.6404418945312 6.023714542388916 300.7057800292969 C 8.624950408935547 313.4380187988281 12.50642013549805 325.9618530273438 17.560302734375 337.929443359375 C 22.52253913879395 349.6800842285156 28.66453742980957 361.0137329101562 35.81571578979492 371.6155700683594 C 42.89918518066406 382.1171569824219 51.03418350219727 391.9923706054688 59.99465560913086 400.967041015625 C 68.95507049560547 409.9416198730469 78.81459808349609 418.0893859863281 89.29942321777344 425.1840209960938 C 99.88424682617188 432.3463134765625 111.1997146606445 438.4978637695312 122.9314193725586 443.4678039550781 C 134.8795928955078 448.5294494628906 147.3831329345703 452.4169006347656 160.0946502685547 455.022216796875 C 173.1387176513672 457.6956176757812 186.5647125244141 459.0511474609375 199.9997711181641 459.0511474609375 M 65.39759826660156 17.03408813476562 C 69.53382873535156 17.03408813476562 72.89888763427734 13.66214656829834 72.89888763427734 9.517499923706055 C 72.89888763427734 5.372323036193848 69.53382873535156 2.00002908706665 65.39759826660156 2.00002908706665 C 61.26089096069336 2.00002908706665 57.89542007446289 5.372323036193848 57.89542007446289 9.517499923706055 C 57.89542007446289 13.66214656829834 61.26089096069336 17.03408813476562 65.39759826660156 17.03408813476562 M 199.9997711181641 461.0511474609375 C 89.54371643066406 461.0511474609375 0.0008911994518712163 371.3670349121094 0.0008911994518712163 260.7354431152344 C 0.0008911994518712163 210.2075042724609 18.67524337768555 164.0538482666016 49.4937744140625 128.8135528564453 C 35.8836555480957 128.3750915527344 24.9840087890625 117.1872634887695 24.9840087890625 103.4496154785156 C 24.9840087890625 91.25779724121094 33.56630325317383 81.07485198974609 45.01030349731445 78.63002777099609 C 48.34553909301758 77.00938415527344 52.08800888061523 76.10037994384766 56.04389190673828 76.10037994384766 C 56.39218521118164 76.10037994384766 56.77289199829102 76.10037994384766 57.12118530273438 76.13191223144531 C 59.71859741210938 68.7410888671875 66.78089141845703 63.41132354736328 75.04742431640625 63.41132354736328 C 76.56753540039062 63.41132354736328 78.02459716796875 63.60120391845703 79.41871643066406 63.91891098022461 C 79.7161865234375 63.57691192626953 80.02336120605469 63.24473571777344 80.339599609375 62.92343902587891 C 81.14530181884766 62.08243942260742 82.02759552001953 61.31508636474609 82.97477722167969 60.63314819335938 C 80.07430267333984 58.31690979003906 78.2144775390625 54.74026489257812 78.2144775390625 50.7213249206543 C 78.2144775390625 43.71120452880859 83.88447570800781 38.03220367431641 90.88383483886719 38.03220367431641 C 97.88312530517578 38.03220367431641 103.5531234741211 43.71120452880859 103.5531234741211 50.7213249206543 C 103.5531234741211 53.60602951049805 102.6042404174805 56.23744201660156 100.959831237793 58.36144256591797 C 108.0409469604492 61.12908935546875 113.05712890625 68.02749633789062 113.05712890625 76.09950256347656 C 113.05712890625 77.62844085693359 112.876953125 79.11561584472656 112.5370712280273 80.54026794433594 C 138.9564819335938 67.65314483642578 168.6374206542969 60.42061614990234 199.9997711181641 60.42061614990234 C 310.4568176269531 60.42061614990234 399.9996032714844 150.104736328125 399.9996032714844 260.7354431152344 C 399.9996032714844 371.3670349121094 310.4568176269531 461.0511474609375 199.9997711181641 461.0511474609375 Z M 65.39759826660156 19.03408813476562 C 60.14971542358398 19.03408813476562 55.89542007446289 14.77261734008789 55.89542007446289 9.517499923706055 C 55.89542007446289 4.261499881744385 60.14971542358398 2.90599145955639e-05 65.39759826660156 2.90599145955639e-05 C 70.64459991455078 2.90599145955639e-05 74.89888763427734 4.261499881744385 74.89888763427734 9.517499923706055 C 74.89888763427734 14.77261734008789 70.64459991455078 19.03408813476562 65.39759826660156 19.03408813476562 Z" stroke="none" fill="#3673ee"/>
        </g>
        <g id="illust_visit_115" data-name="illust visit 115" transform="translate(794.077 2814.135)">
          <g id="그룹_403767" data-name="그룹 403767" transform="translate(412.747 504.253)" opacity="0.8">
            <g id="그룹_403742" data-name="그룹 403742">
              <path id="패스_807307" data-name="패스 807307" d="M427.778,486.484l-5.649,3.263-9.644-5.567,5.65-3.263Z" transform="translate(-412.485 -480.917)" fill="#111" opacity="0.23" style="isolation: isolate"/>
              <path id="패스_807308" data-name="패스 807308" d="M439.21,493.086l-5.65,3.263-9.642-5.567,5.65-3.261Z" transform="translate(-407.494 -478.034)" fill="#111" opacity="0.5" style="isolation: isolate"/>
              <path id="패스_807309" data-name="패스 807309" d="M450.641,499.686l-5.65,3.263-9.641-5.567,5.65-3.263Z" transform="translate(-402.502 -475.153)" fill="#111"/>
              <path id="패스_807310" data-name="패스 807310" d="M462.077,506.289l-5.65,3.263-9.641-5.567,5.649-3.262Z" transform="translate(-397.509 -472.27)" fill="#111"/>
              <path id="패스_807311" data-name="패스 807311" d="M473.511,512.887l-5.646,3.267-9.642-5.567,5.65-3.263Z" transform="translate(-392.516 -469.388)" fill="#111"/>
              <path id="패스_807312" data-name="패스 807312" d="M484.946,519.491l-5.65,3.262-9.642-5.567,5.65-3.262Z" transform="translate(-387.526 -466.507)" fill="#111"/>
            </g>
            <g id="그룹_403759" data-name="그룹 403759" transform="translate(126.121 80.456)">
              <path id="패스_807307-2" data-name="패스 807307-2" d="M515.57,542.489l-5.649,3.262-9.644-5.567,5.65-3.263Z" transform="translate(-500.277 -536.922)" fill="#111"/>
              <path id="패스_807308-2" data-name="패스 807308-2" d="M527,549.091l-5.65,3.263-9.642-5.567,5.65-3.261Z" transform="translate(-495.286 -534.039)" fill="#111"/>
              <path id="패스_807309-2" data-name="패스 807309-2" d="M538.433,555.691l-5.65,3.262-9.641-5.567,5.65-3.263Z" transform="translate(-490.294 -531.158)" fill="#111" opacity="0.6" style="isolation: isolate"/>
              <path id="패스_807310-2" data-name="패스 807310-2" d="M549.869,562.294l-5.65,3.263-9.641-5.567,5.649-3.262Z" transform="translate(-485.301 -528.275)" fill="#111" opacity="0.5" style="isolation: isolate"/>
              <path id="패스_807311-2" data-name="패스 807311-2" d="M561.3,568.892l-5.646,3.267-9.642-5.567,5.65-3.263Z" transform="translate(-480.308 -525.393)" fill="#111" opacity="0.11" style="isolation: isolate"/>
            </g>
          </g>
          <g id="그룹_403758" data-name="그룹 403758" transform="translate(454.061 428.865)">
            <g id="그룹_622047" data-name="그룹 622047" transform="translate(104.846 0)">
              <g id="사각형_311717-2" data-name="사각형 311717-2" transform="translate(0)">
                <path id="패스_1533517" data-name="패스 1533517" d="M566.81,427.94h0A49.887,49.887,0,0,1,616.7,477.827h0a49.886,49.886,0,0,1-49.887,49.887h0a49.885,49.885,0,0,1-49.887-49.887h0A49.886,49.886,0,0,1,566.81,427.94Z" transform="translate(-516.923 -417.272)" fill="#4e85ff" stroke="#3673ee" stroke-width="1"/>
                <path id="패스_1533518" data-name="패스 1533518" d="M567.251,428.44h0a49.828,49.828,0,0,1,49.828,49.828h0A49.828,49.828,0,0,1,567.251,528.1h0a49.828,49.828,0,0,1-49.828-49.828h0A49.828,49.828,0,0,1,567.251,428.44Z" transform="translate(-512.828 -428.44)" fill="none"/>
              </g>
            </g>
            <rect id="사각형_311719" data-name="사각형 311719" width="37.068" height="48.189" transform="translate(55.044 36.181)" fill="none"/>
            <g id="img_illust_businesstrip" data-name="img illust businesstrip" transform="translate(0 7.978)">
              <g id="출장세차">
                <g id="Layer_1" data-name="Layer 1">
                  <g id="그룹_622073" data-name="그룹 622073">
                    <g id="그룹_622072" data-name="그룹 622072" clip-path="url(#clip-path-3)">
                      <g id="그룹_300516" data-name="그룹 300516">
                        <g id="그룹_622055" data-name="그룹 622055">
                          <g id="그룹_622054" data-name="그룹 622054" clip-path="url(#clip-path-3)">
                            <g id="그룹_300504" data-name="그룹 300504" transform="translate(12.283 81.478)">
                              <g id="그룹_300499" data-name="그룹 300499" transform="translate(142.846 61.814)" opacity="0.1">
                                <g id="그룹_622049" data-name="그룹 622049">
                                  <g id="그룹_622048" data-name="그룹 622048" clip-path="url(#clip-path-5)">
                                    <g id="그룹_300498" data-name="그룹 300498" transform="translate(-0.001 -0.002)">
                                      <path id="패스_621234" data-name="패스 621234" d="M553.487,537.779a2.131,2.131,0,1,1-2.082-2.179h0a2.131,2.131,0,0,1,2.08,2.178h0" transform="translate(-549.226 -532.923)" fill="#222"/>
                                      <path id="패스_621235" data-name="패스 621235" d="M557.993,537.254a3.418,3.418,0,1,1-3.319-3.517,3.417,3.417,0,0,1,3.319,3.517v0" transform="translate(-548.382 -533.736)" fill="#222"/>
                                      <path id="패스_621236" data-name="패스 621236" d="M558.372,538.736a3.418,3.418,0,1,1-3.318-3.517,3.417,3.417,0,0,1,3.318,3.517v0" transform="translate(-548.216 -533.089)" fill="#222"/>
                                      <path id="패스_621237" data-name="패스 621237" d="M567.928,540.841a6.093,6.093,0,1,1-5.94-6.242h.05a6.094,6.094,0,0,1,5.89,6.241" transform="translate(-546.38 -533.36)" fill="#222"/>
                                      <path id="패스_621238" data-name="패스 621238" d="M567.262,543.286a3.864,3.864,0,1,1-3.764-3.962,3.865,3.865,0,0,1,3.764,3.962h0" transform="translate(-544.724 -531.297)" fill="#222"/>
                                    </g>
                                  </g>
                                </g>
                              </g>
                              <g id="그룹_300501" data-name="그룹 300501" transform="translate(176.031 70.134)" opacity="0.1">
                                <g id="그룹_622051" data-name="그룹 622051">
                                  <g id="그룹_622050" data-name="그룹 622050" clip-path="url(#clip-path-6)">
                                    <g id="그룹_300500" data-name="그룹 300500" transform="translate(0.052 0.048)">
                                      <path id="패스_621239" data-name="패스 621239" d="M577.018,541.941a2.328,2.328,0,1,1-2.279-2.378,2.329,2.329,0,0,1,2.279,2.378v0" transform="translate(-572.363 -539.563)" fill="#222"/>
                                    </g>
                                  </g>
                                </g>
                              </g>
                              <g id="그룹_300503" data-name="그룹 300503" opacity="0.2">
                                <g id="그룹_622053" data-name="그룹 622053">
                                  <g id="그룹_622052" data-name="그룹 622052" clip-path="url(#clip-path-7)">
                                    <g id="그룹_300502" data-name="그룹 300502" transform="translate(-0.003 -0.011)">
                                      <path id="패스_621240" data-name="패스 621240" d="M450.834,518.351a1.58,1.58,0,0,0,0,2.972l95.94,55.078a5.639,5.639,0,0,0,5.1,0l47.3-27.54a1.546,1.546,0,0,0,0-2.922L502.743,491.3a5.7,5.7,0,0,0-5.1,0Z" transform="translate(-449.79 -490.702)"/>
                                      <path id="패스_621241" data-name="패스 621241" d="M450.834,518.351a1.58,1.58,0,0,0,0,2.972l95.94,55.078a5.639,5.639,0,0,0,5.1,0l47.3-27.54a1.546,1.546,0,0,0,0-2.922L502.743,491.3a5.7,5.7,0,0,0-5.1,0Z" transform="translate(-449.79 -490.702)"/>
                                    </g>
                                  </g>
                                </g>
                              </g>
                            </g>
                          </g>
                        </g>
                        <path id="패스_621242" data-name="패스 621242" d="M552.921,525.393l2.279,1.337-3.12,6.538-6.192-3.616" transform="translate(-395.556 -394.089)" fill="#222"/>
                        <g id="그룹_622057" data-name="그룹 622057">
                          <g id="그룹_622056" data-name="그룹 622056" clip-path="url(#clip-path-3)">
                            <g id="그룹_300505" data-name="그룹 300505" transform="translate(11.194 91.581)">
                              <path id="패스_621243" data-name="패스 621243" d="M451.4,500.714l5.152-2.972,1.386.743a25.164,25.164,0,0,1,11.247,18.574l2.278,1.089a4.31,4.31,0,0,1-.842.595l-6.195,3.566c-1.635,1.04-3.913.941-6.439-.544a19.729,19.729,0,0,1-8.915-15.452,6.485,6.485,0,0,1,2.378-5.646" transform="translate(-449.029 -497.742)" fill="#222"/>
                              <path id="패스_621244" data-name="패스 621244" d="M449.035,505.681a19.8,19.8,0,0,0,8.915,15.453c4.9,2.873,8.916.544,8.916-5.152a19.817,19.817,0,0,0-8.916-15.453c-4.9-2.873-8.915-.544-8.915,5.151" transform="translate(-449.035 -497.063)" fill="#222"/>
                              <path id="패스_621245" data-name="패스 621245" d="M449.38,505.908A18.07,18.07,0,0,0,457.6,520.13c4.557,2.625,8.222.5,8.222-4.755a18.082,18.082,0,0,0-8.222-14.222c-4.557-2.625-8.222-.5-8.222,4.755" transform="translate(-448.884 -496.744)" fill="#222"/>
                              <path id="패스_621246" data-name="패스 621246" d="M450.724,506.508a13.4,13.4,0,0,0,6.141,10.6c3.418,1.932,6.141.346,6.141-3.517a13.485,13.485,0,0,0-6.141-10.6c-3.418-1.932-6.141-.346-6.141,3.566" transform="translate(-448.298 -495.81)" fill="#fff"/>
                            </g>
                          </g>
                        </g>
                        <g id="그룹_622059" data-name="그룹 622059" transform="translate(15.355 98.757)">
                          <g id="그룹_622058" data-name="그룹 622058" clip-path="url(#clip-path-9)">
                            <g id="그룹_300506" data-name="그룹 300506" transform="translate(-0.001 0.008)">
                              <rect id="사각형_235346" data-name="사각형 235346" width="9.856" height="13.626" fill="url(#linear-gradient)"/>
                            </g>
                          </g>
                        </g>
                        <g id="그룹_622061" data-name="그룹 622061">
                          <g id="그룹_622060" data-name="그룹 622060" clip-path="url(#clip-path-3)">
                            <g id="그룹_300507" data-name="그룹 300507" transform="translate(9.256 90.293)">
                              <path id="패스_621248" data-name="패스 621248" d="M457.153,498.134,452,501.106a5.852,5.852,0,0,0-2.327,4.557l-1.932.545v-.445c-.5-6.785,2.228-11.194,9.46-7.677" transform="translate(-447.686 -496.845)" fill="#212020"/>
                              <path id="패스_621249" data-name="패스 621249" d="M505.156,531.744l5.152-2.972,1.386.743a25.168,25.168,0,0,1,11.243,18.574l2.279,1.09a4.307,4.307,0,0,1-.842.595l-6.19,3.564c-1.635,1.04-3.913.941-6.439-.544a19.731,19.731,0,0,1-8.916-15.453,6.485,6.485,0,0,1,2.378-5.646" transform="translate(-423.623 -482.906)" fill="#222"/>
                              <path id="패스_621250" data-name="패스 621250" d="M502.786,536.711a19.8,19.8,0,0,0,8.915,15.453c4.9,2.873,8.915.544,8.915-5.152a19.815,19.815,0,0,0-8.915-15.453c-4.9-2.873-8.915-.544-8.915,5.152" transform="translate(-423.629 -482.227)" fill="#222"/>
                              <path id="패스_621251" data-name="패스 621251" d="M503.131,536.938a18.071,18.071,0,0,0,8.222,14.222c4.557,2.625,8.222.5,8.222-4.755a18.083,18.083,0,0,0-8.222-14.222c-4.557-2.625-8.222-.5-8.222,4.755" transform="translate(-423.479 -481.908)" fill="#222"/>
                              <path id="패스_621252" data-name="패스 621252" d="M504.441,537.538a13.4,13.4,0,0,0,6.141,10.6c3.418,1.932,6.141.346,6.141-3.517a13.486,13.486,0,0,0-6.141-10.6c-3.418-1.932-6.141-.346-6.141,3.566" transform="translate(-422.907 -480.974)" fill="#fff"/>
                            </g>
                          </g>
                        </g>
                        <g id="그룹_622063" data-name="그룹 622063" transform="translate(92.567 143.289)">
                          <g id="그룹_622062" data-name="그룹 622062" clip-path="url(#clip-path-11)">
                            <g id="그룹_300508" data-name="그룹 300508" transform="translate(0.005 0.051)">
                              <rect id="사각형_235348" data-name="사각형 235348" width="9.856" height="13.63" fill="url(#linear-gradient-2)"/>
                            </g>
                          </g>
                        </g>
                        <g id="그룹_622071" data-name="그룹 622071">
                          <g id="그룹_622070" data-name="그룹 622070" clip-path="url(#clip-path-3)">
                            <g id="그룹_300515" data-name="그룹 300515" transform="translate(3.604 31.139)">
                              <path id="패스_621254" data-name="패스 621254" d="M510.9,529.2l-5.152,2.972a5.852,5.852,0,0,0-2.327,4.557l-1.932.544v-.445c-.5-6.785,2.229-11.194,9.46-7.677" transform="translate(-418.567 -424.129)" fill="#212020"/>
                              <path id="패스_621255" data-name="패스 621255" d="M480.169,473.2s-7.974,3.418-12.135,5.844c-3.27,1.932-13.324,8.222-17.979,11.349a9.956,9.956,0,0,0-3.418,3.962,22.724,22.724,0,0,0-2.179,7.232c-.5,4.112.4,10.947,1.58,13.073a14.482,14.482,0,0,0,2.526,3.017,6.246,6.246,0,0,1-.049-.941c0-6.686,5.053-9.064,11.738-4.854,5.646,3.566,10.5,11.493,10.5,18.177a8.614,8.614,0,0,1-.049,1.139l1.338.793,54.385,30.957V562.5c-.544-7.183,2.576-11.738,10.848-6.934a25.168,25.168,0,0,1,11.243,18.574l3.12,1.437c2.576.991,4.8-.991,10.352-3.814s26.994-16.3,31.4-19.069,6.241-5.3,6.686-7.38a94.722,94.722,0,0,0,.842-11.046,10.55,10.55,0,0,0-1.635-4.453,30.589,30.589,0,0,1,0-3.665,56.7,56.7,0,0,0-.644-7.281l-1.536-1.536a52.66,52.66,0,0,0-2.179-7.43l-.247-.643A17.591,17.591,0,0,0,586.26,500l-54.927-28.331a15.857,15.857,0,0,0-11.194-1.293,41.624,41.624,0,0,0-6.686,2.327l-13.918-3.466a28.1,28.1,0,0,0-15.4,2.278Z" transform="translate(-443.504 -449.856)" fill="#fff"/>
                              <path id="패스_1533521" data-name="패스 1533521" d="M553.14,576.477a4.191,4.191,0,0,1-1.531-.29l-3.148-1.448a.489.489,0,0,1-.283-.4,24.559,24.559,0,0,0-11.024-18.212c-3.354-1.947-6.051-2.413-7.779-1.326-1.786,1.119-2.608,3.895-2.31,7.814v.483a.491.491,0,0,1-.243.424.5.5,0,0,1-.49,0L470.6,531.77a.491.491,0,0,1-.237-.477,7.864,7.864,0,0,0,.046-1.073c0-6.334-4.511-14.136-10.27-17.773-3.238-2.037-6.265-2.56-8.306-1.434-1.728.954-2.681,3.04-2.681,5.874a6.119,6.119,0,0,0,.045.879.491.491,0,0,1-.817.425,15,15,0,0,1-2.609-3.12c-1.287-2.309-2.145-9.306-1.652-13.393a23.181,23.181,0,0,1,2.225-7.39,10.464,10.464,0,0,1,3.584-4.152c4.617-3.1,14.6-9.352,18-11.365,4.142-2.415,12.11-5.838,12.191-5.873h0l3.962-1.685a28.532,28.532,0,0,1,15.662-2.313l13.807,3.435a42.1,42.1,0,0,1,6.61-2.284,16.321,16.321,0,0,1,11.542,1.332l54.925,28.331a18.055,18.055,0,0,1,8.653,9.519l.247.646a52.958,52.958,0,0,1,2.171,7.363l1.432,1.434a.491.491,0,0,1,.139.272,57.316,57.316,0,0,1,.649,7.344,30.6,30.6,0,0,0-.009,3.518,11.069,11.069,0,0,1,1.639,4.551,94.152,94.152,0,0,1-.842,11.171c-.556,2.6-2.879,5.192-6.91,7.73-7.737,4.867-26.288,16.469-31.441,19.091-1.317.669-2.446,1.291-3.438,1.837C556.482,575.537,554.776,576.477,553.14,576.477Zm-4.015-2.513,2.866,1.319c1.728.661,3.406-.267,6.459-1.951,1-.552,2.138-1.179,3.465-1.855,5.118-2.6,23.639-14.186,31.365-19.046,3.747-2.359,5.982-4.8,6.466-7.068a93.973,93.973,0,0,0,.83-10.951,10.092,10.092,0,0,0-1.554-4.177.5.5,0,0,1-.078-.238,30.963,30.963,0,0,1,0-3.724,56.309,56.309,0,0,0-.615-7.018l-1.421-1.422a.489.489,0,0,1-.134-.244,52.066,52.066,0,0,0-2.159-7.361l-.246-.639a17.077,17.077,0,0,0-8.183-9l-54.931-28.333A15.337,15.337,0,0,0,520.409,471a41.055,41.055,0,0,0-6.607,2.3.5.5,0,0,1-.319.029l-13.918-3.466a27.533,27.533,0,0,0-15.083,2.248L480.51,473.8h0c-.079.034-7.995,3.435-12.08,5.817-3.392,2.005-13.347,8.239-17.953,11.333a9.477,9.477,0,0,0-3.248,3.765,22.24,22.24,0,0,0-2.136,7.082c-.5,4.172.447,10.842,1.523,12.773a14.013,14.013,0,0,0,1.56,2.034c.062-3.061,1.188-5.35,3.185-6.452,2.4-1.323,5.7-.8,9.3,1.462,6.017,3.8,10.729,11.967,10.729,18.592a8.528,8.528,0,0,1-.023.875l1.072.636,53.616,30.519c-.231-4.048.756-6.986,2.8-8.268,2.084-1.307,5.051-.864,8.815,1.324A25.542,25.542,0,0,1,549.125,573.964Z" transform="translate(-443.652 -450.005)" fill="#222"/>
                              <g id="그룹_300510" data-name="그룹 300510" transform="translate(28.195 22.453)" opacity="0.18">
                                <g id="그룹_622065" data-name="그룹 622065">
                                  <g id="그룹_622064" data-name="그룹 622064" clip-path="url(#clip-path-13)">
                                    <g id="그룹_300509" data-name="그룹 300509" transform="translate(0.004 0.051)">
                                      <path id="패스_621257" data-name="패스 621257" d="M463.527,494.709a34.294,34.294,0,0,1,4.953-1.932l8.964-5.547c4.409-2.823,28.778-14.51,28.778-14.51l-.247-1.386-.842.4-1.238-.3-4.012,1.04c-7.039,1.783-8.867,2.279-20.308,8.173-10.55,5.4-17.287,10.947-16.048,14.067" transform="translate(-463.38 -471.334)" fill="#222"/>
                                    </g>
                                  </g>
                                </g>
                              </g>
                              <path id="패스_621258" data-name="패스 621258" d="M463.447,495.541c8.222-4.061,19.515-4.557,23.032-4.606,2.972-2.23,8.023-5.8,14.222-9.708a120.588,120.588,0,0,1,21.2-10.3c-1.139-.3-4.166-1.386-5.053-1.485a21.859,21.859,0,0,0-11.738,3.017l-.892-.2a116.911,116.911,0,0,0-25.558,11.194c-9.262,5.548-13.126,9.46-15.156,12.086" transform="translate(-435.153 -449.661)" fill="#222"/>
                              <path id="패스_621259" data-name="패스 621259" d="M552.923,515.215q.4.552.743,1.139a6.921,6.921,0,0,1-2.972,2.972h0l-.743-15.652.445-1.238,1.783,1.58a55.564,55.564,0,0,1,.743,7.43,27.9,27.9,0,0,0,0,3.764" transform="translate(-397.386 -435.251)" fill="#f8483b"/>
                              <path id="패스_1533522" data-name="패스 1533522" d="M550.843,519.966a.49.49,0,0,1-.49-.467l-.744-15.652a.468.468,0,0,1,.029-.188l.445-1.24a.49.49,0,0,1,.787-.2l1.784,1.579a.5.5,0,0,1,.158.286,56.165,56.165,0,0,1,.748,7.5,28.605,28.605,0,0,0-.009,3.613c.244.343.474.7.685,1.063a.49.49,0,0,1,.013.471,7.382,7.382,0,0,1-3.182,3.185A.507.507,0,0,1,550.843,519.966Zm-.249-16.067.7,14.736a6.376,6.376,0,0,0,1.957-2.122q-.269-.442-.576-.863a.48.48,0,0,1-.092-.254,28.708,28.708,0,0,1,0-3.833,55.349,55.349,0,0,0-.708-7.146l-1.112-.986Z" transform="translate(-397.535 -435.4)" fill="#222"/>
                              <path id="패스_621261" data-name="패스 621261" d="M550.525,513.884l-.3-6.538a13.741,13.741,0,0,0,2.378-1.536,28.592,28.592,0,0,1,.346,4.359c-.049.595-.049,1.188-.049,1.734a13.2,13.2,0,0,1-2.327,1.981" transform="translate(-397.265 -433.778)" fill="#fff"/>
                              <path id="패스_1533523" data-name="패스 1533523" d="M550.226,515.041l-.351-7.71.282-.145a13.206,13.206,0,0,0,2.294-1.481l.661-.529.131.836a29.074,29.074,0,0,1,.353,4.433c-.05.622-.049,1.2-.049,1.735v.2l-.135.142a13.826,13.826,0,0,1-2.467,2.054Zm.658-7.127.243,5.333a12.679,12.679,0,0,0,1.438-1.264c0-.5.007-1.04.05-1.577a27.982,27.982,0,0,0-.226-3.425A14.341,14.341,0,0,1,550.884,507.914Z" transform="translate(-397.419 -434.055)" fill="#222"/>
                              <path id="패스_1533524" data-name="패스 1533524" d="M522.407,557.752a4.074,4.074,0,0,1-1.562-.312L517.7,556a.491.491,0,0,1-.283-.4,23.331,23.331,0,0,0-3.251-9.989.491.491,0,0,1,.407-.744,13.882,13.882,0,0,0,3.8-.646c.016-.009.033-.014.049-.022a1.128,1.128,0,0,0,.682-.638,4.658,4.658,0,0,0-.319-2.968.5.5,0,0,1,.115-.55.488.488,0,0,1,.555-.083,6.217,6.217,0,0,0,1.895.586,30.609,30.609,0,0,0,4.208-1.2.479.479,0,0,1,.408.032.488.488,0,0,1,.241.332,44.528,44.528,0,0,1,.8,6.36,24.3,24.3,0,0,0,.333,3.332c2.367-1.284,12.268-6.679,16.4-9.219,4.392-2.7,11.741-7.22,16.333-10.246s4.973-4.228,5.3-5.281c.31-1.01.733-7.2.869-9.494a.5.5,0,0,1,.24-.394,5.862,5.862,0,0,0,2.38-2.652.491.491,0,0,1,.428-.289c.174-.06.359.092.45.254a8.781,8.781,0,0,1,1.049,3.57,94.075,94.075,0,0,1-.845,11.147c-.4,1.809-1.908,4.58-6.911,7.729-9.634,6.068-26.531,16.617-31.443,19.092-1.4.705-2.58,1.36-3.609,1.931C525.644,556.84,523.994,557.752,522.407,557.752Zm-4.035-2.53,2.862,1.317c1.694.687,3.227-.165,6.284-1.859,1.039-.575,2.232-1.235,3.645-1.947,3.61-1.823,14.748-8.588,31.361-19.048,4.716-2.967,6.12-5.482,6.467-7.07a93.559,93.559,0,0,0,.83-10.95,7.717,7.717,0,0,0-.53-2.276,6.861,6.861,0,0,1-2.073,2.073c-.095,1.577-.522,8.25-.9,9.47-.45,1.462-1.156,2.819-5.7,5.811-4.6,3.035-11.961,7.559-16.357,10.263-4.712,2.893-16.841,9.458-16.963,9.525a.494.494,0,0,1-.519-.034c-.162-.116-.537-.387-.748-4.386a43.62,43.62,0,0,0-.677-5.663,31.252,31.252,0,0,1-3.886,1.065.477.477,0,0,1-.162.007,7.121,7.121,0,0,1-1.276-.283,4.448,4.448,0,0,1-.023,2.7,2.083,2.083,0,0,1-1.161,1.139.5.5,0,0,1-.1.044,15.024,15.024,0,0,1-3.339.671A24.322,24.322,0,0,1,518.372,555.222Z" transform="translate(-413.039 -431.161)" fill="#222"/>
                              <g id="그룹_300512" data-name="그룹 300512" transform="translate(1.001 41.274)" opacity="0.18">
                                <g id="그룹_622067" data-name="그룹 622067">
                                  <g id="그룹_622066" data-name="그룹 622066" clip-path="url(#clip-path-14)">
                                    <g id="그룹_300511" data-name="그룹 300511" transform="translate(0.048 0.394)">
                                      <path id="패스_621264" data-name="패스 621264" d="M600.067,524.943l-1.981,1.437-1.293.743-.694-15.4.694-1.485-3.665-10.4-40.123,24.122c0-3.77-3.561-5.535-6.835-7.4l-53.619-31.878c-13.671.049-20.775,4.214-20.775,4.214l-13.126-.694-1.734,1.04a16.609,16.609,0,0,1-6.884,2.179l-5.4.5a100.2,100.2,0,0,0-.006,10.892,16.38,16.38,0,0,0,3.418,8.272c-.044-13.372,11.942-6.835,11.942-6.835,12.135,8.867,10.7,20.209,10.7,20.209l55.721,31.749c-1.188-14.612,9.411-8.123,9.411-8.123a25.017,25.017,0,0,1,12.63,19.316l5.4,1.635s33.329-19.763,37.3-21.1,7.825-6.983,7.825-6.983l1.139-3.171.694-10.2Zm-73.808,24.964-22.884-13.422v-.4a.943.943,0,0,1,1.386-.793l22.586,12.786Z" transform="translate(-444.482 -484.674)" fill="#222"/>
                                    </g>
                                  </g>
                                </g>
                              </g>
                              <path id="패스_621265" data-name="패스 621265" d="M518.005,536.506c-.892-2.031-1.139-8.42-1.04-11.738s1.981-3.071,2.972-3.318,4.453-.743,4.453-.743l.144,15.107a31.017,31.017,0,0,1-4.359,1.238,6.711,6.711,0,0,1-2.13-.644" transform="translate(-411.796 -427.275)" fill="#f8483b"/>
                              <path id="패스_1533525" data-name="패스 1533525" d="M520.323,537.693h-.037a7.216,7.216,0,0,1-2.33-.586.493.493,0,0,1-.251-.251c-1.008-2.3-1.164-9.168-1.082-11.951.1-3.254,1.863-3.534,2.918-3.7.155-.023.3-.046.425-.076,1.007-.251,4.362-.734,4.5-.754a.472.472,0,0,1,.391.114.493.493,0,0,1,.171.368l.142,15.109a.494.494,0,0,1-.322.465,31.881,31.881,0,0,1-4.428,1.256A.487.487,0,0,1,520.323,537.693Zm-1.792-1.411a6.125,6.125,0,0,0,1.763.424,30.593,30.593,0,0,0,3.895-1.086l-.135-14.2c-1.014.149-3.13.473-3.851.652-.151.037-.323.066-.507.095-.994.157-2.018.32-2.09,2.761C517.5,528.368,517.775,534.25,518.532,536.282Z" transform="translate(-411.945 -427.424)" fill="#222"/>
                              <path id="패스_621267" data-name="패스 621267" d="M523.3,523.753v6.736c-1.783.544-3.268.4-3.566-.1a10.187,10.187,0,0,1-.144-4.259c.247-1.536,2.576-2.08,3.665-2.427" transform="translate(-410.709 -425.966)" fill="#fff"/>
                              <path id="패스_1533526" data-name="패스 1533526" d="M521.331,531.459a2.116,2.116,0,0,1-1.865-.681.445.445,0,0,1-.056-.135,10.62,10.62,0,0,1-.149-4.462c.264-1.675,2.392-2.286,3.663-2.649l.385-.114a.493.493,0,0,1,.635.47v6.738a.49.49,0,0,1-.347.468A8.033,8.033,0,0,1,521.331,531.459Zm-.994-1.158a4.009,4.009,0,0,0,2.625-.046v-5.713c-1.1.32-2.577.807-2.734,1.8A9.7,9.7,0,0,0,520.337,530.3Z" transform="translate(-410.858 -426.099)" fill="#222"/>
                              <path id="패스_621270" data-name="패스 621270" d="M557.7,499.325l2.526,9.808a4.012,4.012,0,0,1-1.833,4.656l-32.244,18.676a1.484,1.484,0,0,1-2.23-1.238l-.346-12.786a1.484,1.484,0,0,1,.743-1.293l31.2-18.624a1.486,1.486,0,0,1,2.035.519,1.58,1.58,0,0,1,.144.323" transform="translate(-408.901 -437.05)" fill="#222"/>
                              <path id="패스_621271" data-name="패스 621271" d="M463.447,487.606h0" transform="translate(-435.153 -441.726)" fill="#141c1e"/>
                              <path id="패스_621272" data-name="패스 621272" d="M485.238,508.884l-6.736-3.913c-.346-.2-.644,0-.644.5v2.327a1.576,1.576,0,0,0,.644,1.238l6.736,3.913c.346.2.644,0,.644-.5v-2.327a1.585,1.585,0,0,0-.644-1.238" transform="translate(-428.861 -434.178)" fill="#bcbcbc"/>
                              <path id="패스_1533527" data-name="패스 1533527" d="M485.643,513.662a1.023,1.023,0,0,1-.5-.142l-6.738-3.915a2.1,2.1,0,0,1-.888-1.651v-2.339a1.048,1.048,0,0,1,.466-.951.9.9,0,0,1,.912.029l6.783,3.945a2.087,2.087,0,0,1,.843,1.622V512.6a1.045,1.045,0,0,1-.468.953A.809.809,0,0,1,485.643,513.662ZM478.5,505.6v2.345a1.078,1.078,0,0,0,.444.843l6.6,3.83v-2.344a1.09,1.09,0,0,0-.424-.827Z" transform="translate(-429.01 -434.326)" fill="#111"/>
                              <path id="패스_621274" data-name="패스 621274" d="M485.238,508.78l-6.736-3.913c-.346-.2-.644,0-.644.5a1.576,1.576,0,0,0,.644,1.238l6.736,3.913c.346.2.644,0,.644-.5a1.585,1.585,0,0,0-.644-1.238" transform="translate(-428.861 -434.223)" fill="#222"/>
                              <path id="패스_1533528" data-name="패스 1533528" d="M485.641,511.231a1.011,1.011,0,0,1-.5-.141l-6.739-3.915a2.1,2.1,0,0,1-.888-1.652,1.058,1.058,0,0,1,.467-.964.9.9,0,0,1,.912.033l6.782,3.942a2.088,2.088,0,0,1,.843,1.625,1.054,1.054,0,0,1-.467.961A.8.8,0,0,1,485.641,511.231ZM478.5,505.5v.016a1.089,1.089,0,0,0,.444.843l6.6,3.83v-.016a1.091,1.091,0,0,0-.424-.829Z" transform="translate(-429.01 -434.372)" fill="#111"/>
                              <path id="패스_621276" data-name="패스 621276" d="M445,491.82h0l5.7-.694a13.4,13.4,0,0,0,5.6-1.981l.743-.5a1.138,1.138,0,0,0,.316-1.579,1.232,1.232,0,0,0-.172-.2l-4.607-4.26-2.823,1.882a9.957,9.957,0,0,0-3.418,3.962A20.476,20.476,0,0,0,445,491.818" transform="translate(-443.206 -443.908)" fill="#222"/>
                              <path id="패스_621277" data-name="패스 621277" d="M488.012,469.7l-5.051,1.932a2.753,2.753,0,0,1-1.188.1l-7.43-1.437s7.327-2.774,13.671-.644" transform="translate(-430.396 -449.918)" fill="#222"/>
                              <line id="선_85582" data-name="선 85582" x1="23.924" y1="13.571" transform="translate(60.241 93.777)" fill="none"/>
                              <path id="패스_1533529" data-name="패스 1533529" d="M509.758,535.158a.48.48,0,0,1-.243-.065l-23.924-13.571a.491.491,0,0,1,.484-.853L510,534.241a.49.49,0,0,1-.243.917Z" transform="translate(-425.593 -427.319)" fill="#222"/>
                              <path id="패스_621278" data-name="패스 621278" d="M559.351,510.033l-33.082,19.124a.765.765,0,1,1-.743-1.337L558.613,508.7a.765.765,0,1,1,.743,1.337" transform="translate(-408.221 -432.558)" fill="#fff"/>
                              <path id="패스_621279" data-name="패스 621279" d="M444.829,500.862s3.517-13.373,17.434-4.507,8.668,18.078,20.9,23.675c8.668,3.913,23.082,6.884,33.78,10.7a92.435,92.435,0,0,0,20.308,4.557c9.262,1.09,11.349,8.173,11.349,8.173l.694,3.369a2.624,2.624,0,0,0,3.115,2.02q.078-.017.155-.039l.5-.144,2.675-.544s1.437,10.65,1.734,10.451,34.766-19.217,37.544-24.023a17.647,17.647,0,0,0,2.031-9.709,1.534,1.534,0,0,1,.4-1.139l2.327-2.526.247,1.04a23.261,23.261,0,0,1,.595,8.964c-.5,3.814-1.981,8.371-5.993,10.55l-37.8,22.531a7.381,7.381,0,0,1-3.27,1.04,9.949,9.949,0,0,1-4.26-.644l-.247-.5a8.986,8.986,0,0,1-.644-1.932,24.814,24.814,0,0,0-2.774-7.43c-2.774-4.854-8.122-12.086-14.909-11.441,0,0-5.646.346-4.359,10.006l-55.668-32.343a24.52,24.52,0,0,0-11.54-19.962c-7.38-4.656-9.913.842-10.848,6.141a8.964,8.964,0,0,1-3.418-6.34" transform="translate(-443.281 -439.231)" fill="#3673ee"/>
                              <path id="패스_1533530" data-name="패스 1533530" d="M553.008,565.859a10.424,10.424,0,0,1-3.744-.694.4.4,0,0,1-.217-.2l-.249-.494a9.6,9.6,0,0,1-.677-2.031,24.382,24.382,0,0,0-2.731-7.314c-2.553-4.469-7.835-11.846-14.514-11.236a4.083,4.083,0,0,0-2.676,1.559c-1.358,1.668-1.8,4.353-1.316,7.985a.408.408,0,0,1-.609.408L470.607,521.5a.412.412,0,0,1-.2-.341,24.071,24.071,0,0,0-11.348-19.628c-2.573-1.623-4.7-2.079-6.331-1.361-1.888.836-3.2,3.267-3.9,7.226a.408.408,0,0,1-.645.257,8.989,8.989,0,0,1-3.636-6.641.338.338,0,0,1,.013-.131c.057-.223,1.484-5.468,6.075-7.265,3.3-1.292,7.327-.444,11.974,2.518,7.08,4.51,9.3,9.165,11.251,13.273s3.639,7.647,9.6,10.374c4.958,2.24,11.685,4.133,18.808,6.139,5.1,1.436,10.384,2.923,14.94,4.548A92.129,92.129,0,0,0,537.421,535c9.424,1.109,11.675,8.391,11.7,8.466l.7,3.4a2.216,2.216,0,0,0,2.629,1.7l.624-.174,2.706-.552a.412.412,0,0,1,.318.068.4.4,0,0,1,.168.279c.444,3.284,1.2,8.448,1.539,9.917.122-.069.267-.149.435-.246,21.652-12.146,34.972-20.673,36.547-23.393A17.194,17.194,0,0,0,596.763,525a1.95,1.95,0,0,1,.5-1.447l2.329-2.527a.407.407,0,0,1,.7.182l.247,1.04a23.492,23.492,0,0,1,.6,9.111c-.477,3.676-1.941,8.541-6.2,10.858L557.15,564.737a7.824,7.824,0,0,1-3.448,1.1C553.471,565.852,553.24,565.859,553.008,565.859Zm-3.3-1.4a9.5,9.5,0,0,0,3.938.562,7,7,0,0,0,3.086-.983l37.8-22.533c3.974-2.159,5.344-6.766,5.8-10.252a22.726,22.726,0,0,0-.583-8.806l-.073-.3-1.806,1.961a1.136,1.136,0,0,0-.29.835,18,18,0,0,1-2.077,9.928c-2.258,3.906-24.064,16.531-36.86,23.709-.49.276-.779.437-.826.465a.446.446,0,0,1-.4.029c-.247-.111-.527-.237-1.9-10.335l-2.711.592c-.062.016-.122.032-.181.045a3.032,3.032,0,0,1-3.6-2.333l-.7-3.372c-.076-.246-2.129-6.807-11-7.851a92.835,92.835,0,0,1-20.394-4.576c-4.534-1.616-9.8-3.1-14.892-4.531-7.151-2.014-13.908-3.916-18.924-6.18-6.233-2.852-8.064-6.7-10-10.767-1.908-4.008-4.07-8.551-10.953-12.937-4.412-2.81-8.193-3.635-11.231-2.448-3.949,1.543-5.4,6.07-5.571,6.653a8.179,8.179,0,0,0,2.783,5.552c.783-3.85,2.208-6.256,4.245-7.157,1.892-.838,4.28-.363,7.1,1.415a24.886,24.886,0,0,1,11.723,20.068l54.767,31.819c-.343-3.472.2-6.1,1.606-7.812a4.9,4.9,0,0,1,3.228-1.839c7.151-.681,12.638,7.006,15.288,11.647a25.166,25.166,0,0,1,2.821,7.552,8.68,8.68,0,0,0,.613,1.843Z" transform="translate(-443.406 -439.356)" fill="#222"/>
                              <path id="패스_621281" data-name="패스 621281" d="M525.657,549.881c-1.58.4-2.179-.1-2.426-.892.595-.3,12.036-6.538,16.791-9.46s11.837-7.281,16.345-10.253,5.1-4.259,5.5-5.548a93.359,93.359,0,0,0,.5-9.609l.4.144a7.961,7.961,0,0,1,.743,3.318c0,1.882-.5,7.133-.5,7.133a6.683,6.683,0,0,1-2.873,4.359c-2.576,1.882-15.008,10-22.487,14.314s-10.4,5.993-12.036,6.39" transform="translate(-409.052 -430.151)" fill="#fff"/>
                              <path id="패스_1533531" data-name="패스 1533531" d="M524.829,550.657a1.825,1.825,0,0,1-1.918-1.373.49.49,0,0,1,.25-.585c.58-.29,12.013-6.526,16.754-9.438,5.659-3.478,12.053-7.424,16.333-10.246,4.606-3.037,4.975-4.231,5.3-5.282.307-3.073.473-6.288.473-9.466a.494.494,0,0,1,.21-.4.486.486,0,0,1,.45-.057l.395.144a.49.49,0,0,1,.277.253,8.473,8.473,0,0,1,.79,3.524c0,1.886-.478,6.965-.5,7.18a7.232,7.232,0,0,1-3.09,4.722c-2.458,1.8-14.863,9.921-22.513,14.33l-3.217,1.857c-5.3,3.069-7.495,4.338-8.9,4.689h0A4.574,4.574,0,0,1,524.829,550.657Zm-.816-1.3c.194.266.619.463,1.675.2,1.268-.319,3.58-1.656,8.644-4.587l3.216-1.859c7.626-4.393,19.979-12.483,22.444-14.284a6.251,6.251,0,0,0,2.679-4.051c0-.01.487-5.206.487-7.045a7.365,7.365,0,0,0-.177-1.575c-.052,2.592-.214,5.2-.478,7.773-.47,1.557-1.175,2.913-5.718,5.906-4.291,2.83-10.693,6.781-16.357,10.263C536.1,542.755,526.208,548.179,524.013,549.358Z" transform="translate(-409.201 -430.3)" fill="#222"/>
                              <path id="패스_621283" data-name="패스 621283" d="M553.91,528.312a4.8,4.8,0,0,1-2.031,3.863c-1.139.644-2.031-.049-2.031-1.536a4.794,4.794,0,0,1,2.031-3.863c1.139-.644,2.031.049,2.031,1.536" transform="translate(-397.431 -424.729)" fill="#fff"/>
                              <path id="패스_1533532" data-name="패스 1533532" d="M551.181,532.946a1.413,1.413,0,0,1-.721-.192,2.194,2.194,0,0,1-.9-1.99,5.21,5.21,0,0,1,2.205-4.2,1.727,1.727,0,0,1,1.78-.119,2.2,2.2,0,0,1,.9,1.988v0a5.214,5.214,0,0,1-2.2,4.192A2.151,2.151,0,0,1,551.181,532.946Zm1.629-5.878a1.3,1.3,0,0,0-.608.188,4.383,4.383,0,0,0-1.823,3.512,1.456,1.456,0,0,0,.491,1.279.963.963,0,0,0,.931-.1,4.388,4.388,0,0,0,1.825-3.508,1.46,1.46,0,0,0-.491-1.281A.63.63,0,0,0,552.81,527.068Z" transform="translate(-397.556 -424.853)" fill="#222"/>
                              <path id="패스_621285" data-name="패스 621285" d="M577.166,536.535a7.38,7.38,0,0,0-13.72-5.4A4.159,4.159,0,0,0,562.9,530v-.2a4.166,4.166,0,0,0-8.222-.842l-.793-.144a2.576,2.576,0,1,0,1.538,4.6,4.166,4.166,0,0,0,7.232,1.485,7.377,7.377,0,0,0,6.935,6.884,4.7,4.7,0,1,0,7.529-5.251" transform="translate(-396.814 -425.077)" fill="#dbdbdb"/>
                              <path id="패스_1533533" data-name="패스 1533533" d="M574.072,545.248a5.125,5.125,0,0,1-4.633-2.951,7.8,7.8,0,0,1-6.962-6.389,4.53,4.53,0,0,1-1.662.879,4.583,4.583,0,0,1-5.479-2.627,2.689,2.689,0,0,1-1.437.336,2.985,2.985,0,0,1-2.008-5.136,2.82,2.82,0,0,1,2.129-.83l.49.085a4.574,4.574,0,0,1,8.923,1.3V530c.063.1.122.2.178.3a7.79,7.79,0,0,1,14.136,6.281,5.118,5.118,0,0,1-3.675,8.673Zm-11.292-10.632a.407.407,0,0,1,.409.382,6.98,6.98,0,0,0,6.549,6.5.412.412,0,0,1,.355.254,4.3,4.3,0,1,0,6.876-4.794.407.407,0,0,1-.1-.455.39.39,0,0,1,.089-.134,6.972,6.972,0,0,0-13.013-4.945.442.442,0,0,1-.4.241.408.408,0,0,1-.365-.292,3.686,3.686,0,0,0-.49-1.024.415.415,0,0,1-.072-.231v-.2a3.733,3.733,0,0,0-1.166-2.618,3.839,3.839,0,0,0-2.687-1.033,3.758,3.758,0,0,0-3.561,2.9.411.411,0,0,1-.471.31l-.793-.144h-.032a2.171,2.171,0,0,0,.009,4.34,2.188,2.188,0,0,0,1.381-.464.411.411,0,0,1,.646.21,3.757,3.757,0,0,0,6.522,1.34A.4.4,0,0,1,562.781,534.616Z" transform="translate(-396.938 -425.201)" fill="#222"/>
                              <path id="패스_621287" data-name="패스 621287" d="M578.68,537.292a2.623,2.623,0,1,1-.718-1.9,2.625,2.625,0,0,1,.718,1.9" transform="translate(-387.134 -421.221)" fill="#dbdbdb"/>
                              <path id="패스_1533534" data-name="패스 1533534" d="M576.182,540.354c-.039,0-.076,0-.114,0a3.034,3.034,0,0,1-1.952-5.255,3.07,3.07,0,0,1,2.178-.807,3.024,3.024,0,0,1,2.087.943,3.055,3.055,0,0,1,.83,2.2h0A3.039,3.039,0,0,1,576.182,540.354Zm0-5.251a2.216,2.216,0,0,0-.079,4.43,2.216,2.216,0,0,0,1.691-3.739,2.211,2.211,0,0,0-1.527-.69Z" transform="translate(-387.258 -421.345)" fill="#222"/>
                              <path id="패스_621293" data-name="패스 621293" d="M453.266,493.505c13.422,3.017,18.525,15.6,18.525,15.6L471,506.233a21.231,21.231,0,0,0-3.764-7.677,16.676,16.676,0,0,0-11.54-6.587,10.715,10.715,0,0,0-4.606.544,5.637,5.637,0,0,0-1.734,1.04l-.595.5a3.576,3.576,0,0,1,1.338-.4,9.708,9.708,0,0,1,3.171-.1" transform="translate(-441.565 -439.844)" fill="#fff"/>
                              <path id="패스_621294" data-name="패스 621294" d="M449.334,493.053l-.644.5,1.386-.445" transform="translate(-441.596 -439.348)" fill="#fff"/>
                              <path id="패스_621295" data-name="패스 621295" d="M492.564,510a4.7,4.7,0,0,1-.694.842,1.972,1.972,0,0,1-2.031.694h0l-23.082-13.423-.247-.2v-.1a4.757,4.757,0,0,1-.247-2.625Z" transform="translate(-433.959 -438.414)" fill="#fff"/>
                              <path id="패스_621296" data-name="패스 621296" d="M532.032,515.563,479.926,484.7a.746.746,0,1,0-.743,1.293l51.71,30.456L535,518.88a12.166,12.166,0,0,0-2.972-3.367" transform="translate(-428.446 -443.035)" fill="#fff"/>
                              <path id="패스_621297" data-name="패스 621297" d="M482.467,486.083s-2.378-1.386-11.194-.544a95.564,95.564,0,0,1,11.194-1.139l1.293.694Z" transform="translate(-431.736 -443.126)" fill="#fff"/>
                              <path id="패스_621299" data-name="패스 621299" d="M568.529,530.1a1.635,1.635,0,1,1-1.635-1.635,1.635,1.635,0,0,1,1.635,1.635h0" transform="translate(-390.702 -423.888)" fill="#fff"/>
                              <path id="패스_621300" data-name="패스 621300" d="M576.047,536.185a.793.793,0,1,1-.793-.793.794.794,0,0,1,.793.793h0" transform="translate(-386.685 -420.863)" fill="#fff"/>
                              <path id="패스_621301" data-name="패스 621301" d="M558.556,528.093a.941.941,0,1,1-.941-.941h0a.942.942,0,0,1,.941.941" transform="translate(-394.451 -424.46)" fill="#fff"/>
                              <path id="패스_621302" data-name="패스 621302" d="M566.486,529.231a.941.941,0,1,1-.941-.941h0a.942.942,0,0,1,.941.941" transform="translate(-390.988 -423.964)" fill="#fff"/>
                              <g id="그룹_300514" data-name="그룹 300514" transform="translate(89.612 40.63)" opacity="0.3">
                                <g id="그룹_622069" data-name="그룹 622069">
                                  <g id="그룹_622068" data-name="그룹 622068" clip-path="url(#clip-path-15)">
                                    <g id="그룹_300513" data-name="그룹 300513" transform="translate(0.002 -0.001)">
                                      <path id="패스_621303" data-name="패스 621303" d="M535.452,492.124c0,4.508-6.538,8.173-14.66,8.173s-14.66-3.665-14.66-8.173,6.538-8.173,14.66-8.173,14.66,3.665,14.66,8.173" transform="translate(-506.131 -483.951)" fill="#222"/>
                                    </g>
                                  </g>
                                </g>
                              </g>
                              <path id="패스_621304" data-name="패스 621304" d="M527.05,490.646c0,2.972-4.606,5.35-10.253,5.35s-10.253-2.378-10.253-5.35,4.607-5.35,10.253-5.35,10.253,2.378,10.253,5.35" transform="translate(-416.337 -442.734)" fill="#222"/>
                              <path id="패스_1533535" data-name="패스 1533535" d="M553.248,576.909a4.549,4.549,0,0,1-1.656-.317l-3.169-1.457a.823.823,0,0,1-.471-.664A24.237,24.237,0,0,0,537.073,556.5c-3.227-1.873-5.807-2.336-7.426-1.323-1.678,1.053-2.444,3.719-2.156,7.511l0,.508a.818.818,0,0,1-1.223.711l-55.735-31.76a.816.816,0,0,1-.4-.793,7.687,7.687,0,0,0,.043-1.029c0-6.138-4.54-13.982-10.119-17.5-3.132-1.972-6.038-2.491-7.972-1.425-1.619.895-2.511,2.879-2.511,5.588a5.733,5.733,0,0,0,.042.839.817.817,0,0,1-1.362.707,15.364,15.364,0,0,1-2.668-3.188c-1.319-2.367-2.2-9.469-1.7-13.606a23.523,23.523,0,0,1,2.258-7.5,10.791,10.791,0,0,1,3.694-4.278c4.623-3.106,14.614-9.362,18.021-11.375,4.16-2.426,11.9-5.751,12.228-5.892h0l3.962-1.685a28.847,28.847,0,0,1,15.834-2.337l13.733,3.416a42.3,42.3,0,0,1,6.559-2.258,16.65,16.65,0,0,1,11.773,1.359l54.925,28.33a18.381,18.381,0,0,1,8.806,9.69l.249.649a53.522,53.522,0,0,1,2.165,7.315l1.366,1.367a.834.834,0,0,1,.229.453,57.439,57.439,0,0,1,.654,7.386,30.994,30.994,0,0,0-.013,3.423,11.43,11.43,0,0,1,1.642,4.613,94.471,94.471,0,0,1-.843,11.256c-.579,2.718-2.951,5.377-7.06,7.964-7.742,4.869-26.3,16.478-31.47,19.105-1.313.668-2.438,1.289-3.425,1.833C556.693,575.948,554.952,576.909,553.248,576.909Zm-3.719-3.066,2.7,1.241c1.5.576,2.889-.135,6.164-1.942,1-.55,2.142-1.181,3.475-1.859,5.1-2.6,23.616-14.175,31.336-19.032,3.67-2.309,5.856-4.68,6.322-6.858a94.04,94.04,0,0,0,.823-10.888,9.771,9.771,0,0,0-1.5-3.992.811.811,0,0,1-.132-.4,31.635,31.635,0,0,1,0-3.762,56.191,56.191,0,0,0-.6-6.843l-1.345-1.346a.81.81,0,0,1-.221-.406,51.824,51.824,0,0,0-2.146-7.315l-.244-.636a16.738,16.738,0,0,0-8.026-8.825l-54.931-28.334a15,15,0,0,0-10.618-1.227,40.738,40.738,0,0,0-6.554,2.28.815.815,0,0,1-.531.048l-13.918-3.467a27.208,27.208,0,0,0-14.867,2.23l-3.982,1.692c-.168.073-8,3.439-12.042,5.8-3.387,2-13.333,8.23-17.936,11.322a9.163,9.163,0,0,0-3.136,3.636,21.948,21.948,0,0,0-2.106,6.982c-.5,4.116.431,10.681,1.484,12.572a13.374,13.374,0,0,0,.99,1.369c.236-2.771,1.391-4.853,3.311-5.914,2.507-1.383,5.929-.859,9.635,1.472,6.1,3.854,10.882,12.142,10.882,18.87.006.227,0,.461-.01.7l.9.534,53.1,30.224c-.112-3.859.93-6.686,2.975-7.969,2.2-1.376,5.274-.937,9.156,1.319A25.873,25.873,0,0,1,549.529,573.844Z" transform="translate(-443.752 -450.104)" fill="#222"/>
                              <path id="패스_621306" data-name="패스 621306" d="M495.111,498.683s-1.5,11.019-1.734,12.135c-.346,1.536-.793,2.526-1.485,2.378a5.353,5.353,0,0,1-1.783-.694l-2.873-1.536L466.929,499.52a1.482,1.482,0,0,1-.793-1.293h0c0-1.635.049-4.26.1-5.449s5.052-3.219,12.333-3.764a6.1,6.1,0,0,1,1.58.144,40.485,40.485,0,0,1,13.373,6.538,3.2,3.2,0,0,1,1.58,2.972" transform="translate(-433.979 -441.113)" fill="#222"/>
                              <line id="선_85584" data-name="선 85584" x2="53.641" y2="31.006" transform="translate(65.54 36.915)" fill="none"/>
                              <path id="패스_621307" data-name="패스 621307" d="M544.054,512.93a1.483,1.483,0,0,1-1.337-.05l-53.691-31.006c-.4-.247-.445-.545-.1-.743a1.492,1.492,0,0,1,1.337.05l53.694,31.006c.4.247.445.544.1.743" transform="translate(-424.13 -444.611)" fill="#222"/>
                              <line id="선_85585" data-name="선 85585" x2="53.691" y2="31.006" transform="translate(74.357 31.814)" fill="none"/>
                              <path id="패스_621308" data-name="패스 621308" d="M550.176,509.378a1.483,1.483,0,0,1-1.338-.05L495.2,478.322c-.4-.247-.445-.544-.1-.743a1.492,1.492,0,0,1,1.337.05l53.641,31.006c.4.247.445.544.1.743" transform="translate(-421.435 -446.162)" fill="#222"/>
                              <line id="선_85586" data-name="선 85586" x2="53.691" y2="30.957" transform="translate(82.728 27.01)" fill="none"/>
                              <path id="패스_621309" data-name="패스 621309" d="M556,506.034a1.483,1.483,0,0,1-1.337-.05l-53.641-31.006c-.4-.247-.445-.544-.1-.743a1.492,1.492,0,0,1,1.337.049l53.693,30.951c.4.247.445.544.1.743" transform="translate(-418.891 -447.622)" fill="#222"/>
                              <path id="패스_621310" data-name="패스 621310" d="M503.234,476.573l4.9,16.939L512,497.128l4.211.445,4.31-.346,5.844-2.774,1.09-2.73,4.012-14.265-3.12.445-4.854,2.08-6.291,1.293-6.884-.941Z" transform="translate(-417.782 -446.543)" fill="#e8e9eb"/>
                              <path id="패스_1533536" data-name="패스 1533536" d="M517.532,487.751c-5.041,0-9.772-1.6-12.837-4.38a9.7,9.7,0,0,1-3.416-6.752c-.315-6.62,6.952-12.388,16.2-12.856s17.093,4.507,17.463,11.095h0a9.751,9.751,0,0,1-2.728,7.1c-2.994,3.331-8.031,5.485-13.472,5.761Q518.133,487.752,517.532,487.751ZM518.7,465.2q-.567,0-1.145.029c-8.441.428-15.083,5.505-14.805,11.316a8.265,8.265,0,0,0,2.934,5.732c3.027,2.744,7.893,4.218,12.984,3.969,5.06-.257,9.716-2.23,12.454-5.275a8.315,8.315,0,0,0,2.353-6.035C533.163,469.421,526.643,465.2,518.7,465.2Z" transform="translate(-418.64 -452.149)"/>
                              <path id="패스_1533537" data-name="패스 1533537" d="M515.952,493.566c-4.521,0-8.427-2.069-9.657-5.185l.912-.361c1.131,2.862,5.109,4.754,9.474,4.545,4.328-.228,8.1-2.557,8.966-5.538l.942.274c-.98,3.369-5.124,5.995-9.857,6.242C516.47,493.559,516.209,493.566,515.952,493.566Z" transform="translate(-416.446 -441.978)" fill="#222"/>
                              <rect id="사각형_461319" data-name="사각형 461319" width="0.981" height="18.311" transform="translate(84.242 28.893) rotate(-17.796)" fill="#222"/>
                              <rect id="사각형_461320" data-name="사각형 461320" width="20.432" height="0.982" transform="translate(109.202 45.056) rotate(-74.257)" fill="#222"/>
                              <path id="패스_1533538" data-name="패스 1533538" d="M517.295,490.143c-9.947,0-13.455-12.928-13.49-13.061a.49.49,0,0,1,.948-.249c.033.129,3.538,12.8,13.119,12.314,9.6-.517,10.673-14.217,10.681-14.356a.491.491,0,1,1,.98.069c-.01.147-1.143,14.7-11.608,15.265C517.711,490.137,517.5,490.143,517.295,490.143Z" transform="translate(-417.54 -447.52)" fill="#222"/>
                              <path id="패스_1533539" data-name="패스 1533539" d="M515,486.741a13.239,13.239,0,0,1-5.581-1.24,1.309,1.309,0,0,1,1.109-2.372,10.64,10.64,0,0,0,5.2.97,12.493,12.493,0,0,0,3.61-.72,1.309,1.309,0,1,1,.883,2.464,15.067,15.067,0,0,1-4.338.868Q515.443,486.741,515,486.741Z" transform="translate(-415.41 -443.734)" fill="#222"/>
                              <path id="패스_621315" data-name="패스 621315" d="M504.331,473.307l5.2-5.7,1.734-1.536-.5-1.238,4.061-4.061,3.171-.743,2.675-.247,4.012-2.228,3.913-.544,3.367.595,2.73.941,1.089.5,2.179-1.981,2.08-.247,2.031-.445,3.466.941,1.386,3.467-.144,2.73-.5,2.031,1.635,1.833,1.188,3.367-1.437,2.327-2.378,1.882-.144,2.327-.842,3.071-3.171.144a8.661,8.661,0,0,0-.941,1.58,18.065,18.065,0,0,1-.941,1.833l-1.981,1.188-3.814-.445h-.743L530,486.728l-2.774,1.238-3.616,1.437-4.409.793-6.34-.4s-6.489-3.12-8.42-4.9-2.922-6.39-2.922-6.39l.842-2.576Z" transform="translate(-418.533 -455.363)" fill="#fff"/>
                              <path id="패스_621316" data-name="패스 621316" d="M515.5,468.419l-.5,1.238-4.409,3.566-1.089,1.684a11.015,11.015,0,0,1-3.171-1.04,24.033,24.033,0,0,1,9.064-6.637Z" transform="translate(-416.428 -450.622)" fill="#d1a900"/>
                              <path id="패스_621317" data-name="패스 621317" d="M493.783,466.26l-.1-.1h.1Z" transform="translate(-421.951 -451.089)" fill="#ffd100"/>
                              <path id="패스_621320" data-name="패스 621320" d="M538.123,473.157a2.426,2.426,0,0,0-3.188-1.264,2.351,2.351,0,0,0-.477.273,3.462,3.462,0,0,0-.892,4.061,6.175,6.175,0,0,0,3.12,3.017c1.091.544,2.625.793,3.418-.2a2.441,2.441,0,0,0,.445-1.386,4.956,4.956,0,0,0-2.13-4.31" transform="translate(-404.676 -448.673)" fill="#fff"/>
                              <path id="패스_621321" data-name="패스 621321" d="M538.981,473.2A3.073,3.073,0,0,0,535,471.455l-.036.014a3.847,3.847,0,0,0-2.08,4.453,6.678,6.678,0,0,0,3.715,4.166,4.7,4.7,0,0,0,2.625.5,2.427,2.427,0,0,0,2.031-1.734,5.519,5.519,0,0,0-2.327-5.8.654.654,0,1,0-.644,1.139h0a4.315,4.315,0,0,1,1.783,3.566c0,.595-.143,1.238-.743,1.437a2.716,2.716,0,0,1-1.783-.2,5.592,5.592,0,0,1-3.072-2.73,2.858,2.858,0,0,1,.545-3.318,1.724,1.724,0,0,1,2.435.1,1.706,1.706,0,0,1,.294.44.669.669,0,1,0,1.293-.346h0" transform="translate(-404.89 -448.869)"/>
                              <path id="패스_1533540" data-name="패스 1533540" d="M518.7,491.319c-.118,0-.234,0-.351,0-9.588,0-17.4-5.9-17.4-13.149,0-5.032,3.8-9.605,9.74-11.78a5.794,5.794,0,0,1,.419-2.661c1.251-2.968,5.071-4.487,9.364-3.774a11.428,11.428,0,0,1,8.92-3.6,12.866,12.866,0,0,1,6.719,1.757l.593-.533a8.662,8.662,0,0,1,6.325-1.84,6.158,6.158,0,0,1,4.137,2.336c1.863,2.454,1.876,5.008.033,7.789,2.477,1.928,3.4,5.162,2.037,7.521l-.007.012a5.047,5.047,0,0,1-2.549,2.109,6.147,6.147,0,0,1,.076.876,5.46,5.46,0,0,1-5.13,5.729H541.5a4.893,4.893,0,0,1-4.828,4.139h-.034a4.9,4.9,0,0,1-2.037-.461,6.663,6.663,0,0,0-3.837,1.6A20.6,20.6,0,0,1,518.7,491.319Zm-.326-30.108c-2.823,0-5.123,1.135-5.937,3.067a4.377,4.377,0,0,0-.253,2.464.716.716,0,0,1-.478.812c-5.66,1.888-9.318,6.054-9.318,10.614,0,6.459,7.167,11.712,15.973,11.712a18.97,18.97,0,0,0,11.516-3.626,8.045,8.045,0,0,1,4.84-1.919.674.674,0,0,1,.368.08,3.475,3.475,0,0,0,1.57.391h.023a3.453,3.453,0,0,0,3.449-3.423.719.719,0,0,1,.718-.714h.741a4.022,4.022,0,0,0,3.738-4.242,4.861,4.861,0,0,0-.174-1.234.718.718,0,0,1,.539-.9,3.6,3.6,0,0,0,2.309-1.645c1.083-1.883.108-4.578-2.179-6.012a.726.726,0,0,1-.325-.477.712.712,0,0,1,.131-.562c1.878-2.5,2-4.557.4-6.664a4.661,4.661,0,0,0-3.184-1.78,7.131,7.131,0,0,0-5.218,1.518l-.95.856a.72.72,0,0,1-.868.07,11.307,11.307,0,0,0-6.432-1.817,9.958,9.958,0,0,0-8.092,3.418.717.717,0,0,1-.681.233A11.534,11.534,0,0,0,518.369,461.211Z" transform="translate(-418.781 -455.669)" fill="#222"/>
                              <path id="패스_621323" data-name="패스 621323" d="M520.988,470.125a24.033,24.033,0,0,0-9.064,6.637,7.708,7.708,0,0,1-1.635-.991h-.049c-.644-.595-2.179-4.061-6.884-3.814-.842.05-1.635-.247-2.477-.2a8.111,8.111,0,0,1-7.082-3.017h0l-.144-.743.2-3.219,2.774-2.228,2.576-1.386a13.135,13.135,0,0,1,5.152-.644c1.981.4,5.547,1.485,6.637,4.656l.644.941,1.882.3,1.58-.2,2.08.346,1.981,1.139,1.734,1.536Z" transform="translate(-421.965 -453.567)" fill="#ffda34"/>
                              <path id="패스_621324" data-name="패스 621324" d="M515.4,474.006l-.544,1.536-2.229,1.386-2.477-.5-3.27-3.517L505,471.578l-3.913.5-3.517-.1-2.13-.991-1.04-.941-.642-3.813a9.439,9.439,0,0,0,7.082,3.017c.842,0,2.13-.247,2.972-.247a8.29,8.29,0,0,1,7.232,3.319l1.188.595c.694.595.941.743,3.171,1.139" transform="translate(-421.921 -451.058)" fill="#d1a900"/>
                              <path id="패스_1533541" data-name="패스 1533541" d="M507.865,478.168a.58.58,0,0,1-.1-.01.491.491,0,0,1-.382-.578c.019-.088,1.87-8.63,12-10a.486.486,0,0,1,.553.421.492.492,0,0,1-.421.552c-9.425,1.273-11.108,8.9-11.174,9.221A.494.494,0,0,1,507.865,478.168Z" transform="translate(-415.974 -450.47)" fill="#222"/>
                              <path id="패스_621326" data-name="패스 621326" d="M515.748,475.874c-2.13.743-3.764-1.58-5.1-2.823a8.74,8.74,0,0,0-5.7-1.981c-2.13,0-4.606.595-6.884.1s-3.517-1.635-3.566-3.665c0-3.863,4.507-5.449,7.628-6.042a8.284,8.284,0,0,1,5.35.892,7.048,7.048,0,0,1,3.367,3.913c.445,1.139,1.337,1.238,2.378,1.04a11.264,11.264,0,0,1,3.764-.1c1.981.4,4.259,2.031,3.814,4.359-.144.842,1.139,1.188,1.293.346a5.03,5.03,0,0,0-2.526-5.152,7.4,7.4,0,0,0-3.268-.991,23.12,23.12,0,0,0-3.715.247c-1.238.1-.544-.445-.743-.892a7.273,7.273,0,0,0-.743-1.386,8.444,8.444,0,0,0-2.08-2.031,9.866,9.866,0,0,0-5.746-1.684,15.427,15.427,0,0,0-5.251,1.337,7.7,7.7,0,0,0-4.557,4.409A4.852,4.852,0,0,0,495,471.219a9.448,9.448,0,0,0,6.637,1.437c2.279-.144,5.746-.694,7.975,1.293s3.715,4.166,6.489,3.219c.793-.3.445-1.58-.346-1.293" transform="translate(-422.174 -453.769)" fill="#222"/>
                              <path id="패스_621327" data-name="패스 621327" d="M493.2,465.8a11.038,11.038,0,0,0,.743,4.453c.793,1.833,2.873,2.378,4.7,2.675a15.207,15.207,0,0,0,3.369.2c1.139-.049,2.228-.346,3.318-.5s.842.445,1.139.842l1.139,1.293a10.616,10.616,0,0,0,2.279,2.179c1.783,1.139,4.061,1.485,5.6-.2.595-.644-.346-1.58-.941-.941a2.129,2.129,0,0,1-2.08.793,5.293,5.293,0,0,1-2.327-1.09,16.15,16.15,0,0,1-1.932-2.08c-.544-.644-1.139-1.635-1.932-1.981a4.606,4.606,0,0,0-2.576.2,14.373,14.373,0,0,1-3.12.2,13.157,13.157,0,0,1-3.071-.5,3.475,3.475,0,0,1-2.031-1.139,10.372,10.372,0,0,1-.842-4.31.694.694,0,0,0-1.338,0" transform="translate(-422.165 -451.424)" fill="#222"/>
                            </g>
                          </g>
                        </g>
                      </g>
                    </g>
                  </g>
                </g>
              </g>
            </g>
            <g id="그룹_403755" data-name="그룹 403755" transform="translate(116.473 36.429)">
              <g id="그룹_622074" data-name="그룹 622074" transform="translate(3.573 2.971)">
                <path id="패스_132435-2" data-name="패스 132435-2" d="M531.012,488.139a9.157,9.157,0,0,1-1.529-16.654,5.551,5.551,0,0,1,.2-.741A7.851,7.851,0,0,1,532.37,467l0-.01a9.032,9.032,0,0,1,.274-4.917,9.162,9.162,0,1,1,17.342,5.919c-.04.119-.085.25-.136.366a6.885,6.885,0,0,1,2.251,7.621,7.008,7.008,0,0,1-.684,1.437,7.322,7.322,0,0,1,.7,1.612,4.582,4.582,0,1,1,.991,8.193,4.468,4.468,0,0,1-2.307-1.78,6.885,6.885,0,0,1-7.47,2.062,6.8,6.8,0,0,1-2.715-1.724A9.179,9.179,0,0,1,531.012,488.139Z" transform="translate(-524.805 -455.866)" fill="#fff" opacity="0.859" style="isolation: isolate"/>
              </g>
              <g id="그룹_25744" data-name="그룹 25744" transform="translate(0 0)">
                <g id="그룹_403756" data-name="그룹 403756" transform="translate(0)">
                  <path id="패스_132511" data-name="패스 132511" d="M560.725,474.219a3.416,3.416,0,1,1-2.118-4.341,3.418,3.418,0,0,1,2.118,4.341h0" transform="translate(-508.453 -446.86)" fill="#fff"/>
                  <path id="패스_132513" data-name="패스 132513" d="M546.875,466.6a9.111,9.111,0,1,1-5.649-11.58,9.112,9.112,0,0,1,5.649,11.58h0" transform="translate(-519.337 -453.485)" fill="#fff"/>
                  <path id="패스_132514" data-name="패스 132514" d="M541.763,478.088a9.111,9.111,0,1,1-5.649-11.58,9.111,9.111,0,0,1,5.649,11.58h0" transform="translate(-521.569 -448.467)" fill="#fff"/>
                  <path id="패스_132515" data-name="패스 132515" d="M546.928,477.735a6.833,6.833,0,1,1-4.237-8.684,6.833,6.833,0,0,1,4.237,8.684h0" transform="translate(-517.379 -447.302)" fill="#fff"/>
                  <rect id="사각형_37487" data-name="사각형 37487" width="34.164" height="44.412" transform="matrix(0.326, -0.946, 0.946, 0.326, 0, 32.302)" fill="none"/>
                </g>
              </g>
            </g>
            <path id="패스_1533542" data-name="패스 1533542" d="M521.715,480.262a.5.5,0,0,1-.262-.931c1.813-1.106,6.373-4.515,5.736-6.976a.5.5,0,1,1,.974-.253c.954,3.683-5.894,7.908-6.186,8.087A.5.5,0,0,1,521.715,480.262Z" transform="translate(-406.328 -409.542)" fill="#222"/>
            <path id="패스_1533543" data-name="패스 1533543" d="M532.983,480.067c-5.144,0-9.213-3.8-9.27-3.855l.693-.728c.317.3,7.826,7.291,15.085.973l.346-.3.332.317a7.04,7.04,0,0,0,9.46.289l.651.766a8.038,8.038,0,0,1-10.471-.023A10.578,10.578,0,0,1,532.983,480.067Z" transform="translate(-404.251 -406.915)" fill="#222"/>
          </g>
          <path id="패스_807332" data-name="패스 807332" d="M550.464,479.872a3.261,3.261,0,1,1,3.261-3.261,3.261,3.261,0,0,1-3.261,3.261Z" transform="translate(59.079 20.032)" fill="#fff" opacity="0.7" style="isolation: isolate"/>
          <path id="패스_807333" data-name="패스 807333" d="M543.412,480.29c-3.735,0-6.772-1.668-6.772-3.725s3.033-3.724,6.772-3.724,6.772,1.666,6.772,3.724S547.152,480.29,543.412,480.29Z" transform="translate(54.468 19.81)" fill="#fff" opacity="0.7" style="isolation: isolate"/>
        </g>
      </g>
    </g>
  </g>
</svg>
